<svg viewBox="0 0 59 60" fill="none" xmlns="http://www.w3.org/2000/svg">
<path d="M46.4553 28.0537L31.4553 36.714V19.3935L46.4553 28.0537ZM13.4714 43.3852C13.4714 43.381 13.4714 43.3768 13.4714 43.3726C13.4714 43.3684 13.4714 43.3642 13.4714 43.36C13.4714 43.3557 13.4714 43.3515 13.4714 43.3472C13.4714 43.343 13.4714 43.3387 13.4714 43.3344C13.4714 43.3302 13.4714 43.3259 13.4714 43.3216C13.4714 43.3173 13.4714 43.313 13.4714 43.3087C13.4714 43.3043 13.4714 43.3 13.4714 43.2957C13.4714 43.2913 13.4714 43.287 13.4714 43.2826C13.4714 43.2783 13.4714 43.2739 13.4714 43.2695C13.4714 43.2652 13.4714 43.2608 13.4714 43.2564C13.4714 43.252 13.4714 43.2476 13.4714 43.2431C13.4714 43.2387 13.4714 43.2343 13.4714 43.2298C13.4714 43.2254 13.4714 43.221 13.4714 43.2165C13.4714 43.212 13.4714 43.2076 13.4714 43.2031C13.4714 43.1986 13.4714 43.1941 13.4714 43.1896C13.4714 43.1851 13.4714 43.1806 13.4714 43.1761C13.4714 43.1716 13.4714 43.167 13.4714 43.1625C13.4714 43.1579 13.4714 43.1534 13.4714 43.1488C13.4714 43.1443 13.4714 43.1397 13.4714 43.1351C13.4714 43.1305 13.4714 43.1259 13.4714 43.1213C13.4714 43.1167 13.4714 43.1121 13.4714 43.1075C13.4714 43.1029 13.4714 43.0982 13.4714 43.0936C13.4714 43.089 13.4714 43.0843 13.4714 43.0797C13.4714 43.075 13.4714 43.0703 13.4714 43.0656C13.4714 43.061 13.4714 43.0563 13.4714 43.0516C13.4714 43.0469 13.4714 43.0422 13.4714 43.0374C13.4714 43.0327 13.4714 43.028 13.4714 43.0233C13.4714 43.0185 13.4714 43.0138 13.4714 43.009C13.4714 43.0043 13.4714 42.9995 13.4714 42.9947C13.4714 42.9899 13.4714 42.9851 13.4714 42.9803C13.4714 42.9756 13.4714 42.9707 13.4714 42.9659C13.4714 42.9611 13.4714 42.9563 13.4714 42.9515C13.4714 42.9466 13.4714 42.9418 13.4714 42.9369C13.4714 42.9321 13.4714 42.9272 13.4714 42.9223C13.4714 42.9175 13.4714 42.9126 13.4714 42.9077C13.4714 42.9028 13.4714 42.8979 13.4714 42.893C13.4714 42.8881 13.4714 42.8832 13.4714 42.8782C13.4714 42.8733 13.4714 42.8684 13.4714 42.8634C13.4714 42.8585 13.4714 42.8535 13.4714 42.8486C13.4714 42.8436 13.4714 42.8386 13.4714 42.8336C13.4714 42.8287 13.4714 42.8237 13.4714 42.8187C13.4714 42.8137 13.4714 42.8086 13.4714 42.8036C13.4714 42.7986 13.4714 42.7936 13.4714 42.7885C13.4714 42.7835 13.4714 42.7785 13.4714 42.7734C13.4714 42.7683 13.4714 42.7633 13.4714 42.7582C13.4714 42.7531 13.4714 42.748 13.4714 42.743C13.4714 42.7379 13.4714 42.7328 13.4714 42.7277C13.4714 42.7225 13.4714 42.7174 13.4714 42.7123C13.4714 42.7072 13.4714 42.702 13.4714 42.6969C13.4714 42.6917 13.4714 42.6866 13.4714 42.6814C13.4714 42.6763 13.4714 42.6711 13.4714 42.6659C13.4714 42.6607 13.4714 42.6555 13.4714 42.6503C13.4714 42.6451 13.4714 42.6399 13.4714 42.6347C13.4714 42.6295 13.4714 42.6243 13.4714 42.6191C13.4714 42.6138 13.4714 42.6086 13.4714 42.6033C13.4714 42.5981 13.4714 42.5928 13.4714 42.5876C13.4714 42.5823 13.4714 42.577 13.4714 42.5717C13.4714 42.5664 13.4714 42.5612 13.4714 42.5559C13.4714 42.5506 13.4714 42.5452 13.4714 42.5399C13.4714 42.5346 13.4714 42.5293 13.4714 42.5239C13.4714 42.5186 13.4714 42.5133 13.4714 42.5079C13.4714 42.5026 13.4714 42.4972 13.4714 42.4918C13.4714 42.4865 13.4714 42.4811 13.4714 42.4757C13.4714 42.4703 13.4714 42.4649 13.4714 42.4595C13.4714 42.4541 13.4714 42.4487 13.4714 42.4433C13.4714 42.4379 13.4714 42.4325 13.4714 42.427C13.4714 42.4216 13.4714 42.4161 13.4714 42.4107C13.4714 42.4052 13.4714 42.3998 13.4714 42.3943C13.4714 42.3889 13.4714 42.3834 13.4714 42.3779C13.4714 42.3724 13.4714 42.3669 13.4714 42.3614C13.4714 42.3559 13.4714 42.3504 13.4714 42.3449C13.4714 42.3394 13.4714 42.3339 13.4714 42.3283C13.4714 42.3228 13.4714 42.3173 13.4714 42.3117C13.4714 42.3062 13.4714 42.3006 13.4714 42.2951C13.4714 42.2895 13.4714 42.2839 13.4714 42.2783C13.4714 42.2728 13.4714 42.2672 13.4714 42.2616C13.4714 42.256 13.4714 42.2504 13.4714 42.2448C13.4714 42.2392 13.4714 42.2336 13.4714 42.2279C13.4714 42.2223 13.4714 42.2167 13.4714 42.211C13.4714 42.2054 13.4714 42.1998 13.4714 42.1941C13.4714 42.1884 13.4714 42.1828 13.4714 42.1771C13.4714 42.1714 13.4714 42.1658 13.4714 42.1601C13.4714 42.1544 13.4714 42.1487 13.4714 42.143C13.4714 42.1373 13.4714 42.1316 13.4714 42.1259C13.4714 42.1202 13.4714 42.1144 13.4714 42.1087C13.4714 42.103 13.4714 42.0972 13.4714 42.0915C13.4714 42.0857 13.4714 42.08 13.4714 42.0742C13.4714 42.0685 13.4714 42.0627 13.4714 42.0569C13.4714 42.0511 13.4714 42.0454 13.4714 42.0396C13.4714 42.0338 13.4714 42.028 13.4714 42.0222C13.4714 42.0164 13.4714 42.0106 13.4714 42.0048C13.4714 41.9989 13.4714 41.9931 13.4714 41.9873C13.4714 41.9814 13.4714 41.9756 13.4714 41.9698C13.4714 41.9639 13.4714 41.9581 13.4714 41.9522C13.4714 41.9463 13.4714 41.9405 13.4714 41.9346C13.4714 41.9287 13.4714 41.9228 13.4714 41.9169C13.4714 41.911 13.4714 41.9051 13.4714 41.8992C13.4714 41.8933 13.4714 41.8874 13.4714 41.8815C13.4714 41.8756 13.4714 41.8697 13.4714 41.8637C13.4714 41.8578 13.4714 41.8519 13.4714 41.8459C13.4714 41.84 13.4714 41.834 13.4714 41.8281C13.4714 41.8221 13.4714 41.8161 13.4714 41.8102C13.4714 41.8042 13.4714 41.7982 13.4714 41.7922C13.4714 41.7862 13.4714 41.7803 13.4714 41.7743C13.4714 41.7683 13.4714 41.7622 13.4714 41.7562C13.4714 41.7502 13.4714 41.7442 13.4714 41.7382C13.4714 41.7321 13.4714 41.7261 13.4714 41.7201C13.4714 41.714 13.4714 41.708 13.4714 41.7019C13.4714 41.6959 13.4714 41.6898 13.4714 41.6838C13.4714 41.6777 13.4714 41.6716 13.4714 41.6655C13.4714 41.6595 13.4714 41.6534 13.4714 41.6473C13.4714 41.6412 13.4714 41.6351 13.4714 41.629C13.4714 41.6229 13.4714 41.6168 13.4714 41.6107C13.4714 41.6045 13.4714 41.5984 13.4714 41.5923C13.4714 41.5861 13.4714 41.58 13.4714 41.5739C13.4714 41.5677 13.4714 41.5616 13.4714 41.5554C13.4714 41.5493 13.4714 41.5431 13.4714 41.5369C13.4714 41.5308 13.4714 41.5246 13.4714 41.5184C13.4714 41.5122 13.4714 41.506 13.4714 41.4999C13.4714 41.4937 13.4714 41.4875 13.4714 41.4813C13.4714 41.475 13.4714 41.4688 13.4714 41.4626C13.4714 41.4564 13.4714 41.4502 13.4714 41.4439C13.4714 41.4377 13.4714 41.4315 13.4714 41.4252C13.4714 41.419 13.4714 41.4128 13.4714 41.4065C13.4714 41.4002 13.4714 41.394 13.4714 41.3877C13.4714 41.3815 13.4714 41.3752 13.4714 41.3689C13.4714 41.3626 13.4714 41.3563 13.4714 41.3501C13.4714 41.3438 13.4714 41.3375 13.4714 41.3312C13.4714 41.3249 13.4714 41.3186 13.4714 41.3123C13.4714 41.3059 13.4714 41.2996 13.4714 41.2933C13.4714 41.287 13.4714 41.2807 13.4714 41.2743C13.4714 41.268 13.4714 41.2616 13.4714 41.2553C13.4714 41.249 13.4714 41.2426 13.4714 41.2362C13.4714 41.2299 13.4714 41.2235 13.4714 41.2172C13.4714 41.2108 13.4714 41.2044 13.4714 41.198C13.4714 41.1916 13.4714 41.1853 13.4714 41.1789C13.4714 41.1725 13.4714 41.1661 13.4714 41.1597C13.4714 41.1533 13.4714 41.1469 13.4714 41.1405C13.4714 41.134 13.4714 41.1276 13.4714 41.1212C13.4714 41.1148 13.4714 41.1084 13.4714 41.1019C13.4714 41.0955 13.4714 41.089 13.4714 41.0826C13.4714 41.0762 13.4714 41.0697 13.4714 41.0633C13.4714 41.0568 13.4714 41.0503 13.4714 41.0439C13.4714 41.0374 13.4714 41.0309 13.4714 41.0245C13.4714 41.018 13.4714 41.0115 13.4714 41.005C13.4714 40.9985 13.4714 40.992 13.4714 40.9855C13.4714 40.979 13.4714 40.9725 13.4714 40.966C13.4714 40.9595 13.4714 40.953 13.4714 40.9465C13.4714 40.94 13.4714 40.9335 13.4714 40.9269C13.4714 40.9204 13.4714 40.9139 13.4714 40.9073C13.4714 40.9008 13.4714 40.8942 13.4714 40.8877C13.4714 40.8812 13.4714 40.8746 13.4714 40.868C13.4714 40.8615 13.4714 40.8549 13.4714 40.8484C13.4714 40.8418 13.4714 40.8352 13.4714 40.8286C13.4714 40.8221 13.4714 40.8155 13.4714 40.8089C13.4714 40.8023 13.4714 40.7957 13.4714 40.7891C13.4714 40.7825 13.4714 40.7759 13.4714 40.7693C13.4714 40.7627 13.4714 40.7561 13.4714 40.7495C13.4714 40.7429 13.4714 40.7363 13.4714 40.7296C13.4714 40.723 13.4714 40.7164 13.4714 40.7098C13.4714 40.7031 13.4714 40.6965 13.4714 40.6898C13.4714 40.6832 13.4714 40.6766 13.4714 40.6699C13.4714 40.6633 13.4714 40.6566 13.4714 40.6499C13.4714 40.6433 13.4714 40.6366 13.4714 40.6299C13.4714 40.6233 13.4714 40.6166 13.4714 40.6099C13.4714 40.6032 13.4714 40.5966 13.4714 40.5899C13.4714 40.5832 13.4714 40.5765 13.4714 40.5698C13.4714 40.5631 13.4714 40.5564 13.4714 40.5497C13.4714 40.543 13.4714 40.5363 13.4714 40.5296C13.4714 40.5229 13.4714 40.5162 13.4714 40.5094C13.4714 40.5027 13.4714 40.496 13.4714 40.4893C13.4714 40.4825 13.4714 40.4758 13.4714 40.4691C13.4714 40.4623 13.4714 40.4556 13.4714 40.4488C13.4714 40.4421 13.4714 40.4353 13.4714 40.4286C13.4714 40.4218 13.4714 40.4151 13.4714 40.4083C13.4714 40.4015 13.4714 40.3948 13.4714 40.388C13.4714 40.3812 13.4714 40.3745 13.4714 40.3677C13.4714 40.3609 13.4714 40.3541 13.4714 40.3473C13.4714 40.3406 13.4714 40.3338 13.4714 40.327C13.4714 40.3202 13.4714 40.3134 13.4714 40.3066C13.4714 40.2998 13.4714 40.293 13.4714 40.2862C13.4714 40.2794 13.4714 40.2726 13.4714 40.2657C13.4714 40.2589 13.4714 40.2521 13.4714 40.2453C13.4714 40.2385 13.4714 40.2316 13.4714 40.2248C13.4714 40.218 13.4714 40.2111 13.4714 40.2043C13.4714 40.1975 13.4714 40.1906 13.4714 40.1838C13.4714 40.1769 13.4714 40.1701 13.4714 40.1632C13.4714 40.1564 13.4714 40.1495 13.4714 40.1426C13.4714 40.1358 13.4714 40.1289 13.4714 40.1221C13.4714 40.1152 13.4714 40.1083 13.4714 40.1014C13.4714 40.0946 13.4714 40.0877 13.4714 40.0808C13.4714 40.0739 13.4714 40.0671 13.4714 40.0602C13.4714 40.0533 13.4714 40.0464 13.4714 40.0395C13.4714 40.0326 13.4714 40.0257 13.4714 40.0188C13.4714 40.0119 13.4714 40.005 13.4714 39.9981C13.4714 39.9912 13.4714 39.9843 13.4714 39.9774C13.4714 39.9704 13.4714 39.9635 13.4714 39.9566C13.4714 39.9497 13.4714 39.9428 13.4714 39.9358C13.4714 39.9289 13.4714 39.922 13.4714 39.9151C13.4714 39.9081 13.4714 39.9012 13.4714 39.8942C13.4714 39.8873 13.4714 39.8804 13.4714 39.8734C13.4714 39.8665 13.4714 39.8595 13.4714 39.8526C13.4714 39.8456 13.4714 39.8387 13.4714 39.8317C13.4714 39.8248 13.4714 39.8178 13.4714 39.8108C13.4714 39.8039 13.4714 39.7969 13.4714 39.7899C13.4714 39.783 13.4714 39.776 13.4714 39.769C13.4714 39.7621 13.4714 39.7551 13.4714 39.7481C13.4714 39.7411 13.4714 39.7341 13.4714 39.7272C13.4714 39.7202 13.4714 39.7132 13.4714 39.7062C13.4714 39.6992 13.4714 39.6922 13.4714 39.6852C13.4714 39.6782 13.4714 39.6712 13.4714 39.6642C13.4714 39.6572 13.4714 39.6502 13.4714 39.6432C13.4714 39.6362 13.4714 39.6292 13.4714 39.6222C13.4714 39.6152 13.4714 39.6082 13.4714 39.6011C13.4714 39.5941 13.4714 39.5871 13.4714 39.5801C13.4714 39.5731 13.4714 39.566 13.4714 39.559C13.4714 39.552 13.4714 39.545 13.4714 39.5379C13.4714 39.5309 13.4714 39.5239 13.4714 39.5168C13.4714 39.5098 13.4714 39.5027 13.4714 39.4957C13.4714 39.4887 13.4714 39.4816 13.4714 39.4746C13.4714 39.4675 13.4714 39.4605 13.4714 39.4534C13.4714 39.4464 13.4714 39.4393 13.4714 39.4323C13.4714 39.4252 13.4714 39.4182 13.4714 39.4111C13.4714 39.404 13.4714 39.397 13.4714 39.3899C13.4714 39.3829 13.4714 39.3758 13.4714 39.3687C13.4714 39.3617 13.4714 39.3546 13.4714 39.3475C13.4714 39.3404 13.4714 39.3334 13.4714 39.3263C13.4714 39.3192 13.4714 39.3121 13.4714 39.3051C13.4714 39.298 13.4714 39.2909 13.4714 39.2838C13.4714 39.2767 13.4714 39.2696 13.4714 39.2626C13.4714 39.2555 13.4714 39.2484 13.4714 39.2413C13.4714 39.2342 13.4714 39.2271 13.4714 39.22C13.4714 39.2129 13.4714 39.2058 13.4714 39.1987C13.4714 39.1916 13.4714 39.1845 13.4714 39.1774C13.4714 39.1703 13.4714 39.1632 13.4714 39.1561C13.4714 39.149 13.4714 39.1419 13.4714 39.1348C13.4714 39.1277 13.4714 39.1206 13.4714 39.1134C13.4714 39.1063 13.4714 39.0992 13.4714 39.0921C13.4714 39.085 13.4714 39.0779 13.4714 39.0708C13.4714 39.0636 13.4714 39.0565 13.4714 39.0494C13.4714 39.0423 13.4714 39.0351 13.4714 39.028C13.4714 39.0209 13.4714 39.0138 13.4714 39.0066C13.4714 38.9995 13.4714 38.9924 13.4714 38.9853C13.4714 38.9781 13.4714 38.971 13.4714 38.9639C13.4714 38.9567 13.4714 38.9496 13.4714 38.9424C13.4714 38.9353 13.4714 38.9282 13.4714 38.921C13.4714 38.9139 13.4714 38.9068 13.4714 38.8996C13.4714 38.8925 13.4714 38.8853 13.4714 38.8782C13.4714 38.871 13.4714 38.8639 13.4714 38.8567C13.4714 38.8496 13.4714 38.8425 13.4714 38.8353C13.4714 38.8282 13.4714 38.821 13.4714 38.8139C13.4714 38.8067 13.4714 38.7996 13.4714 38.7924C13.4714 38.7852 13.4714 38.7781 13.4714 38.7709C13.4714 38.7638 13.4714 38.7566 13.4714 38.7495C13.4714 38.7423 13.4714 38.7352 13.4714 38.728C13.4714 38.7208 13.4714 38.7137 13.4714 38.7065C13.4714 38.6993 13.4714 38.6922 13.4714 38.685C13.4714 38.6779 13.4714 38.6707 13.4714 38.6635C13.4714 38.6564 13.4714 38.6492 13.4714 38.642C13.4714 38.6349 13.4714 38.6277 13.4714 38.6205C13.4714 38.6134 13.4714 38.6062 13.4714 38.599C13.4714 38.5919 13.4714 38.5847 13.4714 38.5775C13.4714 38.5703 13.4714 38.5632 13.4714 38.556C13.4714 38.5488 13.4714 38.5417 13.4714 38.5345C13.4714 38.5273 13.4714 38.5201 13.4714 38.513C13.4714 38.5058 13.4714 38.4986 13.4714 38.4914C13.4714 38.4843 13.4714 38.4771 13.4714 38.4699C13.4714 38.4627 13.4714 38.4555 13.4714 38.4484C13.4714 38.4412 13.4714 38.434 13.4714 38.4268C13.4714 38.4197 13.4714 38.4125 13.4714 38.4053C13.4714 38.3981 13.4714 38.3909 13.4714 38.3838C13.4714 38.3766 13.4714 38.3694 13.4714 38.3622C13.4714 38.355 13.4714 38.3479 13.4714 38.3407C13.4714 38.3335 13.4714 38.3263 13.4714 38.3191C13.4714 38.3119 13.4714 38.3048 13.4714 38.2976C13.4714 38.2904 13.4714 38.2832 13.4714 38.276C13.4714 38.2688 13.4714 38.2617 13.4714 38.2545C13.4714 38.2473 13.4714 38.2401 13.4714 38.2329C13.4714 38.2257 13.4714 38.2186 13.4714 38.2114C13.4714 38.2042 13.4714 38.197 13.4714 38.1898C13.4714 38.1826 13.4714 38.1755 13.4714 38.1683C13.4714 38.1611 13.4714 38.1539 13.4714 38.1467C13.4714 38.1395 13.4714 38.1324 13.4714 38.1252C13.4714 38.118 13.4714 38.1108 13.4714 38.1036C13.4714 38.0964 13.4714 38.0893 13.4714 38.0821C13.4714 38.0749 13.4714 38.0677 13.4714 38.0605C13.4714 38.0534 13.4714 38.0462 13.4714 38.039C13.4714 38.0318 13.4714 38.0246 13.4714 38.0174C13.4714 38.0103 13.4714 38.0031 13.4714 37.9959C13.4714 37.9887 13.4714 37.9815 13.4714 37.9744C13.4714 37.9672 13.4714 37.96 13.4714 37.9528C13.4714 37.9456 13.4714 37.9385 13.4714 37.9313C13.4714 37.9241 13.4714 37.9169 13.4714 37.9098C13.4714 37.9026 13.4714 37.8954 13.4714 37.8882C13.4714 37.881 13.4714 37.8739 13.4714 37.8667C13.4714 37.8595 13.4714 37.8523 13.4714 37.8452C13.4714 37.838 13.4714 37.8308 13.4714 37.8236C13.4714 37.8165 13.4714 37.8093 13.4714 37.8021C13.4714 37.795 13.4714 37.7878 13.4714 37.7806C13.4714 37.7735 13.4714 37.7663 13.4714 37.7591C13.4714 37.7519 13.4714 37.7448 13.4714 37.7376C13.4714 37.7304 13.4714 37.7233 13.4714 37.7161C13.4714 37.7089 13.4714 37.7018 13.4714 37.6946C13.4714 37.6875 13.4714 37.6803 13.4714 37.6731C13.4714 37.666 13.4714 37.6588 13.4714 37.6516C13.4714 37.6445 13.4714 37.6373 13.4714 37.6302C13.4714 37.623 13.4714 37.6159 13.4714 37.6087C13.4714 37.6015 13.4714 37.5944 13.4714 37.5872C13.4714 37.5801 13.4714 37.5729 13.4714 37.5658C13.4714 37.5586 13.4714 37.5515 13.4714 37.5443C13.4714 37.5372 13.4714 37.53 13.4714 37.5229C13.4714 37.5157 13.4714 37.5086 13.4714 37.5014C13.4714 37.4943 13.4714 37.4872 13.4714 37.48C13.4714 37.4729 13.4714 37.4657 13.4714 37.4586C13.4714 37.4514 13.4714 37.4443 13.4714 37.4372C13.4714 37.43 13.4714 37.4229 13.4714 37.4158C13.4714 37.4086 13.4714 37.4015 13.4714 37.3944C13.4714 37.3872 13.4714 37.3801 13.4714 37.373C13.4714 37.3658 13.4714 37.3587 13.4714 37.3516C13.4714 37.3445 13.4714 37.3373 13.4714 37.3302C13.4714 37.3231 13.4714 37.316 13.4714 37.3089C13.4714 37.3017 13.4714 37.2946 13.4714 37.2875C13.4714 37.2804 13.4714 37.2733 13.4714 37.2662C13.4714 37.259 13.4714 37.2519 13.4714 37.2448C13.4714 37.2377 13.4714 37.2306 13.4714 37.2235C13.4714 37.2164 13.4714 37.2093 13.4714 37.2022C13.4714 37.1951 13.4714 37.188 13.4714 37.1809C13.4714 37.1738 13.4714 37.1667 13.4714 37.1596C13.4714 37.1525 13.4714 37.1454 13.4714 37.1383C13.4714 37.1312 13.4714 37.1241 13.4714 37.117C13.4714 37.1099 13.4714 37.1028 13.4714 37.0958C13.4714 37.0887 13.4714 37.0816 13.4714 37.0745C13.4714 37.0674 13.4714 37.0604 13.4714 37.0533C13.4714 37.0462 13.4714 37.0391 13.4714 37.0321C13.4714 37.025 13.4714 37.0179 13.4714 37.0108C13.4714 37.0038 13.4714 36.9967 13.4714 36.9896C13.4714 36.9826 13.4714 36.9755 13.4714 36.9684C13.4714 36.9614 13.4714 36.9543 13.4714 36.9473C13.4714 36.9402 13.4714 36.9332 13.4714 36.9261C13.4714 36.9191 13.4714 36.912 13.4714 36.905C13.4714 36.8979 13.4714 36.8909 13.4714 36.8838C13.4714 36.8768 13.4714 36.8698 13.4714 36.8627C13.4714 36.8557 13.4714 36.8486 13.4714 36.8416C13.4714 36.8346 13.4714 36.8275 13.4714 36.8205C13.4714 36.8135 13.4714 36.8065 13.4714 36.7994C13.4714 36.7924 13.4714 36.7854 13.4714 36.7784C13.4714 36.7714 13.4714 36.7643 13.4714 36.7573C13.4714 36.7503 13.4714 36.7433 13.4714 36.7363C13.4714 36.7293 13.4714 36.7223 13.4714 36.7153C13.4714 36.7083 13.4714 36.7013 13.4714 36.6943C13.4714 36.6873 13.4714 36.6803 13.4714 36.6733C13.4714 36.6663 13.4714 36.6593 13.4714 36.6523C13.4714 36.6453 13.4714 36.6384 13.4714 36.6314C13.4714 36.6244 13.4714 36.6174 13.4714 36.6104C13.4714 36.6035 13.4714 36.5965 13.4714 36.5895C13.4714 36.5826 13.4714 36.5756 13.4714 36.5686C13.4714 36.5617 13.4714 36.5547 13.4714 36.5477C13.4714 36.5408 13.4714 36.5338 13.4714 36.5269C13.4714 36.5199 13.4714 36.513 13.4714 36.506C13.4714 36.4991 13.4714 36.4921 13.4714 36.4852C13.4714 36.4783 13.4714 36.4713 13.4714 36.4644C13.4714 36.4575 13.4714 36.4505 13.4714 36.4436C13.4714 36.4367 13.4714 36.4297 13.4714 36.4228C13.4714 36.4159 13.4714 36.409 13.4714 36.4021C13.4714 36.3952 13.4714 36.3882 13.4714 36.3813C13.4714 36.3744 13.4714 36.3675 13.4714 36.3606C13.4714 36.3537 13.4714 36.3468 13.4714 36.3399C13.4714 36.333 13.4714 36.3261 13.4714 36.3192C13.4714 36.3123 13.4714 36.3055 13.4714 36.2986C13.4714 36.2917 13.4714 36.2848 13.4714 36.2779C13.4714 36.2711 13.4714 36.2642 13.4714 36.2573C13.4714 36.2505 13.4714 36.2436 13.4714 36.2367C13.4714 36.2299 13.4714 36.223 13.4714 36.2162C13.4714 36.2093 13.4714 36.2025 13.4714 36.1956C13.4714 36.1888 13.4714 36.1819 13.4714 36.1751C13.4714 36.1682 13.4714 36.1614 13.4714 36.1546C13.4714 36.1477 13.4714 36.1409 13.4714 36.1341C13.4714 36.1272 13.4714 36.1204 13.4714 36.1136C13.4714 36.1068 13.4714 36.1 13.4714 36.0932C13.4714 36.0864 13.4714 36.0795 13.4714 36.0727C13.4714 36.0659 13.4714 36.0591 13.4714 36.0523C13.4714 36.0456 13.4714 36.0388 13.4714 36.032C13.4714 36.0252 13.4714 36.0184 13.4714 36.0116C13.4714 36.0048 13.4714 35.9981 13.4714 35.9913C13.4714 35.9845 13.4714 35.9778 13.4714 35.971C13.4714 35.9642 13.4714 35.9575 13.4714 35.9507C13.4714 35.944 13.4714 35.9372 13.4714 35.9305C13.4714 35.9237 13.4714 35.917 13.4714 35.9102C13.4714 35.9035 13.4714 35.8967 13.4714 35.89C13.4714 35.8833 13.4714 35.8766 13.4714 35.8698C13.4714 35.8631 13.4714 35.8564 13.4714 35.8497C13.4714 35.843 13.4714 35.8363 13.4714 35.8295C13.4714 35.8228 13.4714 35.8161 13.4714 35.8094C13.4714 35.8027 13.4714 35.796 13.4714 35.7894C13.4714 35.7827 13.4714 35.776 13.4714 35.7693C13.4714 35.7626 13.4714 35.7559 13.4714 35.7493C13.4714 35.7426 13.4714 35.7359 13.4714 35.7293C13.4714 35.7226 13.4714 35.716 13.4714 35.7093C13.4714 35.7026 13.4714 35.696 13.4714 35.6894C13.4714 35.6827 13.4714 35.6761 13.4714 35.6694C13.4714 35.6628 13.4714 35.6562 13.4714 35.6495C13.4714 35.6429 13.4714 35.6363 13.4714 35.6297C13.4714 35.6231 13.4714 35.6164 13.4714 35.6098C13.4714 35.6032 13.4714 35.5966 13.4714 35.59C13.4714 35.5834 13.4714 35.5768 13.4714 35.5703C13.4714 35.5637 13.4714 35.5571 13.4714 35.5505C13.4714 35.5439 13.4714 35.5373 13.4714 35.5308C13.4714 35.5242 13.4714 35.5176 13.4714 35.5111C13.4714 35.5045 13.4714 35.498 13.4714 35.4914C13.4714 35.4849 13.4714 35.4783 13.4714 35.4718C13.4714 35.4652 13.4714 35.4587 13.4714 35.4522C13.4714 35.4456 13.4714 35.4391 13.4714 35.4326C13.4714 35.4261 13.4714 35.4196 13.4714 35.4131C13.4714 35.4065 13.4714 35.4 13.4714 35.3935C13.4714 35.387 13.4714 35.3805 13.4714 35.3741C13.4714 35.3676 13.4714 35.3611 13.4714 35.3546C13.4714 35.3481 13.4714 35.3416 13.4714 35.3352C13.4714 35.3287 13.4714 35.3222 13.4714 35.3158C13.4714 35.3093 13.4714 35.3029 13.4714 35.2964C13.4714 35.29 13.4714 35.2835 13.4714 35.2771C13.4714 35.2707 13.4714 35.2642 13.4714 35.2578C13.4714 35.2514 13.4714 35.245 13.4714 35.2385C13.4714 35.2321 13.4714 35.2257 13.4714 35.2193C13.4714 35.2129 13.4714 35.2065 13.4714 35.2001C13.4714 35.1937 13.4714 35.1873 13.4714 35.1809C13.4714 35.1746 13.4714 35.1682 13.4714 35.1618C13.4714 35.1554 13.4714 35.1491 13.4714 35.1427C13.4714 35.1364 13.4714 35.13 13.4714 35.1236C13.4714 35.1173 13.4714 35.111 13.4714 35.1046C13.4714 35.0983 13.4714 35.0919 13.4714 35.0856C13.4714 35.0793 13.4714 35.073 13.4714 35.0667C13.4714 35.0603 13.4714 35.054 13.4714 35.0477C13.4714 35.0414 13.4714 35.0351 13.4714 35.0288C13.4714 35.0225 13.4714 35.0163 13.4714 35.01C13.4714 35.0037 13.4714 34.9974 13.4714 34.9912C13.4714 34.9849 13.4714 34.9786 13.4714 34.9724C13.4714 34.9661 13.4714 34.9599 13.4714 34.9536C13.4714 34.9474 13.4714 34.9411 13.4714 34.9349C13.4714 34.9287 13.4714 34.9224 13.4714 34.9162C13.4714 34.91 13.4714 34.9038 13.4714 34.8976C13.4714 34.8914 13.4714 34.8852 13.4714 34.879C13.4714 34.8728 13.4714 34.8666 13.4714 34.8604C13.4714 34.8542 13.4714 34.848 13.4714 34.8419C13.4714 34.8357 13.4714 34.8295 13.4714 34.8234C13.4714 34.8172 13.4714 34.811 13.4714 34.8049C13.4714 34.7988 13.4714 34.7926 13.4714 34.7865C13.4714 34.7803 13.4714 34.7742 13.4714 34.7681C13.4714 34.762 13.4714 34.7559 13.4714 34.7498C13.4714 34.7436 13.4714 34.7375 13.4714 34.7314C13.4714 34.7254 13.4714 34.7193 13.4714 34.7132C13.4714 34.7071 13.4714 34.701 13.4714 34.695C13.4714 34.6889 13.4714 34.6828 13.4714 34.6768C13.4714 34.6707 13.4714 34.6647 13.4714 34.6586C13.4714 34.6526 13.4714 34.6465 13.4714 34.6405C13.4714 34.6345 13.4714 34.6284 13.4714 34.6224C13.4714 34.6164 13.4714 34.6104 13.4714 34.6044C13.4714 34.5984 13.4714 34.5924 13.4714 34.5864C13.4714 34.5804 13.4714 34.5744 13.4714 34.5685C13.4714 34.5625 13.4714 34.5565 13.4714 34.5505C13.4714 34.5446 13.4714 34.5386 13.4714 34.5327C13.4714 34.5267 13.4714 34.5208 13.4714 34.5149C13.4714 34.5089 13.4714 34.503 13.4714 34.4971C13.4714 34.4911 13.4714 34.4852 13.4714 34.4793C13.4714 34.4734 13.4714 34.4675 13.4714 34.4616C13.4714 34.4557 13.4714 34.4498 13.4714 34.444C13.4714 34.4381 13.4714 34.4322 13.4714 34.4263C13.4714 34.4205 13.4714 34.4146 13.4714 34.4088C13.4714 34.4029 13.4714 34.3971 13.4714 34.3912C13.4714 34.3854 13.4714 34.3796 13.4714 34.3737C13.4714 34.3679 13.4714 34.3621 13.4714 34.3563C13.4714 34.3505 13.4714 34.3447 13.4714 34.3389C13.4714 34.3331 13.4714 34.3273 13.4714 34.3215C13.4714 34.3158 13.4714 34.31 13.4714 34.3042C13.4714 34.2985 13.4714 34.2927 13.4714 34.2869C13.4714 34.2812 13.4714 34.2755 13.4714 34.2697C13.4714 34.264 13.4714 34.2583 13.4714 34.2525C13.4714 34.2468 13.4714 34.2411 13.4714 34.2354C13.4714 34.2297 13.4714 34.224 13.4714 34.2183C13.4714 34.2126 13.4714 34.2069 13.4714 34.2013C13.4714 34.1956 13.4714 34.1899 13.4714 34.1843C13.4714 34.1786 13.4714 34.1729 13.4714 34.1673C13.4714 34.1617 13.4714 34.156 13.4714 34.1504C13.4714 34.1448 13.4714 34.1391 13.4714 34.1335C13.4714 34.1279 13.4714 34.1223 13.4714 34.1167C13.4714 34.1111 13.4714 34.1055 13.4714 34.0999C13.4714 34.0944 13.4714 34.0888 13.4714 34.0832C13.4714 34.0776 13.4714 34.0721 13.4714 34.0665C13.4714 34.061 13.4714 34.0554 13.4714 34.0499C13.4714 34.0444 13.4714 34.0388 13.4714 34.0333C13.4714 34.0278 13.4714 34.0223 13.4714 34.0168C13.4714 34.0113 13.4714 34.0058 13.4714 34.0003C13.4714 33.9948 13.4714 33.9893 13.4714 33.9839C13.4714 33.9784 13.4714 33.9729 13.4714 33.9675C13.4714 33.962 13.4714 33.9566 13.4714 33.9511C13.4714 33.9457 13.4714 33.9403 13.4714 33.9348C13.4714 33.9294 13.4714 33.924 13.4714 33.9186C13.4714 33.9132 13.4714 33.9078 13.4714 33.9024C13.4714 33.897 13.4714 33.8916 13.4714 33.8863C13.4714 33.8809 13.4714 33.8755 13.4714 33.8702C13.4714 33.8648 13.4714 33.8595 13.4714 33.8541C13.4714 33.8488 13.4714 33.8435 13.4714 33.8381C13.4714 33.8328 13.4714 33.8275 13.4714 33.8222C13.4714 33.8169 13.4714 33.8116 13.4714 33.8063C13.4714 33.801 13.4714 33.7957 13.4714 33.7905C13.4714 33.7852 13.4714 33.7799 13.4714 33.7747C13.4714 33.7694 13.4714 33.7642 13.4714 33.7589C13.4714 33.7537 13.4714 33.7485 13.4714 33.7433C13.4714 33.738 13.4714 33.7328 13.4714 33.7276C13.4714 33.7224 13.4714 33.7172 13.4714 33.712C13.4714 33.7069 13.4714 33.7017 13.4714 33.6965C13.4714 33.6913 13.4714 33.6862 13.4714 33.681C13.4714 33.6759 13.4714 33.6707 13.4714 33.6656H16.4714C16.4714 33.6707 16.4714 33.6759 16.4714 33.681C16.4714 33.6862 16.4714 33.6913 16.4714 33.6965C16.4714 33.7017 16.4714 33.7069 16.4714 33.712C16.4714 33.7172 16.4714 33.7224 16.4714 33.7276C16.4714 33.7328 16.4714 33.738 16.4714 33.7433C16.4714 33.7485 16.4714 33.7537 16.4714 33.7589C16.4714 33.7642 16.4714 33.7694 16.4714 33.7747C16.4714 33.7799 16.4714 33.7852 16.4714 33.7905C16.4714 33.7957 16.4714 33.801 16.4714 33.8063C16.4714 33.8116 16.4714 33.8169 16.4714 33.8222C16.4714 33.8275 16.4714 33.8328 16.4714 33.8381C16.4714 33.8435 16.4714 33.8488 16.4714 33.8541C16.4714 33.8595 16.4714 33.8648 16.4714 33.8702C16.4714 33.8755 16.4714 33.8809 16.4714 33.8863C16.4714 33.8916 16.4714 33.897 16.4714 33.9024C16.4714 33.9078 16.4714 33.9132 16.4714 33.9186C16.4714 33.924 16.4714 33.9294 16.4714 33.9348C16.4714 33.9403 16.4714 33.9457 16.4714 33.9511C16.4714 33.9566 16.4714 33.962 16.4714 33.9675C16.4714 33.9729 16.4714 33.9784 16.4714 33.9839C16.4714 33.9893 16.4714 33.9948 16.4714 34.0003C16.4714 34.0058 16.4714 34.0113 16.4714 34.0168C16.4714 34.0223 16.4714 34.0278 16.4714 34.0333C16.4714 34.0388 16.4714 34.0444 16.4714 34.0499C16.4714 34.0554 16.4714 34.061 16.4714 34.0665C16.4714 34.0721 16.4714 34.0776 16.4714 34.0832C16.4714 34.0888 16.4714 34.0944 16.4714 34.0999C16.4714 34.1055 16.4714 34.1111 16.4714 34.1167C16.4714 34.1223 16.4714 34.1279 16.4714 34.1335C16.4714 34.1391 16.4714 34.1448 16.4714 34.1504C16.4714 34.156 16.4714 34.1617 16.4714 34.1673C16.4714 34.1729 16.4714 34.1786 16.4714 34.1843C16.4714 34.1899 16.4714 34.1956 16.4714 34.2013C16.4714 34.2069 16.4714 34.2126 16.4714 34.2183C16.4714 34.224 16.4714 34.2297 16.4714 34.2354C16.4714 34.2411 16.4714 34.2468 16.4714 34.2525C16.4714 34.2583 16.4714 34.264 16.4714 34.2697C16.4714 34.2755 16.4714 34.2812 16.4714 34.2869C16.4714 34.2927 16.4714 34.2985 16.4714 34.3042C16.4714 34.31 16.4714 34.3158 16.4714 34.3215C16.4714 34.3273 16.4714 34.3331 16.4714 34.3389C16.4714 34.3447 16.4714 34.3505 16.4714 34.3563C16.4714 34.3621 16.4714 34.3679 16.4714 34.3737C16.4714 34.3796 16.4714 34.3854 16.4714 34.3912C16.4714 34.3971 16.4714 34.4029 16.4714 34.4088C16.4714 34.4146 16.4714 34.4205 16.4714 34.4263C16.4714 34.4322 16.4714 34.4381 16.4714 34.444C16.4714 34.4498 16.4714 34.4557 16.4714 34.4616C16.4714 34.4675 16.4714 34.4734 16.4714 34.4793C16.4714 34.4852 16.4714 34.4911 16.4714 34.4971C16.4714 34.503 16.4714 34.5089 16.4714 34.5149C16.4714 34.5208 16.4714 34.5267 16.4714 34.5327C16.4714 34.5386 16.4714 34.5446 16.4714 34.5505C16.4714 34.5565 16.4714 34.5625 16.4714 34.5685C16.4714 34.5744 16.4714 34.5804 16.4714 34.5864C16.4714 34.5924 16.4714 34.5984 16.4714 34.6044C16.4714 34.6104 16.4714 34.6164 16.4714 34.6224C16.4714 34.6284 16.4714 34.6345 16.4714 34.6405C16.4714 34.6465 16.4714 34.6526 16.4714 34.6586C16.4714 34.6647 16.4714 34.6707 16.4714 34.6768C16.4714 34.6828 16.4714 34.6889 16.4714 34.695C16.4714 34.701 16.4714 34.7071 16.4714 34.7132C16.4714 34.7193 16.4714 34.7254 16.4714 34.7314C16.4714 34.7375 16.4714 34.7436 16.4714 34.7498C16.4714 34.7559 16.4714 34.762 16.4714 34.7681C16.4714 34.7742 16.4714 34.7803 16.4714 34.7865C16.4714 34.7926 16.4714 34.7988 16.4714 34.8049C16.4714 34.811 16.4714 34.8172 16.4714 34.8234C16.4714 34.8295 16.4714 34.8357 16.4714 34.8419C16.4714 34.848 16.4714 34.8542 16.4714 34.8604C16.4714 34.8666 16.4714 34.8728 16.4714 34.879C16.4714 34.8852 16.4714 34.8914 16.4714 34.8976C16.4714 34.9038 16.4714 34.91 16.4714 34.9162C16.4714 34.9224 16.4714 34.9287 16.4714 34.9349C16.4714 34.9411 16.4714 34.9474 16.4714 34.9536C16.4714 34.9599 16.4714 34.9661 16.4714 34.9724C16.4714 34.9786 16.4714 34.9849 16.4714 34.9912C16.4714 34.9974 16.4714 35.0037 16.4714 35.01C16.4714 35.0163 16.4714 35.0225 16.4714 35.0288C16.4714 35.0351 16.4714 35.0414 16.4714 35.0477C16.4714 35.054 16.4714 35.0603 16.4714 35.0667C16.4714 35.073 16.4714 35.0793 16.4714 35.0856C16.4714 35.0919 16.4714 35.0983 16.4714 35.1046C16.4714 35.111 16.4714 35.1173 16.4714 35.1236C16.4714 35.13 16.4714 35.1364 16.4714 35.1427C16.4714 35.1491 16.4714 35.1554 16.4714 35.1618C16.4714 35.1682 16.4714 35.1746 16.4714 35.1809C16.4714 35.1873 16.4714 35.1937 16.4714 35.2001C16.4714 35.2065 16.4714 35.2129 16.4714 35.2193C16.4714 35.2257 16.4714 35.2321 16.4714 35.2385C16.4714 35.245 16.4714 35.2514 16.4714 35.2578C16.4714 35.2642 16.4714 35.2707 16.4714 35.2771C16.4714 35.2835 16.4714 35.29 16.4714 35.2964C16.4714 35.3029 16.4714 35.3093 16.4714 35.3158C16.4714 35.3222 16.4714 35.3287 16.4714 35.3352C16.4714 35.3416 16.4714 35.3481 16.4714 35.3546C16.4714 35.3611 16.4714 35.3676 16.4714 35.3741C16.4714 35.3805 16.4714 35.387 16.4714 35.3935C16.4714 35.4 16.4714 35.4065 16.4714 35.4131C16.4714 35.4196 16.4714 35.4261 16.4714 35.4326C16.4714 35.4391 16.4714 35.4456 16.4714 35.4522C16.4714 35.4587 16.4714 35.4652 16.4714 35.4718C16.4714 35.4783 16.4714 35.4849 16.4714 35.4914C16.4714 35.498 16.4714 35.5045 16.4714 35.5111C16.4714 35.5176 16.4714 35.5242 16.4714 35.5308C16.4714 35.5373 16.4714 35.5439 16.4714 35.5505C16.4714 35.5571 16.4714 35.5637 16.4714 35.5703C16.4714 35.5768 16.4714 35.5834 16.4714 35.59C16.4714 35.5966 16.4714 35.6032 16.4714 35.6098C16.4714 35.6164 16.4714 35.6231 16.4714 35.6297C16.4714 35.6363 16.4714 35.6429 16.4714 35.6495C16.4714 35.6562 16.4714 35.6628 16.4714 35.6694C16.4714 35.6761 16.4714 35.6827 16.4714 35.6894C16.4714 35.696 16.4714 35.7026 16.4714 35.7093C16.4714 35.716 16.4714 35.7226 16.4714 35.7293C16.4714 35.7359 16.4714 35.7426 16.4714 35.7493C16.4714 35.7559 16.4714 35.7626 16.4714 35.7693C16.4714 35.776 16.4714 35.7827 16.4714 35.7894C16.4714 35.796 16.4714 35.8027 16.4714 35.8094C16.4714 35.8161 16.4714 35.8228 16.4714 35.8295C16.4714 35.8363 16.4714 35.843 16.4714 35.8497C16.4714 35.8564 16.4714 35.8631 16.4714 35.8698C16.4714 35.8766 16.4714 35.8833 16.4714 35.89C16.4714 35.8967 16.4714 35.9035 16.4714 35.9102C16.4714 35.917 16.4714 35.9237 16.4714 35.9305C16.4714 35.9372 16.4714 35.944 16.4714 35.9507C16.4714 35.9575 16.4714 35.9642 16.4714 35.971C16.4714 35.9778 16.4714 35.9845 16.4714 35.9913C16.4714 35.9981 16.4714 36.0048 16.4714 36.0116C16.4714 36.0184 16.4714 36.0252 16.4714 36.032C16.4714 36.0388 16.4714 36.0456 16.4714 36.0523C16.4714 36.0591 16.4714 36.0659 16.4714 36.0727C16.4714 36.0795 16.4714 36.0864 16.4714 36.0932C16.4714 36.1 16.4714 36.1068 16.4714 36.1136C16.4714 36.1204 16.4714 36.1272 16.4714 36.1341C16.4714 36.1409 16.4714 36.1477 16.4714 36.1546C16.4714 36.1614 16.4714 36.1682 16.4714 36.1751C16.4714 36.1819 16.4714 36.1888 16.4714 36.1956C16.4714 36.2025 16.4714 36.2093 16.4714 36.2162C16.4714 36.223 16.4714 36.2299 16.4714 36.2367C16.4714 36.2436 16.4714 36.2505 16.4714 36.2573C16.4714 36.2642 16.4714 36.2711 16.4714 36.2779C16.4714 36.2848 16.4714 36.2917 16.4714 36.2986C16.4714 36.3055 16.4714 36.3123 16.4714 36.3192C16.4714 36.3261 16.4714 36.333 16.4714 36.3399C16.4714 36.3468 16.4714 36.3537 16.4714 36.3606C16.4714 36.3675 16.4714 36.3744 16.4714 36.3813C16.4714 36.3882 16.4714 36.3952 16.4714 36.4021C16.4714 36.409 16.4714 36.4159 16.4714 36.4228C16.4714 36.4297 16.4714 36.4367 16.4714 36.4436C16.4714 36.4505 16.4714 36.4575 16.4714 36.4644C16.4714 36.4713 16.4714 36.4783 16.4714 36.4852C16.4714 36.4921 16.4714 36.4991 16.4714 36.506C16.4714 36.513 16.4714 36.5199 16.4714 36.5269C16.4714 36.5338 16.4714 36.5408 16.4714 36.5477C16.4714 36.5547 16.4714 36.5617 16.4714 36.5686C16.4714 36.5756 16.4714 36.5826 16.4714 36.5895C16.4714 36.5965 16.4714 36.6035 16.4714 36.6104C16.4714 36.6174 16.4714 36.6244 16.4714 36.6314C16.4714 36.6384 16.4714 36.6453 16.4714 36.6523C16.4714 36.6593 16.4714 36.6663 16.4714 36.6733C16.4714 36.6803 16.4714 36.6873 16.4714 36.6943C16.4714 36.7013 16.4714 36.7083 16.4714 36.7153C16.4714 36.7223 16.4714 36.7293 16.4714 36.7363C16.4714 36.7433 16.4714 36.7503 16.4714 36.7573C16.4714 36.7643 16.4714 36.7714 16.4714 36.7784C16.4714 36.7854 16.4714 36.7924 16.4714 36.7994C16.4714 36.8065 16.4714 36.8135 16.4714 36.8205C16.4714 36.8275 16.4714 36.8346 16.4714 36.8416C16.4714 36.8486 16.4714 36.8557 16.4714 36.8627C16.4714 36.8698 16.4714 36.8768 16.4714 36.8838C16.4714 36.8909 16.4714 36.8979 16.4714 36.905C16.4714 36.912 16.4714 36.9191 16.4714 36.9261C16.4714 36.9332 16.4714 36.9402 16.4714 36.9473C16.4714 36.9543 16.4714 36.9614 16.4714 36.9684C16.4714 36.9755 16.4714 36.9826 16.4714 36.9896C16.4714 36.9967 16.4714 37.0038 16.4714 37.0108C16.4714 37.0179 16.4714 37.025 16.4714 37.0321C16.4714 37.0391 16.4714 37.0462 16.4714 37.0533C16.4714 37.0604 16.4714 37.0674 16.4714 37.0745C16.4714 37.0816 16.4714 37.0887 16.4714 37.0958C16.4714 37.1028 16.4714 37.1099 16.4714 37.117C16.4714 37.1241 16.4714 37.1312 16.4714 37.1383C16.4714 37.1454 16.4714 37.1525 16.4714 37.1596C16.4714 37.1667 16.4714 37.1738 16.4714 37.1809C16.4714 37.188 16.4714 37.1951 16.4714 37.2022C16.4714 37.2093 16.4714 37.2164 16.4714 37.2235C16.4714 37.2306 16.4714 37.2377 16.4714 37.2448C16.4714 37.2519 16.4714 37.259 16.4714 37.2662C16.4714 37.2733 16.4714 37.2804 16.4714 37.2875C16.4714 37.2946 16.4714 37.3017 16.4714 37.3089C16.4714 37.316 16.4714 37.3231 16.4714 37.3302C16.4714 37.3373 16.4714 37.3445 16.4714 37.3516C16.4714 37.3587 16.4714 37.3658 16.4714 37.373C16.4714 37.3801 16.4714 37.3872 16.4714 37.3944C16.4714 37.4015 16.4714 37.4086 16.4714 37.4158C16.4714 37.4229 16.4714 37.43 16.4714 37.4372C16.4714 37.4443 16.4714 37.4514 16.4714 37.4586C16.4714 37.4657 16.4714 37.4729 16.4714 37.48C16.4714 37.4872 16.4714 37.4943 16.4714 37.5014C16.4714 37.5086 16.4714 37.5157 16.4714 37.5229C16.4714 37.53 16.4714 37.5372 16.4714 37.5443C16.4714 37.5515 16.4714 37.5586 16.4714 37.5658C16.4714 37.5729 16.4714 37.5801 16.4714 37.5872C16.4714 37.5944 16.4714 37.6015 16.4714 37.6087C16.4714 37.6159 16.4714 37.623 16.4714 37.6302C16.4714 37.6373 16.4714 37.6445 16.4714 37.6516C16.4714 37.6588 16.4714 37.666 16.4714 37.6731C16.4714 37.6803 16.4714 37.6875 16.4714 37.6946C16.4714 37.7018 16.4714 37.7089 16.4714 37.7161C16.4714 37.7233 16.4714 37.7304 16.4714 37.7376C16.4714 37.7448 16.4714 37.7519 16.4714 37.7591C16.4714 37.7663 16.4714 37.7735 16.4714 37.7806C16.4714 37.7878 16.4714 37.795 16.4714 37.8021C16.4714 37.8093 16.4714 37.8165 16.4714 37.8236C16.4714 37.8308 16.4714 37.838 16.4714 37.8452C16.4714 37.8523 16.4714 37.8595 16.4714 37.8667C16.4714 37.8739 16.4714 37.881 16.4714 37.8882C16.4714 37.8954 16.4714 37.9026 16.4714 37.9098C16.4714 37.9169 16.4714 37.9241 16.4714 37.9313C16.4714 37.9385 16.4714 37.9456 16.4714 37.9528C16.4714 37.96 16.4714 37.9672 16.4714 37.9744C16.4714 37.9815 16.4714 37.9887 16.4714 37.9959C16.4714 38.0031 16.4714 38.0103 16.4714 38.0174C16.4714 38.0246 16.4714 38.0318 16.4714 38.039C16.4714 38.0462 16.4714 38.0534 16.4714 38.0605C16.4714 38.0677 16.4714 38.0749 16.4714 38.0821C16.4714 38.0893 16.4714 38.0964 16.4714 38.1036C16.4714 38.1108 16.4714 38.118 16.4714 38.1252C16.4714 38.1324 16.4714 38.1395 16.4714 38.1467C16.4714 38.1539 16.4714 38.1611 16.4714 38.1683C16.4714 38.1755 16.4714 38.1826 16.4714 38.1898C16.4714 38.197 16.4714 38.2042 16.4714 38.2114C16.4714 38.2186 16.4714 38.2257 16.4714 38.2329C16.4714 38.2401 16.4714 38.2473 16.4714 38.2545C16.4714 38.2617 16.4714 38.2688 16.4714 38.276C16.4714 38.2832 16.4714 38.2904 16.4714 38.2976C16.4714 38.3048 16.4714 38.3119 16.4714 38.3191C16.4714 38.3263 16.4714 38.3335 16.4714 38.3407C16.4714 38.3479 16.4714 38.355 16.4714 38.3622C16.4714 38.3694 16.4714 38.3766 16.4714 38.3838C16.4714 38.3909 16.4714 38.3981 16.4714 38.4053C16.4714 38.4125 16.4714 38.4197 16.4714 38.4268C16.4714 38.434 16.4714 38.4412 16.4714 38.4484C16.4714 38.4555 16.4714 38.4627 16.4714 38.4699C16.4714 38.4771 16.4714 38.4843 16.4714 38.4914C16.4714 38.4986 16.4714 38.5058 16.4714 38.513C16.4714 38.5201 16.4714 38.5273 16.4714 38.5345C16.4714 38.5417 16.4714 38.5488 16.4714 38.556C16.4714 38.5632 16.4714 38.5703 16.4714 38.5775C16.4714 38.5847 16.4714 38.5919 16.4714 38.599C16.4714 38.6062 16.4714 38.6134 16.4714 38.6205C16.4714 38.6277 16.4714 38.6349 16.4714 38.642C16.4714 38.6492 16.4714 38.6564 16.4714 38.6635C16.4714 38.6707 16.4714 38.6779 16.4714 38.685C16.4714 38.6922 16.4714 38.6993 16.4714 38.7065C16.4714 38.7137 16.4714 38.7208 16.4714 38.728C16.4714 38.7352 16.4714 38.7423 16.4714 38.7495C16.4714 38.7566 16.4714 38.7638 16.4714 38.7709C16.4714 38.7781 16.4714 38.7852 16.4714 38.7924C16.4714 38.7996 16.4714 38.8067 16.4714 38.8139C16.4714 38.821 16.4714 38.8282 16.4714 38.8353C16.4714 38.8425 16.4714 38.8496 16.4714 38.8567C16.4714 38.8639 16.4714 38.871 16.4714 38.8782C16.4714 38.8853 16.4714 38.8925 16.4714 38.8996C16.4714 38.9068 16.4714 38.9139 16.4714 38.921C16.4714 38.9282 16.4714 38.9353 16.4714 38.9424C16.4714 38.9496 16.4714 38.9567 16.4714 38.9639C16.4714 38.971 16.4714 38.9781 16.4714 38.9853C16.4714 38.9924 16.4714 38.9995 16.4714 39.0066C16.4714 39.0138 16.4714 39.0209 16.4714 39.028C16.4714 39.0351 16.4714 39.0423 16.4714 39.0494C16.4714 39.0565 16.4714 39.0636 16.4714 39.0708C16.4714 39.0779 16.4714 39.085 16.4714 39.0921C16.4714 39.0992 16.4714 39.1063 16.4714 39.1134C16.4714 39.1206 16.4714 39.1277 16.4714 39.1348C16.4714 39.1419 16.4714 39.149 16.4714 39.1561C16.4714 39.1632 16.4714 39.1703 16.4714 39.1774C16.4714 39.1845 16.4714 39.1916 16.4714 39.1987C16.4714 39.2058 16.4714 39.2129 16.4714 39.22C16.4714 39.2271 16.4714 39.2342 16.4714 39.2413C16.4714 39.2484 16.4714 39.2555 16.4714 39.2626C16.4714 39.2696 16.4714 39.2767 16.4714 39.2838C16.4714 39.2909 16.4714 39.298 16.4714 39.3051C16.4714 39.3121 16.4714 39.3192 16.4714 39.3263C16.4714 39.3334 16.4714 39.3404 16.4714 39.3475C16.4714 39.3546 16.4714 39.3617 16.4714 39.3687C16.4714 39.3758 16.4714 39.3829 16.4714 39.3899C16.4714 39.397 16.4714 39.404 16.4714 39.4111C16.4714 39.4182 16.4714 39.4252 16.4714 39.4323C16.4714 39.4393 16.4714 39.4464 16.4714 39.4534C16.4714 39.4605 16.4714 39.4675 16.4714 39.4746C16.4714 39.4816 16.4714 39.4887 16.4714 39.4957C16.4714 39.5027 16.4714 39.5098 16.4714 39.5168C16.4714 39.5239 16.4714 39.5309 16.4714 39.5379C16.4714 39.545 16.4714 39.552 16.4714 39.559C16.4714 39.566 16.4714 39.5731 16.4714 39.5801C16.4714 39.5871 16.4714 39.5941 16.4714 39.6011C16.4714 39.6082 16.4714 39.6152 16.4714 39.6222C16.4714 39.6292 16.4714 39.6362 16.4714 39.6432C16.4714 39.6502 16.4714 39.6572 16.4714 39.6642C16.4714 39.6712 16.4714 39.6782 16.4714 39.6852C16.4714 39.6922 16.4714 39.6992 16.4714 39.7062C16.4714 39.7132 16.4714 39.7202 16.4714 39.7272C16.4714 39.7341 16.4714 39.7411 16.4714 39.7481C16.4714 39.7551 16.4714 39.7621 16.4714 39.769C16.4714 39.776 16.4714 39.783 16.4714 39.7899C16.4714 39.7969 16.4714 39.8039 16.4714 39.8108C16.4714 39.8178 16.4714 39.8248 16.4714 39.8317C16.4714 39.8387 16.4714 39.8456 16.4714 39.8526C16.4714 39.8595 16.4714 39.8665 16.4714 39.8734C16.4714 39.8804 16.4714 39.8873 16.4714 39.8942C16.4714 39.9012 16.4714 39.9081 16.4714 39.9151C16.4714 39.922 16.4714 39.9289 16.4714 39.9358C16.4714 39.9428 16.4714 39.9497 16.4714 39.9566C16.4714 39.9635 16.4714 39.9704 16.4714 39.9774C16.4714 39.9843 16.4714 39.9912 16.4714 39.9981C16.4714 40.005 16.4714 40.0119 16.4714 40.0188C16.4714 40.0257 16.4714 40.0326 16.4714 40.0395C16.4714 40.0464 16.4714 40.0533 16.4714 40.0602C16.4714 40.0671 16.4714 40.0739 16.4714 40.0808C16.4714 40.0877 16.4714 40.0946 16.4714 40.1014C16.4714 40.1083 16.4714 40.1152 16.4714 40.1221C16.4714 40.1289 16.4714 40.1358 16.4714 40.1426C16.4714 40.1495 16.4714 40.1564 16.4714 40.1632C16.4714 40.1701 16.4714 40.1769 16.4714 40.1838C16.4714 40.1906 16.4714 40.1975 16.4714 40.2043C16.4714 40.2111 16.4714 40.218 16.4714 40.2248C16.4714 40.2316 16.4714 40.2385 16.4714 40.2453C16.4714 40.2521 16.4714 40.2589 16.4714 40.2657C16.4714 40.2726 16.4714 40.2794 16.4714 40.2862C16.4714 40.293 16.4714 40.2998 16.4714 40.3066C16.4714 40.3134 16.4714 40.3202 16.4714 40.327C16.4714 40.3338 16.4714 40.3406 16.4714 40.3473C16.4714 40.3541 16.4714 40.3609 16.4714 40.3677C16.4714 40.3745 16.4714 40.3812 16.4714 40.388C16.4714 40.3948 16.4714 40.4015 16.4714 40.4083C16.4714 40.4151 16.4714 40.4218 16.4714 40.4286C16.4714 40.4353 16.4714 40.4421 16.4714 40.4488C16.4714 40.4556 16.4714 40.4623 16.4714 40.4691C16.4714 40.4758 16.4714 40.4825 16.4714 40.4893C16.4714 40.496 16.4714 40.5027 16.4714 40.5094C16.4714 40.5162 16.4714 40.5229 16.4714 40.5296C16.4714 40.5363 16.4714 40.543 16.4714 40.5497C16.4714 40.5564 16.4714 40.5631 16.4714 40.5698C16.4714 40.5765 16.4714 40.5832 16.4714 40.5899C16.4714 40.5966 16.4714 40.6032 16.4714 40.6099C16.4714 40.6166 16.4714 40.6233 16.4714 40.6299C16.4714 40.6366 16.4714 40.6433 16.4714 40.6499C16.4714 40.6566 16.4714 40.6633 16.4714 40.6699C16.4714 40.6766 16.4714 40.6832 16.4714 40.6898C16.4714 40.6965 16.4714 40.7031 16.4714 40.7098C16.4714 40.7164 16.4714 40.723 16.4714 40.7296C16.4714 40.7363 16.4714 40.7429 16.4714 40.7495C16.4714 40.7561 16.4714 40.7627 16.4714 40.7693C16.4714 40.7759 16.4714 40.7825 16.4714 40.7891C16.4714 40.7957 16.4714 40.8023 16.4714 40.8089C16.4714 40.8155 16.4714 40.8221 16.4714 40.8286C16.4714 40.8352 16.4714 40.8418 16.4714 40.8484C16.4714 40.8549 16.4714 40.8615 16.4714 40.868C16.4714 40.8746 16.4714 40.8812 16.4714 40.8877C16.4714 40.8942 16.4714 40.9008 16.4714 40.9073C16.4714 40.9139 16.4714 40.9204 16.4714 40.9269C16.4714 40.9335 16.4714 40.94 16.4714 40.9465C16.4714 40.953 16.4714 40.9595 16.4714 40.966C16.4714 40.9725 16.4714 40.979 16.4714 40.9855C16.4714 40.992 16.4714 40.9985 16.4714 41.005C16.4714 41.0115 16.4714 41.018 16.4714 41.0245C16.4714 41.0309 16.4714 41.0374 16.4714 41.0439C16.4714 41.0503 16.4714 41.0568 16.4714 41.0633C16.4714 41.0697 16.4714 41.0762 16.4714 41.0826C16.4714 41.089 16.4714 41.0955 16.4714 41.1019C16.4714 41.1084 16.4714 41.1148 16.4714 41.1212C16.4714 41.1276 16.4714 41.134 16.4714 41.1405C16.4714 41.1469 16.4714 41.1533 16.4714 41.1597C16.4714 41.1661 16.4714 41.1725 16.4714 41.1789C16.4714 41.1853 16.4714 41.1916 16.4714 41.198C16.4714 41.2044 16.4714 41.2108 16.4714 41.2172C16.4714 41.2235 16.4714 41.2299 16.4714 41.2362C16.4714 41.2426 16.4714 41.249 16.4714 41.2553C16.4714 41.2616 16.4714 41.268 16.4714 41.2743C16.4714 41.2807 16.4714 41.287 16.4714 41.2933C16.4714 41.2996 16.4714 41.3059 16.4714 41.3123C16.4714 41.3186 16.4714 41.3249 16.4714 41.3312C16.4714 41.3375 16.4714 41.3438 16.4714 41.3501C16.4714 41.3563 16.4714 41.3626 16.4714 41.3689C16.4714 41.3752 16.4714 41.3815 16.4714 41.3877C16.4714 41.394 16.4714 41.4002 16.4714 41.4065C16.4714 41.4128 16.4714 41.419 16.4714 41.4252C16.4714 41.4315 16.4714 41.4377 16.4714 41.4439C16.4714 41.4502 16.4714 41.4564 16.4714 41.4626C16.4714 41.4688 16.4714 41.475 16.4714 41.4813C16.4714 41.4875 16.4714 41.4937 16.4714 41.4999C16.4714 41.506 16.4714 41.5122 16.4714 41.5184C16.4714 41.5246 16.4714 41.5308 16.4714 41.5369C16.4714 41.5431 16.4714 41.5493 16.4714 41.5554C16.4714 41.5616 16.4714 41.5677 16.4714 41.5739C16.4714 41.58 16.4714 41.5861 16.4714 41.5923C16.4714 41.5984 16.4714 41.6045 16.4714 41.6107C16.4714 41.6168 16.4714 41.6229 16.4714 41.629C16.4714 41.6351 16.4714 41.6412 16.4714 41.6473C16.4714 41.6534 16.4714 41.6595 16.4714 41.6655C16.4714 41.6716 16.4714 41.6777 16.4714 41.6838C16.4714 41.6898 16.4714 41.6959 16.4714 41.7019C16.4714 41.708 16.4714 41.714 16.4714 41.7201C16.4714 41.7261 16.4714 41.7321 16.4714 41.7382C16.4714 41.7442 16.4714 41.7502 16.4714 41.7562C16.4714 41.7622 16.4714 41.7683 16.4714 41.7743C16.4714 41.7803 16.4714 41.7862 16.4714 41.7922C16.4714 41.7982 16.4714 41.8042 16.4714 41.8102C16.4714 41.8161 16.4714 41.8221 16.4714 41.8281C16.4714 41.834 16.4714 41.84 16.4714 41.8459C16.4714 41.8519 16.4714 41.8578 16.4714 41.8637C16.4714 41.8697 16.4714 41.8756 16.4714 41.8815C16.4714 41.8874 16.4714 41.8933 16.4714 41.8992C16.4714 41.9051 16.4714 41.911 16.4714 41.9169C16.4714 41.9228 16.4714 41.9287 16.4714 41.9346C16.4714 41.9405 16.4714 41.9463 16.4714 41.9522C16.4714 41.9581 16.4714 41.9639 16.4714 41.9698C16.4714 41.9756 16.4714 41.9814 16.4714 41.9873C16.4714 41.9931 16.4714 41.9989 16.4714 42.0048C16.4714 42.0106 16.4714 42.0164 16.4714 42.0222C16.4714 42.028 16.4714 42.0338 16.4714 42.0396C16.4714 42.0454 16.4714 42.0511 16.4714 42.0569C16.4714 42.0627 16.4714 42.0685 16.4714 42.0742C16.4714 42.08 16.4714 42.0857 16.4714 42.0915C16.4714 42.0972 16.4714 42.103 16.4714 42.1087C16.4714 42.1144 16.4714 42.1202 16.4714 42.1259C16.4714 42.1316 16.4714 42.1373 16.4714 42.143C16.4714 42.1487 16.4714 42.1544 16.4714 42.1601C16.4714 42.1658 16.4714 42.1714 16.4714 42.1771C16.4714 42.1828 16.4714 42.1884 16.4714 42.1941C16.4714 42.1998 16.4714 42.2054 16.4714 42.211C16.4714 42.2167 16.4714 42.2223 16.4714 42.2279C16.4714 42.2336 16.4714 42.2392 16.4714 42.2448C16.4714 42.2504 16.4714 42.256 16.4714 42.2616C16.4714 42.2672 16.4714 42.2728 16.4714 42.2783C16.4714 42.2839 16.4714 42.2895 16.4714 42.2951C16.4714 42.3006 16.4714 42.3062 16.4714 42.3117C16.4714 42.3173 16.4714 42.3228 16.4714 42.3283C16.4714 42.3339 16.4714 42.3394 16.4714 42.3449C16.4714 42.3504 16.4714 42.3559 16.4714 42.3614C16.4714 42.3669 16.4714 42.3724 16.4714 42.3779C16.4714 42.3834 16.4714 42.3889 16.4714 42.3943C16.4714 42.3998 16.4714 42.4052 16.4714 42.4107C16.4714 42.4161 16.4714 42.4216 16.4714 42.427C16.4714 42.4325 16.4714 42.4379 16.4714 42.4433C16.4714 42.4487 16.4714 42.4541 16.4714 42.4595C16.4714 42.4649 16.4714 42.4703 16.4714 42.4757C16.4714 42.4811 16.4714 42.4865 16.4714 42.4918C16.4714 42.4972 16.4714 42.5026 16.4714 42.5079C16.4714 42.5133 16.4714 42.5186 16.4714 42.5239C16.4714 42.5293 16.4714 42.5346 16.4714 42.5399C16.4714 42.5452 16.4714 42.5506 16.4714 42.5559C16.4714 42.5612 16.4714 42.5664 16.4714 42.5717C16.4714 42.577 16.4714 42.5823 16.4714 42.5876C16.4714 42.5928 16.4714 42.5981 16.4714 42.6033C16.4714 42.6086 16.4714 42.6138 16.4714 42.6191C16.4714 42.6243 16.4714 42.6295 16.4714 42.6347C16.4714 42.6399 16.4714 42.6451 16.4714 42.6503C16.4714 42.6555 16.4714 42.6607 16.4714 42.6659C16.4714 42.6711 16.4714 42.6763 16.4714 42.6814C16.4714 42.6866 16.4714 42.6917 16.4714 42.6969C16.4714 42.702 16.4714 42.7072 16.4714 42.7123C16.4714 42.7174 16.4714 42.7225 16.4714 42.7277C16.4714 42.7328 16.4714 42.7379 16.4714 42.743C16.4714 42.748 16.4714 42.7531 16.4714 42.7582C16.4714 42.7633 16.4714 42.7683 16.4714 42.7734C16.4714 42.7785 16.4714 42.7835 16.4714 42.7885C16.4714 42.7936 16.4714 42.7986 16.4714 42.8036C16.4714 42.8086 16.4714 42.8137 16.4714 42.8187C16.4714 42.8237 16.4714 42.8287 16.4714 42.8336C16.4714 42.8386 16.4714 42.8436 16.4714 42.8486C16.4714 42.8535 16.4714 42.8585 16.4714 42.8634C16.4714 42.8684 16.4714 42.8733 16.4714 42.8782C16.4714 42.8832 16.4714 42.8881 16.4714 42.893C16.4714 42.8979 16.4714 42.9028 16.4714 42.9077C16.4714 42.9126 16.4714 42.9175 16.4714 42.9223C16.4714 42.9272 16.4714 42.9321 16.4714 42.9369C16.4714 42.9418 16.4714 42.9466 16.4714 42.9515C16.4714 42.9563 16.4714 42.9611 16.4714 42.9659C16.4714 42.9707 16.4714 42.9756 16.4714 42.9803C16.4714 42.9851 16.4714 42.9899 16.4714 42.9947C16.4714 42.9995 16.4714 43.0043 16.4714 43.009C16.4714 43.0138 16.4714 43.0185 16.4714 43.0233C16.4714 43.028 16.4714 43.0327 16.4714 43.0374C16.4714 43.0422 16.4714 43.0469 16.4714 43.0516C16.4714 43.0563 16.4714 43.061 16.4714 43.0656C16.4714 43.0703 16.4714 43.075 16.4714 43.0797C16.4714 43.0843 16.4714 43.089 16.4714 43.0936C16.4714 43.0982 16.4714 43.1029 16.4714 43.1075C16.4714 43.1121 16.4714 43.1167 16.4714 43.1213C16.4714 43.1259 16.4714 43.1305 16.4714 43.1351C16.4714 43.1397 16.4714 43.1443 16.4714 43.1488C16.4714 43.1534 16.4714 43.1579 16.4714 43.1625C16.4714 43.167 16.4714 43.1716 16.4714 43.1761C16.4714 43.1806 16.4714 43.1851 16.4714 43.1896C16.4714 43.1941 16.4714 43.1986 16.4714 43.2031C16.4714 43.2076 16.4714 43.212 16.4714 43.2165C16.4714 43.221 16.4714 43.2254 16.4714 43.2298C16.4714 43.2343 16.4714 43.2387 16.4714 43.2431C16.4714 43.2476 16.4714 43.252 16.4714 43.2564C16.4714 43.2608 16.4714 43.2652 16.4714 43.2695C16.4714 43.2739 16.4714 43.2783 16.4714 43.2826C16.4714 43.287 16.4714 43.2913 16.4714 43.2957C16.4714 43.3 16.4714 43.3043 16.4714 43.3087C16.4714 43.313 16.4714 43.3173 16.4714 43.3216C16.4714 43.3259 16.4714 43.3302 16.4714 43.3344C16.4714 43.3387 16.4714 43.343 16.4714 43.3472C16.4714 43.3515 16.4714 43.3557 16.4714 43.36C16.4714 43.3642 16.4714 43.3684 16.4714 43.3726C16.4714 43.3768 16.4714 43.381 16.4714 43.3852H13.4714ZM13.4714 33.6656C13.4714 29.523 16.5833 26.5537 20.6673 26.5537V29.5537C18.1808 29.5537 16.4714 31.2386 16.4714 33.6656H13.4714ZM20.6673 26.5537C20.6701 26.5537 20.6729 26.5537 20.6758 26.5537C20.6786 26.5537 20.6814 26.5537 20.6843 26.5537C20.6872 26.5537 20.69 26.5537 20.6929 26.5537C20.6958 26.5537 20.6987 26.5537 20.7016 26.5537C20.7045 26.5537 20.7075 26.5537 20.7104 26.5537C20.7134 26.5537 20.7163 26.5537 20.7193 26.5537C20.7223 26.5537 20.7252 26.5537 20.7282 26.5537C20.7312 26.5537 20.7343 26.5537 20.7373 26.5537C20.7403 26.5537 20.7433 26.5537 20.7464 26.5537C20.7495 26.5537 20.7525 26.5537 20.7556 26.5537C20.7587 26.5537 20.7618 26.5537 20.7649 26.5537C20.768 26.5537 20.7711 26.5537 20.7743 26.5537C20.7774 26.5537 20.7806 26.5537 20.7837 26.5537C20.7869 26.5537 20.7901 26.5537 20.7933 26.5537C20.7965 26.5537 20.7997 26.5537 20.8029 26.5537C20.8061 26.5537 20.8094 26.5537 20.8126 26.5537C20.8159 26.5537 20.8191 26.5537 20.8224 26.5537C20.8257 26.5537 20.829 26.5537 20.8323 26.5537C20.8356 26.5537 20.8389 26.5537 20.8422 26.5537C20.8456 26.5537 20.8489 26.5537 20.8523 26.5537C20.8556 26.5537 20.859 26.5537 20.8624 26.5537C20.8658 26.5537 20.8692 26.5537 20.8726 26.5537C20.876 26.5537 20.8794 26.5537 20.8829 26.5537C20.8863 26.5537 20.8898 26.5537 20.8932 26.5537C20.8967 26.5537 20.9002 26.5537 20.9037 26.5537C20.9072 26.5537 20.9107 26.5537 20.9142 26.5537C20.9178 26.5537 20.9213 26.5537 20.9248 26.5537C20.9284 26.5537 20.932 26.5537 20.9355 26.5537C20.9391 26.5537 20.9427 26.5537 20.9463 26.5537C20.9499 26.5537 20.9535 26.5537 20.9572 26.5537C20.9608 26.5537 20.9644 26.5537 20.9681 26.5537C20.9718 26.5537 20.9754 26.5537 20.9791 26.5537C20.9828 26.5537 20.9865 26.5537 20.9902 26.5537C20.9939 26.5537 20.9977 26.5537 21.0014 26.5537C21.0051 26.5537 21.0089 26.5537 21.0127 26.5537C21.0164 26.5537 21.0202 26.5537 21.024 26.5537C21.0278 26.5537 21.0316 26.5537 21.0354 26.5537C21.0392 26.5537 21.0431 26.5537 21.0469 26.5537C21.0508 26.5537 21.0546 26.5537 21.0585 26.5537C21.0624 26.5537 21.0663 26.5537 21.0702 26.5537C21.0741 26.5537 21.078 26.5537 21.0819 26.5537C21.0858 26.5537 21.0898 26.5537 21.0937 26.5537C21.0977 26.5537 21.1016 26.5537 21.1056 26.5537C21.1096 26.5537 21.1136 26.5537 21.1176 26.5537C21.1216 26.5537 21.1256 26.5537 21.1297 26.5537C21.1337 26.5537 21.1377 26.5537 21.1418 26.5537C21.1458 26.5537 21.1499 26.5537 21.154 26.5537C21.1581 26.5537 21.1622 26.5537 21.1663 26.5537C21.1704 26.5537 21.1745 26.5537 21.1787 26.5537C21.1828 26.5537 21.1869 26.5537 21.1911 26.5537C21.1953 26.5537 21.1994 26.5537 21.2036 26.5537C21.2078 26.5537 21.212 26.5537 21.2162 26.5537C21.2205 26.5537 21.2247 26.5537 21.2289 26.5537C21.2332 26.5537 21.2374 26.5537 21.2417 26.5537C21.2459 26.5537 21.2502 26.5537 21.2545 26.5537C21.2588 26.5537 21.2631 26.5537 21.2674 26.5537C21.2718 26.5537 21.2761 26.5537 21.2804 26.5537C21.2848 26.5537 21.2891 26.5537 21.2935 26.5537C21.2979 26.5537 21.3022 26.5537 21.3066 26.5537C21.311 26.5537 21.3154 26.5537 21.3199 26.5537C21.3243 26.5537 21.3287 26.5537 21.3332 26.5537C21.3376 26.5537 21.3421 26.5537 21.3465 26.5537C21.351 26.5537 21.3555 26.5537 21.36 26.5537C21.3645 26.5537 21.369 26.5537 21.3735 26.5537C21.378 26.5537 21.3826 26.5537 21.3871 26.5537C21.3917 26.5537 21.3962 26.5537 21.4008 26.5537C21.4054 26.5537 21.41 26.5537 21.4146 26.5537C21.4192 26.5537 21.4238 26.5537 21.4284 26.5537C21.433 26.5537 21.4377 26.5537 21.4423 26.5537C21.447 26.5537 21.4516 26.5537 21.4563 26.5537C21.461 26.5537 21.4656 26.5537 21.4703 26.5537C21.475 26.5537 21.4798 26.5537 21.4845 26.5537C21.4892 26.5537 21.4939 26.5537 21.4987 26.5537C21.5034 26.5537 21.5082 26.5537 21.513 26.5537C21.5177 26.5537 21.5225 26.5537 21.5273 26.5537C21.5321 26.5537 21.5369 26.5537 21.5418 26.5537C21.5466 26.5537 21.5514 26.5537 21.5563 26.5537C21.5611 26.5537 21.566 26.5537 21.5709 26.5537C21.5757 26.5537 21.5806 26.5537 21.5855 26.5537C21.5904 26.5537 21.5953 26.5537 21.6002 26.5537C21.6052 26.5537 21.6101 26.5537 21.615 26.5537C21.62 26.5537 21.6249 26.5537 21.6299 26.5537C21.6349 26.5537 21.6399 26.5537 21.6449 26.5537C21.6499 26.5537 21.6549 26.5537 21.6599 26.5537C21.6649 26.5537 21.6699 26.5537 21.675 26.5537C21.68 26.5537 21.6851 26.5537 21.6902 26.5537C21.6952 26.5537 21.7003 26.5537 21.7054 26.5537C21.7105 26.5537 21.7156 26.5537 21.7207 26.5537C21.7258 26.5537 21.731 26.5537 21.7361 26.5537C21.7412 26.5537 21.7464 26.5537 21.7516 26.5537C21.7567 26.5537 21.7619 26.5537 21.7671 26.5537C21.7723 26.5537 21.7775 26.5537 21.7827 26.5537C21.7879 26.5537 21.7931 26.5537 21.7984 26.5537C21.8036 26.5537 21.8089 26.5537 21.8141 26.5537C21.8194 26.5537 21.8247 26.5537 21.83 26.5537C21.8352 26.5537 21.8405 26.5537 21.8458 26.5537C21.8512 26.5537 21.8565 26.5537 21.8618 26.5537C21.8671 26.5537 21.8725 26.5537 21.8778 26.5537C21.8832 26.5537 21.8886 26.5537 21.894 26.5537C21.8993 26.5537 21.9047 26.5537 21.9101 26.5537C21.9155 26.5537 21.921 26.5537 21.9264 26.5537C21.9318 26.5537 21.9373 26.5537 21.9427 26.5537C21.9482 26.5537 21.9536 26.5537 21.9591 26.5537C21.9646 26.5537 21.9701 26.5537 21.9756 26.5537C21.9811 26.5537 21.9866 26.5537 21.9921 26.5537C21.9976 26.5537 22.0031 26.5537 22.0087 26.5537C22.0142 26.5537 22.0198 26.5537 22.0254 26.5537C22.0309 26.5537 22.0365 26.5537 22.0421 26.5537C22.0477 26.5537 22.0533 26.5537 22.0589 26.5537C22.0645 26.5537 22.0702 26.5537 22.0758 26.5537C22.0814 26.5537 22.0871 26.5537 22.0928 26.5537C22.0984 26.5537 22.1041 26.5537 22.1098 26.5537C22.1155 26.5537 22.1212 26.5537 22.1269 26.5537C22.1326 26.5537 22.1383 26.5537 22.144 26.5537C22.1498 26.5537 22.1555 26.5537 22.1613 26.5537C22.167 26.5537 22.1728 26.5537 22.1786 26.5537C22.1843 26.5537 22.1901 26.5537 22.1959 26.5537C22.2017 26.5537 22.2075 26.5537 22.2134 26.5537C22.2192 26.5537 22.225 26.5537 22.2309 26.5537C22.2367 26.5537 22.2426 26.5537 22.2484 26.5537C22.2543 26.5537 22.2602 26.5537 22.2661 26.5537C22.272 26.5537 22.2779 26.5537 22.2838 26.5537C22.2897 26.5537 22.2956 26.5537 22.3015 26.5537C22.3075 26.5537 22.3134 26.5537 22.3194 26.5537C22.3254 26.5537 22.3313 26.5537 22.3373 26.5537C22.3433 26.5537 22.3493 26.5537 22.3553 26.5537C22.3613 26.5537 22.3673 26.5537 22.3733 26.5537C22.3794 26.5537 22.3854 26.5537 22.3914 26.5537C22.3975 26.5537 22.4035 26.5537 22.4096 26.5537C22.4157 26.5537 22.4218 26.5537 22.4279 26.5537C22.434 26.5537 22.4401 26.5537 22.4462 26.5537C22.4523 26.5537 22.4584 26.5537 22.4646 26.5537C22.4707 26.5537 22.4768 26.5537 22.483 26.5537C22.4892 26.5537 22.4953 26.5537 22.5015 26.5537C22.5077 26.5537 22.5139 26.5537 22.5201 26.5537C22.5263 26.5537 22.5325 26.5537 22.5387 26.5537C22.545 26.5537 22.5512 26.5537 22.5574 26.5537C22.5637 26.5537 22.57 26.5537 22.5762 26.5537C22.5825 26.5537 22.5888 26.5537 22.5951 26.5537C22.6014 26.5537 22.6077 26.5537 22.614 26.5537C22.6203 26.5537 22.6266 26.5537 22.6329 26.5537C22.6393 26.5537 22.6456 26.5537 22.652 26.5537C22.6583 26.5537 22.6647 26.5537 22.6711 26.5537C22.6775 26.5537 22.6839 26.5537 22.6903 26.5537C22.6967 26.5537 22.7031 26.5537 22.7095 26.5537C22.7159 26.5537 22.7223 26.5537 22.7288 26.5537C22.7352 26.5537 22.7417 26.5537 22.7481 26.5537C22.7546 26.5537 22.7611 26.5537 22.7676 26.5537C22.7741 26.5537 22.7805 26.5537 22.7871 26.5537C22.7936 26.5537 22.8001 26.5537 22.8066 26.5537C22.8131 26.5537 22.8197 26.5537 22.8262 26.5537C22.8328 26.5537 22.8393 26.5537 22.8459 26.5537C22.8525 26.5537 22.8591 26.5537 22.8657 26.5537C22.8722 26.5537 22.8788 26.5537 22.8855 26.5537C22.8921 26.5537 22.8987 26.5537 22.9053 26.5537C22.912 26.5537 22.9186 26.5537 22.9253 26.5537C22.9319 26.5537 22.9386 26.5537 22.9453 26.5537C22.9519 26.5537 22.9586 26.5537 22.9653 26.5537C22.972 26.5537 22.9787 26.5537 22.9854 26.5537C22.9922 26.5537 22.9989 26.5537 23.0056 26.5537C23.0124 26.5537 23.0191 26.5537 23.0259 26.5537C23.0326 26.5537 23.0394 26.5537 23.0462 26.5537C23.053 26.5537 23.0598 26.5537 23.0666 26.5537C23.0734 26.5537 23.0802 26.5537 23.087 26.5537C23.0938 26.5537 23.1006 26.5537 23.1075 26.5537C23.1143 26.5537 23.1212 26.5537 23.128 26.5537C23.1349 26.5537 23.1418 26.5537 23.1487 26.5537C23.1556 26.5537 23.1624 26.5537 23.1693 26.5537C23.1763 26.5537 23.1832 26.5537 23.1901 26.5537C23.197 26.5537 23.204 26.5537 23.2109 26.5537C23.2178 26.5537 23.2248 26.5537 23.2318 26.5537C23.2387 26.5537 23.2457 26.5537 23.2527 26.5537C23.2597 26.5537 23.2667 26.5537 23.2737 26.5537C23.2807 26.5537 23.2877 26.5537 23.2947 26.5537C23.3017 26.5537 23.3088 26.5537 23.3158 26.5537C23.3229 26.5537 23.3299 26.5537 23.337 26.5537C23.3441 26.5537 23.3511 26.5537 23.3582 26.5537C23.3653 26.5537 23.3724 26.5537 23.3795 26.5537C23.3866 26.5537 23.3937 26.5537 23.4009 26.5537C23.408 26.5537 23.4151 26.5537 23.4223 26.5537C23.4294 26.5537 23.4366 26.5537 23.4437 26.5537C23.4509 26.5537 23.4581 26.5537 23.4653 26.5537C23.4724 26.5537 23.4796 26.5537 23.4868 26.5537C23.494 26.5537 23.5013 26.5537 23.5085 26.5537C23.5157 26.5537 23.5229 26.5537 23.5302 26.5537C23.5374 26.5537 23.5447 26.5537 23.5519 26.5537C23.5592 26.5537 23.5665 26.5537 23.5738 26.5537C23.5811 26.5537 23.5883 26.5537 23.5956 26.5537C23.603 26.5537 23.6103 26.5537 23.6176 26.5537C23.6249 26.5537 23.6322 26.5537 23.6396 26.5537C23.6469 26.5537 23.6543 26.5537 23.6616 26.5537C23.669 26.5537 23.6764 26.5537 23.6838 26.5537C23.6911 26.5537 23.6985 26.5537 23.7059 26.5537C23.7133 26.5537 23.7207 26.5537 23.7282 26.5537C23.7356 26.5537 23.743 26.5537 23.7504 26.5537C23.7579 26.5537 23.7653 26.5537 23.7728 26.5537C23.7802 26.5537 23.7877 26.5537 23.7952 26.5537C23.8027 26.5537 23.8101 26.5537 23.8176 26.5537C23.8251 26.5537 23.8326 26.5537 23.8402 26.5537C23.8477 26.5537 23.8552 26.5537 23.8627 26.5537C23.8703 26.5537 23.8778 26.5537 23.8854 26.5537C23.8929 26.5537 23.9005 26.5537 23.908 26.5537C23.9156 26.5537 23.9232 26.5537 23.9308 26.5537C23.9384 26.5537 23.946 26.5537 23.9536 26.5537C23.9612 26.5537 23.9688 26.5537 23.9764 26.5537C23.9841 26.5537 23.9917 26.5537 23.9993 26.5537C24.007 26.5537 24.0146 26.5537 24.0223 26.5537C24.03 26.5537 24.0376 26.5537 24.0453 26.5537C24.053 26.5537 24.0607 26.5537 24.0684 26.5537C24.0761 26.5537 24.0838 26.5537 24.0915 26.5537C24.0993 26.5537 24.107 26.5537 24.1147 26.5537C24.1225 26.5537 24.1302 26.5537 24.138 26.5537C24.1457 26.5537 24.1535 26.5537 24.1613 26.5537C24.169 26.5537 24.1768 26.5537 24.1846 26.5537C24.1924 26.5537 24.2002 26.5537 24.208 26.5537C24.2158 26.5537 24.2237 26.5537 24.2315 26.5537C24.2393 26.5537 24.2472 26.5537 24.255 26.5537C24.2629 26.5537 24.2707 26.5537 24.2786 26.5537C24.2864 26.5537 24.2943 26.5537 24.3022 26.5537C24.3101 26.5537 24.318 26.5537 24.3259 26.5537C24.3338 26.5537 24.3417 26.5537 24.3496 26.5537C24.3575 26.5537 24.3655 26.5537 24.3734 26.5537C24.3813 26.5537 24.3893 26.5537 24.3972 26.5537C24.4052 26.5537 24.4132 26.5537 24.4211 26.5537C24.4291 26.5537 24.4371 26.5537 24.4451 26.5537C24.4531 26.5537 24.4611 26.5537 24.4691 26.5537C24.4771 26.5537 24.4851 26.5537 24.4931 26.5537C24.5012 26.5537 24.5092 26.5537 24.5172 26.5537C24.5253 26.5537 24.5333 26.5537 24.5414 26.5537C24.5495 26.5537 24.5575 26.5537 24.5656 26.5537C24.5737 26.5537 24.5818 26.5537 24.5899 26.5537C24.598 26.5537 24.6061 26.5537 24.6142 26.5537C24.6223 26.5537 24.6304 26.5537 24.6386 26.5537C24.6467 26.5537 24.6548 26.5537 24.663 26.5537C24.6711 26.5537 24.6793 26.5537 24.6875 26.5537C24.6956 26.5537 24.7038 26.5537 24.712 26.5537C24.7202 26.5537 24.7284 26.5537 24.7366 26.5537C24.7448 26.5537 24.753 26.5537 24.7612 26.5537C24.7694 26.5537 24.7776 26.5537 24.7859 26.5537C24.7941 26.5537 24.8023 26.5537 24.8106 26.5537C24.8188 26.5537 24.8271 26.5537 24.8354 26.5537C24.8436 26.5537 24.8519 26.5537 24.8602 26.5537C24.8685 26.5537 24.8768 26.5537 24.8851 26.5537C24.8934 26.5537 24.9017 26.5537 24.91 26.5537C24.9183 26.5537 24.9267 26.5537 24.935 26.5537C24.9433 26.5537 24.9517 26.5537 24.96 26.5537C24.9684 26.5537 24.9768 26.5537 24.9851 26.5537C24.9935 26.5537 25.0019 26.5537 25.0103 26.5537C25.0187 26.5537 25.027 26.5537 25.0354 26.5537C25.0439 26.5537 25.0523 26.5537 25.0607 26.5537C25.0691 26.5537 25.0775 26.5537 25.086 26.5537C25.0944 26.5537 25.1028 26.5537 25.1113 26.5537C25.1198 26.5537 25.1282 26.5537 25.1367 26.5537C25.1452 26.5537 25.1536 26.5537 25.1621 26.5537C25.1706 26.5537 25.1791 26.5537 25.1876 26.5537C25.1961 26.5537 25.2046 26.5537 25.2131 26.5537C25.2216 26.5537 25.2302 26.5537 25.2387 26.5537C25.2472 26.5537 25.2558 26.5537 25.2643 26.5537C25.2729 26.5537 25.2814 26.5537 25.29 26.5537C25.2986 26.5537 25.3071 26.5537 25.3157 26.5537C25.3243 26.5537 25.3329 26.5537 25.3415 26.5537C25.3501 26.5537 25.3587 26.5537 25.3673 26.5537C25.3759 26.5537 25.3846 26.5537 25.3932 26.5537C25.4018 26.5537 25.4105 26.5537 25.4191 26.5537C25.4277 26.5537 25.4364 26.5537 25.4451 26.5537C25.4537 26.5537 25.4624 26.5537 25.4711 26.5537C25.4798 26.5537 25.4884 26.5537 25.4971 26.5537C25.5058 26.5537 25.5145 26.5537 25.5232 26.5537C25.5319 26.5537 25.5407 26.5537 25.5494 26.5537C25.5581 26.5537 25.5669 26.5537 25.5756 26.5537C25.5843 26.5537 25.5931 26.5537 25.6018 26.5537C25.6106 26.5537 25.6194 26.5537 25.6281 26.5537C25.6369 26.5537 25.6457 26.5537 25.6545 26.5537C25.6633 26.5537 25.6721 26.5537 25.6809 26.5537C25.6897 26.5537 25.6985 26.5537 25.7073 26.5537C25.7161 26.5537 25.7249 26.5537 25.7338 26.5537C25.7426 26.5537 25.7514 26.5537 25.7603 26.5537C25.7691 26.5537 25.778 26.5537 25.7869 26.5537C25.7957 26.5537 25.8046 26.5537 25.8135 26.5537C25.8224 26.5537 25.8312 26.5537 25.8401 26.5537C25.849 26.5537 25.8579 26.5537 25.8668 26.5537C25.8757 26.5537 25.8847 26.5537 25.8936 26.5537C25.9025 26.5537 25.9114 26.5537 25.9204 26.5537C25.9293 26.5537 25.9383 26.5537 25.9472 26.5537C25.9562 26.5537 25.9651 26.5537 25.9741 26.5537C25.9831 26.5537 25.9921 26.5537 26.001 26.5537C26.01 26.5537 26.019 26.5537 26.028 26.5537C26.037 26.5537 26.046 26.5537 26.055 26.5537C26.0641 26.5537 26.0731 26.5537 26.0821 26.5537C26.0911 26.5537 26.1002 26.5537 26.1092 26.5537C26.1183 26.5537 26.1273 26.5537 26.1364 26.5537C26.1454 26.5537 26.1545 26.5537 26.1636 26.5537C26.1726 26.5537 26.1817 26.5537 26.1908 26.5537C26.1999 26.5537 26.209 26.5537 26.2181 26.5537C26.2272 26.5537 26.2363 26.5537 26.2454 26.5537C26.2545 26.5537 26.2636 26.5537 26.2728 26.5537C26.2819 26.5537 26.291 26.5537 26.3002 26.5537C26.3093 26.5537 26.3185 26.5537 26.3276 26.5537C26.3368 26.5537 26.346 26.5537 26.3551 26.5537C26.3643 26.5537 26.3735 26.5537 26.3827 26.5537C26.3919 26.5537 26.4011 26.5537 26.4103 26.5537C26.4195 26.5537 26.4287 26.5537 26.4379 26.5537C26.4471 26.5537 26.4563 26.5537 26.4656 26.5537C26.4748 26.5537 26.484 26.5537 26.4933 26.5537C26.5025 26.5537 26.5118 26.5537 26.521 26.5537C26.5303 26.5537 26.5395 26.5537 26.5488 26.5537C26.5581 26.5537 26.5674 26.5537 26.5766 26.5537C26.5859 26.5537 26.5952 26.5537 26.6045 26.5537C26.6138 26.5537 26.6231 26.5537 26.6324 26.5537C26.6417 26.5537 26.6511 26.5537 26.6604 26.5537C26.6697 26.5537 26.6791 26.5537 26.6884 26.5537C26.6977 26.5537 26.7071 26.5537 26.7164 26.5537C26.7258 26.5537 26.7351 26.5537 26.7445 26.5537C26.7539 26.5537 26.7633 26.5537 26.7726 26.5537C26.782 26.5537 26.7914 26.5537 26.8008 26.5537C26.8102 26.5537 26.8196 26.5537 26.829 26.5537C26.8384 26.5537 26.8478 26.5537 26.8572 26.5537C26.8667 26.5537 26.8761 26.5537 26.8855 26.5537C26.895 26.5537 26.9044 26.5537 26.9139 26.5537C26.9233 26.5537 26.9328 26.5537 26.9422 26.5537C26.9517 26.5537 26.9611 26.5537 26.9706 26.5537C26.9801 26.5537 26.9896 26.5537 26.9991 26.5537C27.0086 26.5537 27.018 26.5537 27.0275 26.5537C27.037 26.5537 27.0466 26.5537 27.0561 26.5537C27.0656 26.5537 27.0751 26.5537 27.0846 26.5537C27.0942 26.5537 27.1037 26.5537 27.1132 26.5537C27.1228 26.5537 27.1323 26.5537 27.1419 26.5537C27.1514 26.5537 27.161 26.5537 27.1705 26.5537C27.1801 26.5537 27.1897 26.5537 27.1993 26.5537C27.2088 26.5537 27.2184 26.5537 27.228 26.5537C27.2376 26.5537 27.2472 26.5537 27.2568 26.5537C27.2664 26.5537 27.276 26.5537 27.2856 26.5537C27.2952 26.5537 27.3049 26.5537 27.3145 26.5537C27.3241 26.5537 27.3338 26.5537 27.3434 26.5537C27.353 26.5537 27.3627 26.5537 27.3723 26.5537C27.382 26.5537 27.3917 26.5537 27.4013 26.5537C27.411 26.5537 27.4207 26.5537 27.4303 26.5537C27.44 26.5537 27.4497 26.5537 27.4594 26.5537C27.4691 26.5537 27.4788 26.5537 27.4885 26.5537C27.4982 26.5537 27.5079 26.5537 27.5176 26.5537C27.5273 26.5537 27.5371 26.5537 27.5468 26.5537C27.5565 26.5537 27.5662 26.5537 27.576 26.5537C27.5857 26.5537 27.5955 26.5537 27.6052 26.5537C27.615 26.5537 27.6247 26.5537 27.6345 26.5537C27.6443 26.5537 27.654 26.5537 27.6638 26.5537C27.6736 26.5537 27.6834 26.5537 27.6932 26.5537C27.7029 26.5537 27.7127 26.5537 27.7225 26.5537C27.7323 26.5537 27.7422 26.5537 27.752 26.5537C27.7618 26.5537 27.7716 26.5537 27.7814 26.5537C27.7912 26.5537 27.8011 26.5537 27.8109 26.5537C27.8207 26.5537 27.8306 26.5537 27.8404 26.5537C27.8503 26.5537 27.8601 26.5537 27.87 26.5537C27.8799 26.5537 27.8897 26.5537 27.8996 26.5537C27.9095 26.5537 27.9193 26.5537 27.9292 26.5537C27.9391 26.5537 27.949 26.5537 27.9589 26.5537C27.9688 26.5537 27.9787 26.5537 27.9886 26.5537C27.9985 26.5537 28.0084 26.5537 28.0183 26.5537C28.0282 26.5537 28.0382 26.5537 28.0481 26.5537C28.058 26.5537 28.068 26.5537 28.0779 26.5537C28.0878 26.5537 28.0978 26.5537 28.1077 26.5537C28.1177 26.5537 28.1276 26.5537 28.1376 26.5537C28.1476 26.5537 28.1575 26.5537 28.1675 26.5537C28.1775 26.5537 28.1875 26.5537 28.1975 26.5537C28.2074 26.5537 28.2174 26.5537 28.2274 26.5537C28.2374 26.5537 28.2474 26.5537 28.2574 26.5537C28.2674 26.5537 28.2775 26.5537 28.2875 26.5537C28.2975 26.5537 28.3075 26.5537 28.3175 26.5537C28.3276 26.5537 28.3376 26.5537 28.3477 26.5537C28.3577 26.5537 28.3677 26.5537 28.3778 26.5537C28.3878 26.5537 28.3979 26.5537 28.408 26.5537C28.418 26.5537 28.4281 26.5537 28.4382 26.5537C28.4482 26.5537 28.4583 26.5537 28.4684 26.5537C28.4785 26.5537 28.4886 26.5537 28.4987 26.5537C28.5088 26.5537 28.5189 26.5537 28.529 26.5537C28.5391 26.5537 28.5492 26.5537 28.5593 26.5537C28.5694 26.5537 28.5795 26.5537 28.5897 26.5537C28.5998 26.5537 28.6099 26.5537 28.6201 26.5537C28.6302 26.5537 28.6403 26.5537 28.6505 26.5537C28.6606 26.5537 28.6708 26.5537 28.6809 26.5537C28.6911 26.5537 28.7013 26.5537 28.7114 26.5537C28.7216 26.5537 28.7318 26.5537 28.742 26.5537C28.7521 26.5537 28.7623 26.5537 28.7725 26.5537C28.7827 26.5537 28.7929 26.5537 28.8031 26.5537C28.8133 26.5537 28.8235 26.5537 28.8337 26.5537C28.8439 26.5537 28.8541 26.5537 28.8643 26.5537C28.8746 26.5537 28.8848 26.5537 28.895 26.5537C28.9053 26.5537 28.9155 26.5537 28.9257 26.5537C28.936 26.5537 28.9462 26.5537 28.9565 26.5537C28.9667 26.5537 28.977 26.5537 28.9872 26.5537C28.9975 26.5537 29.0078 26.5537 29.018 26.5537C29.0283 26.5537 29.0386 26.5537 29.0488 26.5537C29.0591 26.5537 29.0694 26.5537 29.0797 26.5537C29.09 26.5537 29.1003 26.5537 29.1106 26.5537C29.1209 26.5537 29.1312 26.5537 29.1415 26.5537C29.1518 26.5537 29.1621 26.5537 29.1724 26.5537C29.1828 26.5537 29.1931 26.5537 29.2034 26.5537C29.2137 26.5537 29.2241 26.5537 29.2344 26.5537C29.2447 26.5537 29.2551 26.5537 29.2654 26.5537C29.2758 26.5537 29.2861 26.5537 29.2965 26.5537C29.3068 26.5537 29.3172 26.5537 29.3276 26.5537C29.3379 26.5537 29.3483 26.5537 29.3587 26.5537C29.3691 26.5537 29.3794 26.5537 29.3898 26.5537C29.4002 26.5537 29.4106 26.5537 29.421 26.5537C29.4314 26.5537 29.4418 26.5537 29.4522 26.5537C29.4626 26.5537 29.473 26.5537 29.4834 26.5537C29.4938 26.5537 29.5042 26.5537 29.5147 26.5537C29.5251 26.5537 29.5355 26.5537 29.546 26.5537C29.5564 26.5537 29.5668 26.5537 29.5773 26.5537C29.5877 26.5537 29.5981 26.5537 29.6086 26.5537C29.619 26.5537 29.6295 26.5537 29.64 26.5537C29.6504 26.5537 29.6609 26.5537 29.6713 26.5537C29.6818 26.5537 29.6923 26.5537 29.7028 26.5537C29.7132 26.5537 29.7237 26.5537 29.7342 26.5537C29.7447 26.5537 29.7552 26.5537 29.7657 26.5537C29.7762 26.5537 29.7867 26.5537 29.7972 26.5537C29.8077 26.5537 29.8182 26.5537 29.8287 26.5537C29.8392 26.5537 29.8497 26.5537 29.8602 26.5537C29.8707 26.5537 29.8813 26.5537 29.8918 26.5537C29.9023 26.5537 29.9129 26.5537 29.9234 26.5537C29.9339 26.5537 29.9445 26.5537 29.955 26.5537C29.9656 26.5537 29.9761 26.5537 29.9867 26.5537C29.9972 26.5537 30.0078 26.5537 30.0183 26.5537C30.0289 26.5537 30.0395 26.5537 30.05 26.5537C30.0606 26.5537 30.0712 26.5537 30.0818 26.5537C30.0923 26.5537 30.1029 26.5537 30.1135 26.5537C30.1241 26.5537 30.1347 26.5537 30.1453 26.5537C30.1559 26.5537 30.1665 26.5537 30.1771 26.5537C30.1877 26.5537 30.1983 26.5537 30.2089 26.5537C30.2195 26.5537 30.2301 26.5537 30.2407 26.5537C30.2514 26.5537 30.262 26.5537 30.2726 26.5537C30.2832 26.5537 30.2939 26.5537 30.3045 26.5537C30.3151 26.5537 30.3258 26.5537 30.3364 26.5537C30.3471 26.5537 30.3577 26.5537 30.3684 26.5537C30.379 26.5537 30.3897 26.5537 30.4003 26.5537C30.411 26.5537 30.4217 26.5537 30.4323 26.5537C30.443 26.5537 30.4537 26.5537 30.4643 26.5537C30.475 26.5537 30.4857 26.5537 30.4964 26.5537C30.5071 26.5537 30.5177 26.5537 30.5284 26.5537C30.5391 26.5537 30.5498 26.5537 30.5605 26.5537C30.5712 26.5537 30.5819 26.5537 30.5926 26.5537C30.6033 26.5537 30.614 26.5537 30.6247 26.5537C30.6355 26.5537 30.6462 26.5537 30.6569 26.5537C30.6676 26.5537 30.6783 26.5537 30.6891 26.5537C30.6998 26.5537 30.7105 26.5537 30.7213 26.5537C30.732 26.5537 30.7427 26.5537 30.7535 26.5537C30.7642 26.5537 30.775 26.5537 30.7857 26.5537C30.7965 26.5537 30.8072 26.5537 30.818 26.5537C30.8287 26.5537 30.8395 26.5537 30.8502 26.5537C30.861 26.5537 30.8718 26.5537 30.8825 26.5537C30.8933 26.5537 30.9041 26.5537 30.9149 26.5537C30.9256 26.5537 30.9364 26.5537 30.9472 26.5537C30.958 26.5537 30.9688 26.5537 30.9796 26.5537C30.9904 26.5537 31.0012 26.5537 31.012 26.5537C31.0228 26.5537 31.0336 26.5537 31.0444 26.5537C31.0552 26.5537 31.066 26.5537 31.0768 26.5537C31.0876 26.5537 31.0984 26.5537 31.1092 26.5537C31.1201 26.5537 31.1309 26.5537 31.1417 26.5537C31.1525 26.5537 31.1634 26.5537 31.1742 26.5537C31.185 26.5537 31.1959 26.5537 31.2067 26.5537C31.2176 26.5537 31.2284 26.5537 31.2392 26.5537C31.2501 26.5537 31.2609 26.5537 31.2718 26.5537C31.2826 26.5537 31.2935 26.5537 31.3044 26.5537C31.3152 26.5537 31.3261 26.5537 31.3369 26.5537C31.3478 26.5537 31.3587 26.5537 31.3695 26.5537C31.3804 26.5537 31.3913 26.5537 31.4022 26.5537C31.4131 26.5537 31.4239 26.5537 31.4348 26.5537C31.4457 26.5537 31.4566 26.5537 31.4675 26.5537C31.4784 26.5537 31.4893 26.5537 31.5002 26.5537C31.5111 26.5537 31.522 26.5537 31.5329 26.5537C31.5438 26.5537 31.5547 26.5537 31.5656 26.5537C31.5765 26.5537 31.5874 26.5537 31.5983 26.5537C31.6092 26.5537 31.6202 26.5537 31.6311 26.5537C31.642 26.5537 31.6529 26.5537 31.6638 26.5537C31.6748 26.5537 31.6857 26.5537 31.6966 26.5537C31.7076 26.5537 31.7185 26.5537 31.7294 26.5537C31.7404 26.5537 31.7513 26.5537 31.7623 26.5537C31.7732 26.5537 31.7842 26.5537 31.7951 26.5537C31.8061 26.5537 31.817 26.5537 31.828 26.5537C31.8389 26.5537 31.8499 26.5537 31.8609 26.5537C31.8718 26.5537 31.8828 26.5537 31.8937 26.5537C31.9047 26.5537 31.9157 26.5537 31.9267 26.5537C31.9376 26.5537 31.9486 26.5537 31.9596 26.5537C31.9706 26.5537 31.9815 26.5537 31.9925 26.5537C32.0035 26.5537 32.0145 26.5537 32.0255 26.5537C32.0365 26.5537 32.0475 26.5537 32.0585 26.5537C32.0695 26.5537 32.0805 26.5537 32.0915 26.5537C32.1025 26.5537 32.1135 26.5537 32.1245 26.5537C32.1355 26.5537 32.1465 26.5537 32.1575 26.5537C32.1685 26.5537 32.1795 26.5537 32.1905 26.5537C32.2016 26.5537 32.2126 26.5537 32.2236 26.5537C32.2346 26.5537 32.2456 26.5537 32.2567 26.5537C32.2677 26.5537 32.2787 26.5537 32.2898 26.5537C32.3008 26.5537 32.3118 26.5537 32.3229 26.5537C32.3339 26.5537 32.3449 26.5537 32.356 26.5537C32.367 26.5537 32.3781 26.5537 32.3891 26.5537C32.4002 26.5537 32.4112 26.5537 32.4223 26.5537C32.4333 26.5537 32.4444 26.5537 32.4554 26.5537C32.4665 26.5537 32.4775 26.5537 32.4886 26.5537C32.4997 26.5537 32.5107 26.5537 32.5218 26.5537C32.5329 26.5537 32.5439 26.5537 32.555 26.5537C32.5661 26.5537 32.5771 26.5537 32.5882 26.5537C32.5993 26.5537 32.6104 26.5537 32.6215 26.5537C32.6325 26.5537 32.6436 26.5537 32.6547 26.5537C32.6658 26.5537 32.6769 26.5537 32.688 26.5537C32.699 26.5537 32.7101 26.5537 32.7212 26.5537C32.7323 26.5537 32.7434 26.5537 32.7545 26.5537C32.7656 26.5537 32.7767 26.5537 32.7878 26.5537C32.7989 26.5537 32.81 26.5537 32.8211 26.5537C32.8322 26.5537 32.8433 26.5537 32.8545 26.5537C32.8656 26.5537 32.8767 26.5537 32.8878 26.5537C32.8989 26.5537 32.91 26.5537 32.9211 26.5537C32.9323 26.5537 32.9434 26.5537 32.9545 26.5537V29.5537C32.9434 29.5537 32.9323 29.5537 32.9211 29.5537C32.91 29.5537 32.8989 29.5537 32.8878 29.5537C32.8767 29.5537 32.8656 29.5537 32.8545 29.5537C32.8433 29.5537 32.8322 29.5537 32.8211 29.5537C32.81 29.5537 32.7989 29.5537 32.7878 29.5537C32.7767 29.5537 32.7656 29.5537 32.7545 29.5537C32.7434 29.5537 32.7323 29.5537 32.7212 29.5537C32.7101 29.5537 32.699 29.5537 32.688 29.5537C32.6769 29.5537 32.6658 29.5537 32.6547 29.5537C32.6436 29.5537 32.6325 29.5537 32.6215 29.5537C32.6104 29.5537 32.5993 29.5537 32.5882 29.5537C32.5771 29.5537 32.5661 29.5537 32.555 29.5537C32.5439 29.5537 32.5329 29.5537 32.5218 29.5537C32.5107 29.5537 32.4997 29.5537 32.4886 29.5537C32.4775 29.5537 32.4665 29.5537 32.4554 29.5537C32.4444 29.5537 32.4333 29.5537 32.4223 29.5537C32.4112 29.5537 32.4002 29.5537 32.3891 29.5537C32.3781 29.5537 32.367 29.5537 32.356 29.5537C32.3449 29.5537 32.3339 29.5537 32.3229 29.5537C32.3118 29.5537 32.3008 29.5537 32.2898 29.5537C32.2787 29.5537 32.2677 29.5537 32.2567 29.5537C32.2456 29.5537 32.2346 29.5537 32.2236 29.5537C32.2126 29.5537 32.2016 29.5537 32.1905 29.5537C32.1795 29.5537 32.1685 29.5537 32.1575 29.5537C32.1465 29.5537 32.1355 29.5537 32.1245 29.5537C32.1135 29.5537 32.1025 29.5537 32.0915 29.5537C32.0805 29.5537 32.0695 29.5537 32.0585 29.5537C32.0475 29.5537 32.0365 29.5537 32.0255 29.5537C32.0145 29.5537 32.0035 29.5537 31.9925 29.5537C31.9815 29.5537 31.9706 29.5537 31.9596 29.5537C31.9486 29.5537 31.9376 29.5537 31.9267 29.5537C31.9157 29.5537 31.9047 29.5537 31.8937 29.5537C31.8828 29.5537 31.8718 29.5537 31.8609 29.5537C31.8499 29.5537 31.8389 29.5537 31.828 29.5537C31.817 29.5537 31.8061 29.5537 31.7951 29.5537C31.7842 29.5537 31.7732 29.5537 31.7623 29.5537C31.7513 29.5537 31.7404 29.5537 31.7294 29.5537C31.7185 29.5537 31.7076 29.5537 31.6966 29.5537C31.6857 29.5537 31.6748 29.5537 31.6638 29.5537C31.6529 29.5537 31.642 29.5537 31.6311 29.5537C31.6202 29.5537 31.6092 29.5537 31.5983 29.5537C31.5874 29.5537 31.5765 29.5537 31.5656 29.5537C31.5547 29.5537 31.5438 29.5537 31.5329 29.5537C31.522 29.5537 31.5111 29.5537 31.5002 29.5537C31.4893 29.5537 31.4784 29.5537 31.4675 29.5537C31.4566 29.5537 31.4457 29.5537 31.4348 29.5537C31.4239 29.5537 31.4131 29.5537 31.4022 29.5537C31.3913 29.5537 31.3804 29.5537 31.3695 29.5537C31.3587 29.5537 31.3478 29.5537 31.3369 29.5537C31.3261 29.5537 31.3152 29.5537 31.3044 29.5537C31.2935 29.5537 31.2826 29.5537 31.2718 29.5537C31.2609 29.5537 31.2501 29.5537 31.2392 29.5537C31.2284 29.5537 31.2176 29.5537 31.2067 29.5537C31.1959 29.5537 31.185 29.5537 31.1742 29.5537C31.1634 29.5537 31.1525 29.5537 31.1417 29.5537C31.1309 29.5537 31.1201 29.5537 31.1092 29.5537C31.0984 29.5537 31.0876 29.5537 31.0768 29.5537C31.066 29.5537 31.0552 29.5537 31.0444 29.5537C31.0336 29.5537 31.0228 29.5537 31.012 29.5537C31.0012 29.5537 30.9904 29.5537 30.9796 29.5537C30.9688 29.5537 30.958 29.5537 30.9472 29.5537C30.9364 29.5537 30.9256 29.5537 30.9149 29.5537C30.9041 29.5537 30.8933 29.5537 30.8825 29.5537C30.8718 29.5537 30.861 29.5537 30.8502 29.5537C30.8395 29.5537 30.8287 29.5537 30.818 29.5537C30.8072 29.5537 30.7965 29.5537 30.7857 29.5537C30.775 29.5537 30.7642 29.5537 30.7535 29.5537C30.7427 29.5537 30.732 29.5537 30.7213 29.5537C30.7105 29.5537 30.6998 29.5537 30.6891 29.5537C30.6783 29.5537 30.6676 29.5537 30.6569 29.5537C30.6462 29.5537 30.6355 29.5537 30.6247 29.5537C30.614 29.5537 30.6033 29.5537 30.5926 29.5537C30.5819 29.5537 30.5712 29.5537 30.5605 29.5537C30.5498 29.5537 30.5391 29.5537 30.5284 29.5537C30.5177 29.5537 30.5071 29.5537 30.4964 29.5537C30.4857 29.5537 30.475 29.5537 30.4643 29.5537C30.4537 29.5537 30.443 29.5537 30.4323 29.5537C30.4217 29.5537 30.411 29.5537 30.4003 29.5537C30.3897 29.5537 30.379 29.5537 30.3684 29.5537C30.3577 29.5537 30.3471 29.5537 30.3364 29.5537C30.3258 29.5537 30.3151 29.5537 30.3045 29.5537C30.2939 29.5537 30.2832 29.5537 30.2726 29.5537C30.262 29.5537 30.2514 29.5537 30.2407 29.5537C30.2301 29.5537 30.2195 29.5537 30.2089 29.5537C30.1983 29.5537 30.1877 29.5537 30.1771 29.5537C30.1665 29.5537 30.1559 29.5537 30.1453 29.5537C30.1347 29.5537 30.1241 29.5537 30.1135 29.5537C30.1029 29.5537 30.0923 29.5537 30.0818 29.5537C30.0712 29.5537 30.0606 29.5537 30.05 29.5537C30.0395 29.5537 30.0289 29.5537 30.0183 29.5537C30.0078 29.5537 29.9972 29.5537 29.9867 29.5537C29.9761 29.5537 29.9656 29.5537 29.955 29.5537C29.9445 29.5537 29.9339 29.5537 29.9234 29.5537C29.9129 29.5537 29.9023 29.5537 29.8918 29.5537C29.8813 29.5537 29.8707 29.5537 29.8602 29.5537C29.8497 29.5537 29.8392 29.5537 29.8287 29.5537C29.8182 29.5537 29.8077 29.5537 29.7972 29.5537C29.7867 29.5537 29.7762 29.5537 29.7657 29.5537C29.7552 29.5537 29.7447 29.5537 29.7342 29.5537C29.7237 29.5537 29.7132 29.5537 29.7028 29.5537C29.6923 29.5537 29.6818 29.5537 29.6713 29.5537C29.6609 29.5537 29.6504 29.5537 29.64 29.5537C29.6295 29.5537 29.619 29.5537 29.6086 29.5537C29.5981 29.5537 29.5877 29.5537 29.5773 29.5537C29.5668 29.5537 29.5564 29.5537 29.546 29.5537C29.5355 29.5537 29.5251 29.5537 29.5147 29.5537C29.5042 29.5537 29.4938 29.5537 29.4834 29.5537C29.473 29.5537 29.4626 29.5537 29.4522 29.5537C29.4418 29.5537 29.4314 29.5537 29.421 29.5537C29.4106 29.5537 29.4002 29.5537 29.3898 29.5537C29.3794 29.5537 29.3691 29.5537 29.3587 29.5537C29.3483 29.5537 29.3379 29.5537 29.3276 29.5537C29.3172 29.5537 29.3068 29.5537 29.2965 29.5537C29.2861 29.5537 29.2758 29.5537 29.2654 29.5537C29.2551 29.5537 29.2447 29.5537 29.2344 29.5537C29.2241 29.5537 29.2137 29.5537 29.2034 29.5537C29.1931 29.5537 29.1828 29.5537 29.1724 29.5537C29.1621 29.5537 29.1518 29.5537 29.1415 29.5537C29.1312 29.5537 29.1209 29.5537 29.1106 29.5537C29.1003 29.5537 29.09 29.5537 29.0797 29.5537C29.0694 29.5537 29.0591 29.5537 29.0488 29.5537C29.0386 29.5537 29.0283 29.5537 29.018 29.5537C29.0078 29.5537 28.9975 29.5537 28.9872 29.5537C28.977 29.5537 28.9667 29.5537 28.9565 29.5537C28.9462 29.5537 28.936 29.5537 28.9257 29.5537C28.9155 29.5537 28.9053 29.5537 28.895 29.5537C28.8848 29.5537 28.8746 29.5537 28.8643 29.5537C28.8541 29.5537 28.8439 29.5537 28.8337 29.5537C28.8235 29.5537 28.8133 29.5537 28.8031 29.5537C28.7929 29.5537 28.7827 29.5537 28.7725 29.5537C28.7623 29.5537 28.7521 29.5537 28.742 29.5537C28.7318 29.5537 28.7216 29.5537 28.7114 29.5537C28.7013 29.5537 28.6911 29.5537 28.6809 29.5537C28.6708 29.5537 28.6606 29.5537 28.6505 29.5537C28.6403 29.5537 28.6302 29.5537 28.6201 29.5537C28.6099 29.5537 28.5998 29.5537 28.5897 29.5537C28.5795 29.5537 28.5694 29.5537 28.5593 29.5537C28.5492 29.5537 28.5391 29.5537 28.529 29.5537C28.5189 29.5537 28.5088 29.5537 28.4987 29.5537C28.4886 29.5537 28.4785 29.5537 28.4684 29.5537C28.4583 29.5537 28.4482 29.5537 28.4382 29.5537C28.4281 29.5537 28.418 29.5537 28.408 29.5537C28.3979 29.5537 28.3878 29.5537 28.3778 29.5537C28.3677 29.5537 28.3577 29.5537 28.3477 29.5537C28.3376 29.5537 28.3276 29.5537 28.3175 29.5537C28.3075 29.5537 28.2975 29.5537 28.2875 29.5537C28.2775 29.5537 28.2674 29.5537 28.2574 29.5537C28.2474 29.5537 28.2374 29.5537 28.2274 29.5537C28.2174 29.5537 28.2074 29.5537 28.1975 29.5537C28.1875 29.5537 28.1775 29.5537 28.1675 29.5537C28.1575 29.5537 28.1476 29.5537 28.1376 29.5537C28.1276 29.5537 28.1177 29.5537 28.1077 29.5537C28.0978 29.5537 28.0878 29.5537 28.0779 29.5537C28.068 29.5537 28.058 29.5537 28.0481 29.5537C28.0382 29.5537 28.0282 29.5537 28.0183 29.5537C28.0084 29.5537 27.9985 29.5537 27.9886 29.5537C27.9787 29.5537 27.9688 29.5537 27.9589 29.5537C27.949 29.5537 27.9391 29.5537 27.9292 29.5537C27.9193 29.5537 27.9095 29.5537 27.8996 29.5537C27.8897 29.5537 27.8799 29.5537 27.87 29.5537C27.8601 29.5537 27.8503 29.5537 27.8404 29.5537C27.8306 29.5537 27.8207 29.5537 27.8109 29.5537C27.8011 29.5537 27.7912 29.5537 27.7814 29.5537C27.7716 29.5537 27.7618 29.5537 27.752 29.5537C27.7422 29.5537 27.7323 29.5537 27.7225 29.5537C27.7127 29.5537 27.7029 29.5537 27.6932 29.5537C27.6834 29.5537 27.6736 29.5537 27.6638 29.5537C27.654 29.5537 27.6443 29.5537 27.6345 29.5537C27.6247 29.5537 27.615 29.5537 27.6052 29.5537C27.5955 29.5537 27.5857 29.5537 27.576 29.5537C27.5662 29.5537 27.5565 29.5537 27.5468 29.5537C27.5371 29.5537 27.5273 29.5537 27.5176 29.5537C27.5079 29.5537 27.4982 29.5537 27.4885 29.5537C27.4788 29.5537 27.4691 29.5537 27.4594 29.5537C27.4497 29.5537 27.44 29.5537 27.4303 29.5537C27.4207 29.5537 27.411 29.5537 27.4013 29.5537C27.3917 29.5537 27.382 29.5537 27.3723 29.5537C27.3627 29.5537 27.353 29.5537 27.3434 29.5537C27.3338 29.5537 27.3241 29.5537 27.3145 29.5537C27.3049 29.5537 27.2952 29.5537 27.2856 29.5537C27.276 29.5537 27.2664 29.5537 27.2568 29.5537C27.2472 29.5537 27.2376 29.5537 27.228 29.5537C27.2184 29.5537 27.2088 29.5537 27.1993 29.5537C27.1897 29.5537 27.1801 29.5537 27.1705 29.5537C27.161 29.5537 27.1514 29.5537 27.1419 29.5537C27.1323 29.5537 27.1228 29.5537 27.1132 29.5537C27.1037 29.5537 27.0942 29.5537 27.0846 29.5537C27.0751 29.5537 27.0656 29.5537 27.0561 29.5537C27.0466 29.5537 27.037 29.5537 27.0275 29.5537C27.018 29.5537 27.0086 29.5537 26.9991 29.5537C26.9896 29.5537 26.9801 29.5537 26.9706 29.5537C26.9611 29.5537 26.9517 29.5537 26.9422 29.5537C26.9328 29.5537 26.9233 29.5537 26.9139 29.5537C26.9044 29.5537 26.895 29.5537 26.8855 29.5537C26.8761 29.5537 26.8667 29.5537 26.8572 29.5537C26.8478 29.5537 26.8384 29.5537 26.829 29.5537C26.8196 29.5537 26.8102 29.5537 26.8008 29.5537C26.7914 29.5537 26.782 29.5537 26.7726 29.5537C26.7633 29.5537 26.7539 29.5537 26.7445 29.5537C26.7351 29.5537 26.7258 29.5537 26.7164 29.5537C26.7071 29.5537 26.6977 29.5537 26.6884 29.5537C26.6791 29.5537 26.6697 29.5537 26.6604 29.5537C26.6511 29.5537 26.6417 29.5537 26.6324 29.5537C26.6231 29.5537 26.6138 29.5537 26.6045 29.5537C26.5952 29.5537 26.5859 29.5537 26.5766 29.5537C26.5674 29.5537 26.5581 29.5537 26.5488 29.5537C26.5395 29.5537 26.5303 29.5537 26.521 29.5537C26.5118 29.5537 26.5025 29.5537 26.4933 29.5537C26.484 29.5537 26.4748 29.5537 26.4656 29.5537C26.4563 29.5537 26.4471 29.5537 26.4379 29.5537C26.4287 29.5537 26.4195 29.5537 26.4103 29.5537C26.4011 29.5537 26.3919 29.5537 26.3827 29.5537C26.3735 29.5537 26.3643 29.5537 26.3551 29.5537C26.346 29.5537 26.3368 29.5537 26.3276 29.5537C26.3185 29.5537 26.3093 29.5537 26.3002 29.5537C26.291 29.5537 26.2819 29.5537 26.2728 29.5537C26.2636 29.5537 26.2545 29.5537 26.2454 29.5537C26.2363 29.5537 26.2272 29.5537 26.2181 29.5537C26.209 29.5537 26.1999 29.5537 26.1908 29.5537C26.1817 29.5537 26.1726 29.5537 26.1636 29.5537C26.1545 29.5537 26.1454 29.5537 26.1364 29.5537C26.1273 29.5537 26.1183 29.5537 26.1092 29.5537C26.1002 29.5537 26.0911 29.5537 26.0821 29.5537C26.0731 29.5537 26.0641 29.5537 26.055 29.5537C26.046 29.5537 26.037 29.5537 26.028 29.5537C26.019 29.5537 26.01 29.5537 26.001 29.5537C25.9921 29.5537 25.9831 29.5537 25.9741 29.5537C25.9651 29.5537 25.9562 29.5537 25.9472 29.5537C25.9383 29.5537 25.9293 29.5537 25.9204 29.5537C25.9114 29.5537 25.9025 29.5537 25.8936 29.5537C25.8847 29.5537 25.8757 29.5537 25.8668 29.5537C25.8579 29.5537 25.849 29.5537 25.8401 29.5537C25.8312 29.5537 25.8224 29.5537 25.8135 29.5537C25.8046 29.5537 25.7957 29.5537 25.7869 29.5537C25.778 29.5537 25.7691 29.5537 25.7603 29.5537C25.7514 29.5537 25.7426 29.5537 25.7338 29.5537C25.7249 29.5537 25.7161 29.5537 25.7073 29.5537C25.6985 29.5537 25.6897 29.5537 25.6809 29.5537C25.6721 29.5537 25.6633 29.5537 25.6545 29.5537C25.6457 29.5537 25.6369 29.5537 25.6281 29.5537C25.6194 29.5537 25.6106 29.5537 25.6018 29.5537C25.5931 29.5537 25.5843 29.5537 25.5756 29.5537C25.5669 29.5537 25.5581 29.5537 25.5494 29.5537C25.5407 29.5537 25.5319 29.5537 25.5232 29.5537C25.5145 29.5537 25.5058 29.5537 25.4971 29.5537C25.4884 29.5537 25.4798 29.5537 25.4711 29.5537C25.4624 29.5537 25.4537 29.5537 25.4451 29.5537C25.4364 29.5537 25.4277 29.5537 25.4191 29.5537C25.4105 29.5537 25.4018 29.5537 25.3932 29.5537C25.3846 29.5537 25.3759 29.5537 25.3673 29.5537C25.3587 29.5537 25.3501 29.5537 25.3415 29.5537C25.3329 29.5537 25.3243 29.5537 25.3157 29.5537C25.3071 29.5537 25.2986 29.5537 25.29 29.5537C25.2814 29.5537 25.2729 29.5537 25.2643 29.5537C25.2558 29.5537 25.2472 29.5537 25.2387 29.5537C25.2302 29.5537 25.2216 29.5537 25.2131 29.5537C25.2046 29.5537 25.1961 29.5537 25.1876 29.5537C25.1791 29.5537 25.1706 29.5537 25.1621 29.5537C25.1536 29.5537 25.1452 29.5537 25.1367 29.5537C25.1282 29.5537 25.1198 29.5537 25.1113 29.5537C25.1028 29.5537 25.0944 29.5537 25.086 29.5537C25.0775 29.5537 25.0691 29.5537 25.0607 29.5537C25.0523 29.5537 25.0439 29.5537 25.0354 29.5537C25.027 29.5537 25.0187 29.5537 25.0103 29.5537C25.0019 29.5537 24.9935 29.5537 24.9851 29.5537C24.9768 29.5537 24.9684 29.5537 24.96 29.5537C24.9517 29.5537 24.9433 29.5537 24.935 29.5537C24.9267 29.5537 24.9183 29.5537 24.91 29.5537C24.9017 29.5537 24.8934 29.5537 24.8851 29.5537C24.8768 29.5537 24.8685 29.5537 24.8602 29.5537C24.8519 29.5537 24.8436 29.5537 24.8354 29.5537C24.8271 29.5537 24.8188 29.5537 24.8106 29.5537C24.8023 29.5537 24.7941 29.5537 24.7859 29.5537C24.7776 29.5537 24.7694 29.5537 24.7612 29.5537C24.753 29.5537 24.7448 29.5537 24.7366 29.5537C24.7284 29.5537 24.7202 29.5537 24.712 29.5537C24.7038 29.5537 24.6956 29.5537 24.6875 29.5537C24.6793 29.5537 24.6711 29.5537 24.663 29.5537C24.6548 29.5537 24.6467 29.5537 24.6386 29.5537C24.6304 29.5537 24.6223 29.5537 24.6142 29.5537C24.6061 29.5537 24.598 29.5537 24.5899 29.5537C24.5818 29.5537 24.5737 29.5537 24.5656 29.5537C24.5575 29.5537 24.5495 29.5537 24.5414 29.5537C24.5333 29.5537 24.5253 29.5537 24.5172 29.5537C24.5092 29.5537 24.5012 29.5537 24.4931 29.5537C24.4851 29.5537 24.4771 29.5537 24.4691 29.5537C24.4611 29.5537 24.4531 29.5537 24.4451 29.5537C24.4371 29.5537 24.4291 29.5537 24.4211 29.5537C24.4132 29.5537 24.4052 29.5537 24.3972 29.5537C24.3893 29.5537 24.3813 29.5537 24.3734 29.5537C24.3655 29.5537 24.3575 29.5537 24.3496 29.5537C24.3417 29.5537 24.3338 29.5537 24.3259 29.5537C24.318 29.5537 24.3101 29.5537 24.3022 29.5537C24.2943 29.5537 24.2864 29.5537 24.2786 29.5537C24.2707 29.5537 24.2629 29.5537 24.255 29.5537C24.2472 29.5537 24.2393 29.5537 24.2315 29.5537C24.2237 29.5537 24.2158 29.5537 24.208 29.5537C24.2002 29.5537 24.1924 29.5537 24.1846 29.5537C24.1768 29.5537 24.169 29.5537 24.1613 29.5537C24.1535 29.5537 24.1457 29.5537 24.138 29.5537C24.1302 29.5537 24.1225 29.5537 24.1147 29.5537C24.107 29.5537 24.0993 29.5537 24.0915 29.5537C24.0838 29.5537 24.0761 29.5537 24.0684 29.5537C24.0607 29.5537 24.053 29.5537 24.0453 29.5537C24.0376 29.5537 24.03 29.5537 24.0223 29.5537C24.0146 29.5537 24.007 29.5537 23.9993 29.5537C23.9917 29.5537 23.9841 29.5537 23.9764 29.5537C23.9688 29.5537 23.9612 29.5537 23.9536 29.5537C23.946 29.5537 23.9384 29.5537 23.9308 29.5537C23.9232 29.5537 23.9156 29.5537 23.908 29.5537C23.9005 29.5537 23.8929 29.5537 23.8854 29.5537C23.8778 29.5537 23.8703 29.5537 23.8627 29.5537C23.8552 29.5537 23.8477 29.5537 23.8402 29.5537C23.8326 29.5537 23.8251 29.5537 23.8176 29.5537C23.8101 29.5537 23.8027 29.5537 23.7952 29.5537C23.7877 29.5537 23.7802 29.5537 23.7728 29.5537C23.7653 29.5537 23.7579 29.5537 23.7504 29.5537C23.743 29.5537 23.7356 29.5537 23.7282 29.5537C23.7207 29.5537 23.7133 29.5537 23.7059 29.5537C23.6985 29.5537 23.6911 29.5537 23.6838 29.5537C23.6764 29.5537 23.669 29.5537 23.6616 29.5537C23.6543 29.5537 23.6469 29.5537 23.6396 29.5537C23.6322 29.5537 23.6249 29.5537 23.6176 29.5537C23.6103 29.5537 23.603 29.5537 23.5956 29.5537C23.5883 29.5537 23.5811 29.5537 23.5738 29.5537C23.5665 29.5537 23.5592 29.5537 23.5519 29.5537C23.5447 29.5537 23.5374 29.5537 23.5302 29.5537C23.5229 29.5537 23.5157 29.5537 23.5085 29.5537C23.5013 29.5537 23.494 29.5537 23.4868 29.5537C23.4796 29.5537 23.4724 29.5537 23.4653 29.5537C23.4581 29.5537 23.4509 29.5537 23.4437 29.5537C23.4366 29.5537 23.4294 29.5537 23.4223 29.5537C23.4151 29.5537 23.408 29.5537 23.4009 29.5537C23.3937 29.5537 23.3866 29.5537 23.3795 29.5537C23.3724 29.5537 23.3653 29.5537 23.3582 29.5537C23.3511 29.5537 23.3441 29.5537 23.337 29.5537C23.3299 29.5537 23.3229 29.5537 23.3158 29.5537C23.3088 29.5537 23.3017 29.5537 23.2947 29.5537C23.2877 29.5537 23.2807 29.5537 23.2737 29.5537C23.2667 29.5537 23.2597 29.5537 23.2527 29.5537C23.2457 29.5537 23.2387 29.5537 23.2318 29.5537C23.2248 29.5537 23.2178 29.5537 23.2109 29.5537C23.204 29.5537 23.197 29.5537 23.1901 29.5537C23.1832 29.5537 23.1763 29.5537 23.1693 29.5537C23.1624 29.5537 23.1556 29.5537 23.1487 29.5537C23.1418 29.5537 23.1349 29.5537 23.128 29.5537C23.1212 29.5537 23.1143 29.5537 23.1075 29.5537C23.1006 29.5537 23.0938 29.5537 23.087 29.5537C23.0802 29.5537 23.0734 29.5537 23.0666 29.5537C23.0598 29.5537 23.053 29.5537 23.0462 29.5537C23.0394 29.5537 23.0326 29.5537 23.0259 29.5537C23.0191 29.5537 23.0124 29.5537 23.0056 29.5537C22.9989 29.5537 22.9922 29.5537 22.9854 29.5537C22.9787 29.5537 22.972 29.5537 22.9653 29.5537C22.9586 29.5537 22.9519 29.5537 22.9453 29.5537C22.9386 29.5537 22.9319 29.5537 22.9253 29.5537C22.9186 29.5537 22.912 29.5537 22.9053 29.5537C22.8987 29.5537 22.8921 29.5537 22.8855 29.5537C22.8788 29.5537 22.8722 29.5537 22.8657 29.5537C22.8591 29.5537 22.8525 29.5537 22.8459 29.5537C22.8393 29.5537 22.8328 29.5537 22.8262 29.5537C22.8197 29.5537 22.8131 29.5537 22.8066 29.5537C22.8001 29.5537 22.7936 29.5537 22.7871 29.5537C22.7805 29.5537 22.7741 29.5537 22.7676 29.5537C22.7611 29.5537 22.7546 29.5537 22.7481 29.5537C22.7417 29.5537 22.7352 29.5537 22.7288 29.5537C22.7223 29.5537 22.7159 29.5537 22.7095 29.5537C22.7031 29.5537 22.6967 29.5537 22.6903 29.5537C22.6839 29.5537 22.6775 29.5537 22.6711 29.5537C22.6647 29.5537 22.6583 29.5537 22.652 29.5537C22.6456 29.5537 22.6393 29.5537 22.6329 29.5537C22.6266 29.5537 22.6203 29.5537 22.614 29.5537C22.6077 29.5537 22.6014 29.5537 22.5951 29.5537C22.5888 29.5537 22.5825 29.5537 22.5762 29.5537C22.57 29.5537 22.5637 29.5537 22.5574 29.5537C22.5512 29.5537 22.545 29.5537 22.5387 29.5537C22.5325 29.5537 22.5263 29.5537 22.5201 29.5537C22.5139 29.5537 22.5077 29.5537 22.5015 29.5537C22.4953 29.5537 22.4892 29.5537 22.483 29.5537C22.4768 29.5537 22.4707 29.5537 22.4646 29.5537C22.4584 29.5537 22.4523 29.5537 22.4462 29.5537C22.4401 29.5537 22.434 29.5537 22.4279 29.5537C22.4218 29.5537 22.4157 29.5537 22.4096 29.5537C22.4035 29.5537 22.3975 29.5537 22.3914 29.5537C22.3854 29.5537 22.3794 29.5537 22.3733 29.5537C22.3673 29.5537 22.3613 29.5537 22.3553 29.5537C22.3493 29.5537 22.3433 29.5537 22.3373 29.5537C22.3313 29.5537 22.3254 29.5537 22.3194 29.5537C22.3134 29.5537 22.3075 29.5537 22.3015 29.5537C22.2956 29.5537 22.2897 29.5537 22.2838 29.5537C22.2779 29.5537 22.272 29.5537 22.2661 29.5537C22.2602 29.5537 22.2543 29.5537 22.2484 29.5537C22.2426 29.5537 22.2367 29.5537 22.2309 29.5537C22.225 29.5537 22.2192 29.5537 22.2134 29.5537C22.2075 29.5537 22.2017 29.5537 22.1959 29.5537C22.1901 29.5537 22.1843 29.5537 22.1786 29.5537C22.1728 29.5537 22.167 29.5537 22.1613 29.5537C22.1555 29.5537 22.1498 29.5537 22.144 29.5537C22.1383 29.5537 22.1326 29.5537 22.1269 29.5537C22.1212 29.5537 22.1155 29.5537 22.1098 29.5537C22.1041 29.5537 22.0984 29.5537 22.0928 29.5537C22.0871 29.5537 22.0814 29.5537 22.0758 29.5537C22.0702 29.5537 22.0645 29.5537 22.0589 29.5537C22.0533 29.5537 22.0477 29.5537 22.0421 29.5537C22.0365 29.5537 22.0309 29.5537 22.0254 29.5537C22.0198 29.5537 22.0142 29.5537 22.0087 29.5537C22.0031 29.5537 21.9976 29.5537 21.9921 29.5537C21.9866 29.5537 21.9811 29.5537 21.9756 29.5537C21.9701 29.5537 21.9646 29.5537 21.9591 29.5537C21.9536 29.5537 21.9482 29.5537 21.9427 29.5537C21.9373 29.5537 21.9318 29.5537 21.9264 29.5537C21.921 29.5537 21.9155 29.5537 21.9101 29.5537C21.9047 29.5537 21.8993 29.5537 21.894 29.5537C21.8886 29.5537 21.8832 29.5537 21.8778 29.5537C21.8725 29.5537 21.8671 29.5537 21.8618 29.5537C21.8565 29.5537 21.8512 29.5537 21.8458 29.5537C21.8405 29.5537 21.8352 29.5537 21.83 29.5537C21.8247 29.5537 21.8194 29.5537 21.8141 29.5537C21.8089 29.5537 21.8036 29.5537 21.7984 29.5537C21.7931 29.5537 21.7879 29.5537 21.7827 29.5537C21.7775 29.5537 21.7723 29.5537 21.7671 29.5537C21.7619 29.5537 21.7567 29.5537 21.7516 29.5537C21.7464 29.5537 21.7412 29.5537 21.7361 29.5537C21.731 29.5537 21.7258 29.5537 21.7207 29.5537C21.7156 29.5537 21.7105 29.5537 21.7054 29.5537C21.7003 29.5537 21.6952 29.5537 21.6902 29.5537C21.6851 29.5537 21.68 29.5537 21.675 29.5537C21.6699 29.5537 21.6649 29.5537 21.6599 29.5537C21.6549 29.5537 21.6499 29.5537 21.6449 29.5537C21.6399 29.5537 21.6349 29.5537 21.6299 29.5537C21.6249 29.5537 21.62 29.5537 21.615 29.5537C21.6101 29.5537 21.6052 29.5537 21.6002 29.5537C21.5953 29.5537 21.5904 29.5537 21.5855 29.5537C21.5806 29.5537 21.5757 29.5537 21.5709 29.5537C21.566 29.5537 21.5611 29.5537 21.5563 29.5537C21.5514 29.5537 21.5466 29.5537 21.5418 29.5537C21.5369 29.5537 21.5321 29.5537 21.5273 29.5537C21.5225 29.5537 21.5177 29.5537 21.513 29.5537C21.5082 29.5537 21.5034 29.5537 21.4987 29.5537C21.4939 29.5537 21.4892 29.5537 21.4845 29.5537C21.4798 29.5537 21.475 29.5537 21.4703 29.5537C21.4656 29.5537 21.461 29.5537 21.4563 29.5537C21.4516 29.5537 21.447 29.5537 21.4423 29.5537C21.4377 29.5537 21.433 29.5537 21.4284 29.5537C21.4238 29.5537 21.4192 29.5537 21.4146 29.5537C21.41 29.5537 21.4054 29.5537 21.4008 29.5537C21.3962 29.5537 21.3917 29.5537 21.3871 29.5537C21.3826 29.5537 21.378 29.5537 21.3735 29.5537C21.369 29.5537 21.3645 29.5537 21.36 29.5537C21.3555 29.5537 21.351 29.5537 21.3465 29.5537C21.3421 29.5537 21.3376 29.5537 21.3332 29.5537C21.3287 29.5537 21.3243 29.5537 21.3199 29.5537C21.3154 29.5537 21.311 29.5537 21.3066 29.5537C21.3022 29.5537 21.2979 29.5537 21.2935 29.5537C21.2891 29.5537 21.2848 29.5537 21.2804 29.5537C21.2761 29.5537 21.2718 29.5537 21.2674 29.5537C21.2631 29.5537 21.2588 29.5537 21.2545 29.5537C21.2502 29.5537 21.2459 29.5537 21.2417 29.5537C21.2374 29.5537 21.2332 29.5537 21.2289 29.5537C21.2247 29.5537 21.2205 29.5537 21.2162 29.5537C21.212 29.5537 21.2078 29.5537 21.2036 29.5537C21.1994 29.5537 21.1953 29.5537 21.1911 29.5537C21.1869 29.5537 21.1828 29.5537 21.1787 29.5537C21.1745 29.5537 21.1704 29.5537 21.1663 29.5537C21.1622 29.5537 21.1581 29.5537 21.154 29.5537C21.1499 29.5537 21.1458 29.5537 21.1418 29.5537C21.1377 29.5537 21.1337 29.5537 21.1297 29.5537C21.1256 29.5537 21.1216 29.5537 21.1176 29.5537C21.1136 29.5537 21.1096 29.5537 21.1056 29.5537C21.1016 29.5537 21.0977 29.5537 21.0937 29.5537C21.0898 29.5537 21.0858 29.5537 21.0819 29.5537C21.078 29.5537 21.0741 29.5537 21.0702 29.5537C21.0663 29.5537 21.0624 29.5537 21.0585 29.5537C21.0546 29.5537 21.0508 29.5537 21.0469 29.5537C21.0431 29.5537 21.0392 29.5537 21.0354 29.5537C21.0316 29.5537 21.0278 29.5537 21.024 29.5537C21.0202 29.5537 21.0164 29.5537 21.0127 29.5537C21.0089 29.5537 21.0051 29.5537 21.0014 29.5537C20.9977 29.5537 20.9939 29.5537 20.9902 29.5537C20.9865 29.5537 20.9828 29.5537 20.9791 29.5537C20.9754 29.5537 20.9718 29.5537 20.9681 29.5537C20.9644 29.5537 20.9608 29.5537 20.9572 29.5537C20.9535 29.5537 20.9499 29.5537 20.9463 29.5537C20.9427 29.5537 20.9391 29.5537 20.9355 29.5537C20.932 29.5537 20.9284 29.5537 20.9248 29.5537C20.9213 29.5537 20.9178 29.5537 20.9142 29.5537C20.9107 29.5537 20.9072 29.5537 20.9037 29.5537C20.9002 29.5537 20.8967 29.5537 20.8932 29.5537C20.8898 29.5537 20.8863 29.5537 20.8829 29.5537C20.8794 29.5537 20.876 29.5537 20.8726 29.5537C20.8692 29.5537 20.8658 29.5537 20.8624 29.5537C20.859 29.5537 20.8556 29.5537 20.8523 29.5537C20.8489 29.5537 20.8456 29.5537 20.8422 29.5537C20.8389 29.5537 20.8356 29.5537 20.8323 29.5537C20.829 29.5537 20.8257 29.5537 20.8224 29.5537C20.8191 29.5537 20.8159 29.5537 20.8126 29.5537C20.8094 29.5537 20.8061 29.5537 20.8029 29.5537C20.7997 29.5537 20.7965 29.5537 20.7933 29.5537C20.7901 29.5537 20.7869 29.5537 20.7837 29.5537C20.7806 29.5537 20.7774 29.5537 20.7743 29.5537C20.7711 29.5537 20.768 29.5537 20.7649 29.5537C20.7618 29.5537 20.7587 29.5537 20.7556 29.5537C20.7525 29.5537 20.7495 29.5537 20.7464 29.5537C20.7433 29.5537 20.7403 29.5537 20.7373 29.5537C20.7343 29.5537 20.7312 29.5537 20.7282 29.5537C20.7252 29.5537 20.7223 29.5537 20.7193 29.5537C20.7163 29.5537 20.7134 29.5537 20.7104 29.5537C20.7075 29.5537 20.7045 29.5537 20.7016 29.5537C20.6987 29.5537 20.6958 29.5537 20.6929 29.5537C20.69 29.5537 20.6872 29.5537 20.6843 29.5537C20.6814 29.5537 20.6786 29.5537 20.6758 29.5537C20.6729 29.5537 20.6701 29.5537 20.6673 29.5537V26.5537Z" fill="black"/>
</svg>
