<svg viewBox="0 0 60 60" fill="none" xmlns="http://www.w3.org/2000/svg">
<path d="M13.27 28.0537L28.27 36.714V19.3935L13.27 28.0537ZM46.2539 43.3852C46.2539 43.381 46.2539 43.3768 46.2539 43.3726C46.2539 43.3684 46.2539 43.3642 46.2539 43.36C46.2539 43.3557 46.2539 43.3515 46.2539 43.3472C46.2539 43.343 46.2539 43.3387 46.2539 43.3344C46.2539 43.3302 46.2539 43.3259 46.2539 43.3216C46.2539 43.3173 46.2539 43.313 46.2539 43.3087C46.2539 43.3043 46.2539 43.3 46.2539 43.2957C46.2539 43.2913 46.2539 43.287 46.2539 43.2826C46.2539 43.2783 46.2539 43.2739 46.2539 43.2695C46.2539 43.2652 46.2539 43.2608 46.2539 43.2564C46.2539 43.252 46.2539 43.2476 46.2539 43.2431C46.2539 43.2387 46.2539 43.2343 46.2539 43.2298C46.2539 43.2254 46.2539 43.221 46.2539 43.2165C46.2539 43.212 46.2539 43.2076 46.2539 43.2031C46.2539 43.1986 46.2539 43.1941 46.2539 43.1896C46.2539 43.1851 46.2539 43.1806 46.2539 43.1761C46.2539 43.1716 46.2539 43.167 46.2539 43.1625C46.2539 43.1579 46.2539 43.1534 46.2539 43.1488C46.2539 43.1443 46.2539 43.1397 46.2539 43.1351C46.2539 43.1305 46.2539 43.1259 46.2539 43.1213C46.2539 43.1167 46.2539 43.1121 46.2539 43.1075C46.2539 43.1029 46.2539 43.0982 46.2539 43.0936C46.2539 43.089 46.2539 43.0843 46.2539 43.0797C46.2539 43.075 46.2539 43.0703 46.2539 43.0656C46.2539 43.061 46.2539 43.0563 46.2539 43.0516C46.2539 43.0469 46.2539 43.0422 46.2539 43.0374C46.2539 43.0327 46.2539 43.028 46.2539 43.0233C46.2539 43.0185 46.2539 43.0138 46.2539 43.009C46.2539 43.0043 46.2539 42.9995 46.2539 42.9947C46.2539 42.9899 46.2539 42.9851 46.2539 42.9803C46.2539 42.9756 46.2539 42.9707 46.2539 42.9659C46.2539 42.9611 46.2539 42.9563 46.2539 42.9515C46.2539 42.9466 46.2539 42.9418 46.2539 42.9369C46.2539 42.9321 46.2539 42.9272 46.2539 42.9223C46.2539 42.9175 46.2539 42.9126 46.2539 42.9077C46.2539 42.9028 46.2539 42.8979 46.2539 42.893C46.2539 42.8881 46.2539 42.8832 46.2539 42.8782C46.2539 42.8733 46.2539 42.8684 46.2539 42.8634C46.2539 42.8585 46.2539 42.8535 46.2539 42.8486C46.2539 42.8436 46.2539 42.8386 46.2539 42.8336C46.2539 42.8287 46.2539 42.8237 46.2539 42.8187C46.2539 42.8137 46.2539 42.8086 46.2539 42.8036C46.2539 42.7986 46.2539 42.7936 46.2539 42.7885C46.2539 42.7835 46.2539 42.7785 46.2539 42.7734C46.2539 42.7683 46.2539 42.7633 46.2539 42.7582C46.2539 42.7531 46.2539 42.748 46.2539 42.743C46.2539 42.7379 46.2539 42.7328 46.2539 42.7277C46.2539 42.7225 46.2539 42.7174 46.2539 42.7123C46.2539 42.7072 46.2539 42.702 46.2539 42.6969C46.2539 42.6917 46.2539 42.6866 46.2539 42.6814C46.2539 42.6763 46.2539 42.6711 46.2539 42.6659C46.2539 42.6607 46.2539 42.6555 46.2539 42.6503C46.2539 42.6451 46.2539 42.6399 46.2539 42.6347C46.2539 42.6295 46.2539 42.6243 46.2539 42.6191C46.2539 42.6138 46.2539 42.6086 46.2539 42.6033C46.2539 42.5981 46.2539 42.5928 46.2539 42.5876C46.2539 42.5823 46.2539 42.577 46.2539 42.5717C46.2539 42.5664 46.2539 42.5612 46.2539 42.5559C46.2539 42.5506 46.2539 42.5452 46.2539 42.5399C46.2539 42.5346 46.2539 42.5293 46.2539 42.5239C46.2539 42.5186 46.2539 42.5133 46.2539 42.5079C46.2539 42.5026 46.2539 42.4972 46.2539 42.4918C46.2539 42.4865 46.2539 42.4811 46.2539 42.4757C46.2539 42.4703 46.2539 42.4649 46.2539 42.4595C46.2539 42.4541 46.2539 42.4487 46.2539 42.4433C46.2539 42.4379 46.2539 42.4325 46.2539 42.427C46.2539 42.4216 46.2539 42.4161 46.2539 42.4107C46.2539 42.4052 46.2539 42.3998 46.2539 42.3943C46.2539 42.3889 46.2539 42.3834 46.2539 42.3779C46.2539 42.3724 46.2539 42.3669 46.2539 42.3614C46.2539 42.3559 46.2539 42.3504 46.2539 42.3449C46.2539 42.3394 46.2539 42.3339 46.2539 42.3283C46.2539 42.3228 46.2539 42.3173 46.2539 42.3117C46.2539 42.3062 46.2539 42.3006 46.2539 42.2951C46.2539 42.2895 46.2539 42.2839 46.2539 42.2783C46.2539 42.2728 46.2539 42.2672 46.2539 42.2616C46.2539 42.256 46.2539 42.2504 46.2539 42.2448C46.2539 42.2392 46.2539 42.2336 46.2539 42.2279C46.2539 42.2223 46.2539 42.2167 46.2539 42.211C46.2539 42.2054 46.2539 42.1998 46.2539 42.1941C46.2539 42.1884 46.2539 42.1828 46.2539 42.1771C46.2539 42.1714 46.2539 42.1658 46.2539 42.1601C46.2539 42.1544 46.2539 42.1487 46.2539 42.143C46.2539 42.1373 46.2539 42.1316 46.2539 42.1259C46.2539 42.1202 46.2539 42.1144 46.2539 42.1087C46.2539 42.103 46.2539 42.0972 46.2539 42.0915C46.2539 42.0857 46.2539 42.08 46.2539 42.0742C46.2539 42.0685 46.2539 42.0627 46.2539 42.0569C46.2539 42.0511 46.2539 42.0454 46.2539 42.0396C46.2539 42.0338 46.2539 42.028 46.2539 42.0222C46.2539 42.0164 46.2539 42.0106 46.2539 42.0048C46.2539 41.9989 46.2539 41.9931 46.2539 41.9873C46.2539 41.9814 46.2539 41.9756 46.2539 41.9698C46.2539 41.9639 46.2539 41.9581 46.2539 41.9522C46.2539 41.9463 46.2539 41.9405 46.2539 41.9346C46.2539 41.9287 46.2539 41.9228 46.2539 41.9169C46.2539 41.911 46.2539 41.9051 46.2539 41.8992C46.2539 41.8933 46.2539 41.8874 46.2539 41.8815C46.2539 41.8756 46.2539 41.8697 46.2539 41.8637C46.2539 41.8578 46.2539 41.8519 46.2539 41.8459C46.2539 41.84 46.2539 41.834 46.2539 41.8281C46.2539 41.8221 46.2539 41.8161 46.2539 41.8102C46.2539 41.8042 46.2539 41.7982 46.2539 41.7922C46.2539 41.7862 46.2539 41.7803 46.2539 41.7743C46.2539 41.7683 46.2539 41.7622 46.2539 41.7562C46.2539 41.7502 46.2539 41.7442 46.2539 41.7382C46.2539 41.7321 46.2539 41.7261 46.2539 41.7201C46.2539 41.714 46.2539 41.708 46.2539 41.7019C46.2539 41.6959 46.2539 41.6898 46.2539 41.6838C46.2539 41.6777 46.2539 41.6716 46.2539 41.6655C46.2539 41.6595 46.2539 41.6534 46.2539 41.6473C46.2539 41.6412 46.2539 41.6351 46.2539 41.629C46.2539 41.6229 46.2539 41.6168 46.2539 41.6107C46.2539 41.6045 46.2539 41.5984 46.2539 41.5923C46.2539 41.5861 46.2539 41.58 46.2539 41.5739C46.2539 41.5677 46.2539 41.5616 46.2539 41.5554C46.2539 41.5493 46.2539 41.5431 46.2539 41.5369C46.2539 41.5308 46.2539 41.5246 46.2539 41.5184C46.2539 41.5122 46.2539 41.506 46.2539 41.4999C46.2539 41.4937 46.2539 41.4875 46.2539 41.4813C46.2539 41.475 46.2539 41.4688 46.2539 41.4626C46.2539 41.4564 46.2539 41.4502 46.2539 41.4439C46.2539 41.4377 46.2539 41.4315 46.2539 41.4252C46.2539 41.419 46.2539 41.4128 46.2539 41.4065C46.2539 41.4002 46.2539 41.394 46.2539 41.3877C46.2539 41.3815 46.2539 41.3752 46.2539 41.3689C46.2539 41.3626 46.2539 41.3563 46.2539 41.3501C46.2539 41.3438 46.2539 41.3375 46.2539 41.3312C46.2539 41.3249 46.2539 41.3186 46.2539 41.3123C46.2539 41.3059 46.2539 41.2996 46.2539 41.2933C46.2539 41.287 46.2539 41.2807 46.2539 41.2743C46.2539 41.268 46.2539 41.2616 46.2539 41.2553C46.2539 41.249 46.2539 41.2426 46.2539 41.2362C46.2539 41.2299 46.2539 41.2235 46.2539 41.2172C46.2539 41.2108 46.2539 41.2044 46.2539 41.198C46.2539 41.1916 46.2539 41.1853 46.2539 41.1789C46.2539 41.1725 46.2539 41.1661 46.2539 41.1597C46.2539 41.1533 46.2539 41.1469 46.2539 41.1405C46.2539 41.134 46.2539 41.1276 46.2539 41.1212C46.2539 41.1148 46.2539 41.1084 46.2539 41.1019C46.2539 41.0955 46.2539 41.089 46.2539 41.0826C46.2539 41.0762 46.2539 41.0697 46.2539 41.0633C46.2539 41.0568 46.2539 41.0503 46.2539 41.0439C46.2539 41.0374 46.2539 41.0309 46.2539 41.0245C46.2539 41.018 46.2539 41.0115 46.2539 41.005C46.2539 40.9985 46.2539 40.992 46.2539 40.9855C46.2539 40.979 46.2539 40.9725 46.2539 40.966C46.2539 40.9595 46.2539 40.953 46.2539 40.9465C46.2539 40.94 46.2539 40.9335 46.2539 40.9269C46.2539 40.9204 46.2539 40.9139 46.2539 40.9073C46.2539 40.9008 46.2539 40.8942 46.2539 40.8877C46.2539 40.8812 46.2539 40.8746 46.2539 40.868C46.2539 40.8615 46.2539 40.8549 46.2539 40.8484C46.2539 40.8418 46.2539 40.8352 46.2539 40.8286C46.2539 40.8221 46.2539 40.8155 46.2539 40.8089C46.2539 40.8023 46.2539 40.7957 46.2539 40.7891C46.2539 40.7825 46.2539 40.7759 46.2539 40.7693C46.2539 40.7627 46.2539 40.7561 46.2539 40.7495C46.2539 40.7429 46.2539 40.7363 46.2539 40.7296C46.2539 40.723 46.2539 40.7164 46.2539 40.7098C46.2539 40.7031 46.2539 40.6965 46.2539 40.6898C46.2539 40.6832 46.2539 40.6766 46.2539 40.6699C46.2539 40.6633 46.2539 40.6566 46.2539 40.6499C46.2539 40.6433 46.2539 40.6366 46.2539 40.6299C46.2539 40.6233 46.2539 40.6166 46.2539 40.6099C46.2539 40.6032 46.2539 40.5966 46.2539 40.5899C46.2539 40.5832 46.2539 40.5765 46.2539 40.5698C46.2539 40.5631 46.2539 40.5564 46.2539 40.5497C46.2539 40.543 46.2539 40.5363 46.2539 40.5296C46.2539 40.5229 46.2539 40.5162 46.2539 40.5094C46.2539 40.5027 46.2539 40.496 46.2539 40.4893C46.2539 40.4825 46.2539 40.4758 46.2539 40.4691C46.2539 40.4623 46.2539 40.4556 46.2539 40.4488C46.2539 40.4421 46.2539 40.4353 46.2539 40.4286C46.2539 40.4218 46.2539 40.4151 46.2539 40.4083C46.2539 40.4015 46.2539 40.3948 46.2539 40.388C46.2539 40.3812 46.2539 40.3745 46.2539 40.3677C46.2539 40.3609 46.2539 40.3541 46.2539 40.3473C46.2539 40.3406 46.2539 40.3338 46.2539 40.327C46.2539 40.3202 46.2539 40.3134 46.2539 40.3066C46.2539 40.2998 46.2539 40.293 46.2539 40.2862C46.2539 40.2794 46.2539 40.2726 46.2539 40.2657C46.2539 40.2589 46.2539 40.2521 46.2539 40.2453C46.2539 40.2385 46.2539 40.2316 46.2539 40.2248C46.2539 40.218 46.2539 40.2111 46.2539 40.2043C46.2539 40.1975 46.2539 40.1906 46.2539 40.1838C46.2539 40.1769 46.2539 40.1701 46.2539 40.1632C46.2539 40.1564 46.2539 40.1495 46.2539 40.1426C46.2539 40.1358 46.2539 40.1289 46.2539 40.1221C46.2539 40.1152 46.2539 40.1083 46.2539 40.1014C46.2539 40.0946 46.2539 40.0877 46.2539 40.0808C46.2539 40.0739 46.2539 40.0671 46.2539 40.0602C46.2539 40.0533 46.2539 40.0464 46.2539 40.0395C46.2539 40.0326 46.2539 40.0257 46.2539 40.0188C46.2539 40.0119 46.2539 40.005 46.2539 39.9981C46.2539 39.9912 46.2539 39.9843 46.2539 39.9774C46.2539 39.9704 46.2539 39.9635 46.2539 39.9566C46.2539 39.9497 46.2539 39.9428 46.2539 39.9358C46.2539 39.9289 46.2539 39.922 46.2539 39.9151C46.2539 39.9081 46.2539 39.9012 46.2539 39.8942C46.2539 39.8873 46.2539 39.8804 46.2539 39.8734C46.2539 39.8665 46.2539 39.8595 46.2539 39.8526C46.2539 39.8456 46.2539 39.8387 46.2539 39.8317C46.2539 39.8248 46.2539 39.8178 46.2539 39.8108C46.2539 39.8039 46.2539 39.7969 46.2539 39.7899C46.2539 39.783 46.2539 39.776 46.2539 39.769C46.2539 39.7621 46.2539 39.7551 46.2539 39.7481C46.2539 39.7411 46.2539 39.7341 46.2539 39.7272C46.2539 39.7202 46.2539 39.7132 46.2539 39.7062C46.2539 39.6992 46.2539 39.6922 46.2539 39.6852C46.2539 39.6782 46.2539 39.6712 46.2539 39.6642C46.2539 39.6572 46.2539 39.6502 46.2539 39.6432C46.2539 39.6362 46.2539 39.6292 46.2539 39.6222C46.2539 39.6152 46.2539 39.6082 46.2539 39.6011C46.2539 39.5941 46.2539 39.5871 46.2539 39.5801C46.2539 39.5731 46.2539 39.566 46.2539 39.559C46.2539 39.552 46.2539 39.545 46.2539 39.5379C46.2539 39.5309 46.2539 39.5239 46.2539 39.5168C46.2539 39.5098 46.2539 39.5027 46.2539 39.4957C46.2539 39.4887 46.2539 39.4816 46.2539 39.4746C46.2539 39.4675 46.2539 39.4605 46.2539 39.4534C46.2539 39.4464 46.2539 39.4393 46.2539 39.4323C46.2539 39.4252 46.2539 39.4182 46.2539 39.4111C46.2539 39.404 46.2539 39.397 46.2539 39.3899C46.2539 39.3829 46.2539 39.3758 46.2539 39.3687C46.2539 39.3617 46.2539 39.3546 46.2539 39.3475C46.2539 39.3404 46.2539 39.3334 46.2539 39.3263C46.2539 39.3192 46.2539 39.3121 46.2539 39.3051C46.2539 39.298 46.2539 39.2909 46.2539 39.2838C46.2539 39.2767 46.2539 39.2696 46.2539 39.2626C46.2539 39.2555 46.2539 39.2484 46.2539 39.2413C46.2539 39.2342 46.2539 39.2271 46.2539 39.22C46.2539 39.2129 46.2539 39.2058 46.2539 39.1987C46.2539 39.1916 46.2539 39.1845 46.2539 39.1774C46.2539 39.1703 46.2539 39.1632 46.2539 39.1561C46.2539 39.149 46.2539 39.1419 46.2539 39.1348C46.2539 39.1277 46.2539 39.1206 46.2539 39.1134C46.2539 39.1063 46.2539 39.0992 46.2539 39.0921C46.2539 39.085 46.2539 39.0779 46.2539 39.0708C46.2539 39.0636 46.2539 39.0565 46.2539 39.0494C46.2539 39.0423 46.2539 39.0351 46.2539 39.028C46.2539 39.0209 46.2539 39.0138 46.2539 39.0066C46.2539 38.9995 46.2539 38.9924 46.2539 38.9853C46.2539 38.9781 46.2539 38.971 46.2539 38.9639C46.2539 38.9567 46.2539 38.9496 46.2539 38.9424C46.2539 38.9353 46.2539 38.9282 46.2539 38.921C46.2539 38.9139 46.2539 38.9068 46.2539 38.8996C46.2539 38.8925 46.2539 38.8853 46.2539 38.8782C46.2539 38.871 46.2539 38.8639 46.2539 38.8567C46.2539 38.8496 46.2539 38.8425 46.2539 38.8353C46.2539 38.8282 46.2539 38.821 46.2539 38.8139C46.2539 38.8067 46.2539 38.7996 46.2539 38.7924C46.2539 38.7852 46.2539 38.7781 46.2539 38.7709C46.2539 38.7638 46.2539 38.7566 46.2539 38.7495C46.2539 38.7423 46.2539 38.7352 46.2539 38.728C46.2539 38.7208 46.2539 38.7137 46.2539 38.7065C46.2539 38.6993 46.2539 38.6922 46.2539 38.685C46.2539 38.6779 46.2539 38.6707 46.2539 38.6635C46.2539 38.6564 46.2539 38.6492 46.2539 38.642C46.2539 38.6349 46.2539 38.6277 46.2539 38.6205C46.2539 38.6134 46.2539 38.6062 46.2539 38.599C46.2539 38.5919 46.2539 38.5847 46.2539 38.5775C46.2539 38.5703 46.2539 38.5632 46.2539 38.556C46.2539 38.5488 46.2539 38.5417 46.2539 38.5345C46.2539 38.5273 46.2539 38.5201 46.2539 38.513C46.2539 38.5058 46.2539 38.4986 46.2539 38.4914C46.2539 38.4843 46.2539 38.4771 46.2539 38.4699C46.2539 38.4627 46.2539 38.4555 46.2539 38.4484C46.2539 38.4412 46.2539 38.434 46.2539 38.4268C46.2539 38.4197 46.2539 38.4125 46.2539 38.4053C46.2539 38.3981 46.2539 38.3909 46.2539 38.3838C46.2539 38.3766 46.2539 38.3694 46.2539 38.3622C46.2539 38.355 46.2539 38.3479 46.2539 38.3407C46.2539 38.3335 46.2539 38.3263 46.2539 38.3191C46.2539 38.3119 46.2539 38.3048 46.2539 38.2976C46.2539 38.2904 46.2539 38.2832 46.2539 38.276C46.2539 38.2688 46.2539 38.2617 46.2539 38.2545C46.2539 38.2473 46.2539 38.2401 46.2539 38.2329C46.2539 38.2257 46.2539 38.2186 46.2539 38.2114C46.2539 38.2042 46.2539 38.197 46.2539 38.1898C46.2539 38.1826 46.2539 38.1755 46.2539 38.1683C46.2539 38.1611 46.2539 38.1539 46.2539 38.1467C46.2539 38.1395 46.2539 38.1324 46.2539 38.1252C46.2539 38.118 46.2539 38.1108 46.2539 38.1036C46.2539 38.0964 46.2539 38.0893 46.2539 38.0821C46.2539 38.0749 46.2539 38.0677 46.2539 38.0605C46.2539 38.0534 46.2539 38.0462 46.2539 38.039C46.2539 38.0318 46.2539 38.0246 46.2539 38.0174C46.2539 38.0103 46.2539 38.0031 46.2539 37.9959C46.2539 37.9887 46.2539 37.9815 46.2539 37.9744C46.2539 37.9672 46.2539 37.96 46.2539 37.9528C46.2539 37.9456 46.2539 37.9385 46.2539 37.9313C46.2539 37.9241 46.2539 37.9169 46.2539 37.9098C46.2539 37.9026 46.2539 37.8954 46.2539 37.8882C46.2539 37.881 46.2539 37.8739 46.2539 37.8667C46.2539 37.8595 46.2539 37.8523 46.2539 37.8452C46.2539 37.838 46.2539 37.8308 46.2539 37.8236C46.2539 37.8165 46.2539 37.8093 46.2539 37.8021C46.2539 37.795 46.2539 37.7878 46.2539 37.7806C46.2539 37.7735 46.2539 37.7663 46.2539 37.7591C46.2539 37.7519 46.2539 37.7448 46.2539 37.7376C46.2539 37.7304 46.2539 37.7233 46.2539 37.7161C46.2539 37.7089 46.2539 37.7018 46.2539 37.6946C46.2539 37.6875 46.2539 37.6803 46.2539 37.6731C46.2539 37.666 46.2539 37.6588 46.2539 37.6516C46.2539 37.6445 46.2539 37.6373 46.2539 37.6302C46.2539 37.623 46.2539 37.6159 46.2539 37.6087C46.2539 37.6015 46.2539 37.5944 46.2539 37.5872C46.2539 37.5801 46.2539 37.5729 46.2539 37.5658C46.2539 37.5586 46.2539 37.5515 46.2539 37.5443C46.2539 37.5372 46.2539 37.53 46.2539 37.5229C46.2539 37.5157 46.2539 37.5086 46.2539 37.5014C46.2539 37.4943 46.2539 37.4872 46.2539 37.48C46.2539 37.4729 46.2539 37.4657 46.2539 37.4586C46.2539 37.4514 46.2539 37.4443 46.2539 37.4372C46.2539 37.43 46.2539 37.4229 46.2539 37.4158C46.2539 37.4086 46.2539 37.4015 46.2539 37.3944C46.2539 37.3872 46.2539 37.3801 46.2539 37.373C46.2539 37.3658 46.2539 37.3587 46.2539 37.3516C46.2539 37.3445 46.2539 37.3373 46.2539 37.3302C46.2539 37.3231 46.2539 37.316 46.2539 37.3089C46.2539 37.3017 46.2539 37.2946 46.2539 37.2875C46.2539 37.2804 46.2539 37.2733 46.2539 37.2662C46.2539 37.259 46.2539 37.2519 46.2539 37.2448C46.2539 37.2377 46.2539 37.2306 46.2539 37.2235C46.2539 37.2164 46.2539 37.2093 46.2539 37.2022C46.2539 37.1951 46.2539 37.188 46.2539 37.1809C46.2539 37.1738 46.2539 37.1667 46.2539 37.1596C46.2539 37.1525 46.2539 37.1454 46.2539 37.1383C46.2539 37.1312 46.2539 37.1241 46.2539 37.117C46.2539 37.1099 46.2539 37.1028 46.2539 37.0958C46.2539 37.0887 46.2539 37.0816 46.2539 37.0745C46.2539 37.0674 46.2539 37.0604 46.2539 37.0533C46.2539 37.0462 46.2539 37.0391 46.2539 37.0321C46.2539 37.025 46.2539 37.0179 46.2539 37.0108C46.2539 37.0038 46.2539 36.9967 46.2539 36.9896C46.2539 36.9826 46.2539 36.9755 46.2539 36.9684C46.2539 36.9614 46.2539 36.9543 46.2539 36.9473C46.2539 36.9402 46.2539 36.9332 46.2539 36.9261C46.2539 36.9191 46.2539 36.912 46.2539 36.905C46.2539 36.8979 46.2539 36.8909 46.2539 36.8838C46.2539 36.8768 46.2539 36.8698 46.2539 36.8627C46.2539 36.8557 46.2539 36.8486 46.2539 36.8416C46.2539 36.8346 46.2539 36.8275 46.2539 36.8205C46.2539 36.8135 46.2539 36.8065 46.2539 36.7994C46.2539 36.7924 46.2539 36.7854 46.2539 36.7784C46.2539 36.7714 46.2539 36.7643 46.2539 36.7573C46.2539 36.7503 46.2539 36.7433 46.2539 36.7363C46.2539 36.7293 46.2539 36.7223 46.2539 36.7153C46.2539 36.7083 46.2539 36.7013 46.2539 36.6943C46.2539 36.6873 46.2539 36.6803 46.2539 36.6733C46.2539 36.6663 46.2539 36.6593 46.2539 36.6523C46.2539 36.6453 46.2539 36.6384 46.2539 36.6314C46.2539 36.6244 46.2539 36.6174 46.2539 36.6104C46.2539 36.6035 46.2539 36.5965 46.2539 36.5895C46.2539 36.5826 46.2539 36.5756 46.2539 36.5686C46.2539 36.5617 46.2539 36.5547 46.2539 36.5477C46.2539 36.5408 46.2539 36.5338 46.2539 36.5269C46.2539 36.5199 46.2539 36.513 46.2539 36.506C46.2539 36.4991 46.2539 36.4921 46.2539 36.4852C46.2539 36.4783 46.2539 36.4713 46.2539 36.4644C46.2539 36.4575 46.2539 36.4505 46.2539 36.4436C46.2539 36.4367 46.2539 36.4297 46.2539 36.4228C46.2539 36.4159 46.2539 36.409 46.2539 36.4021C46.2539 36.3952 46.2539 36.3882 46.2539 36.3813C46.2539 36.3744 46.2539 36.3675 46.2539 36.3606C46.2539 36.3537 46.2539 36.3468 46.2539 36.3399C46.2539 36.333 46.2539 36.3261 46.2539 36.3192C46.2539 36.3123 46.2539 36.3055 46.2539 36.2986C46.2539 36.2917 46.2539 36.2848 46.2539 36.2779C46.2539 36.2711 46.2539 36.2642 46.2539 36.2573C46.2539 36.2505 46.2539 36.2436 46.2539 36.2367C46.2539 36.2299 46.2539 36.223 46.2539 36.2162C46.2539 36.2093 46.2539 36.2025 46.2539 36.1956C46.2539 36.1888 46.2539 36.1819 46.2539 36.1751C46.2539 36.1682 46.2539 36.1614 46.2539 36.1546C46.2539 36.1477 46.2539 36.1409 46.2539 36.1341C46.2539 36.1272 46.2539 36.1204 46.2539 36.1136C46.2539 36.1068 46.2539 36.1 46.2539 36.0932C46.2539 36.0864 46.2539 36.0795 46.2539 36.0727C46.2539 36.0659 46.2539 36.0591 46.2539 36.0523C46.2539 36.0456 46.2539 36.0388 46.2539 36.032C46.2539 36.0252 46.2539 36.0184 46.2539 36.0116C46.2539 36.0048 46.2539 35.9981 46.2539 35.9913C46.2539 35.9845 46.2539 35.9778 46.2539 35.971C46.2539 35.9642 46.2539 35.9575 46.2539 35.9507C46.2539 35.944 46.2539 35.9372 46.2539 35.9305C46.2539 35.9237 46.2539 35.917 46.2539 35.9102C46.2539 35.9035 46.2539 35.8967 46.2539 35.89C46.2539 35.8833 46.2539 35.8766 46.2539 35.8698C46.2539 35.8631 46.2539 35.8564 46.2539 35.8497C46.2539 35.843 46.2539 35.8363 46.2539 35.8295C46.2539 35.8228 46.2539 35.8161 46.2539 35.8094C46.2539 35.8027 46.2539 35.796 46.2539 35.7894C46.2539 35.7827 46.2539 35.776 46.2539 35.7693C46.2539 35.7626 46.2539 35.7559 46.2539 35.7493C46.2539 35.7426 46.2539 35.7359 46.2539 35.7293C46.2539 35.7226 46.2539 35.716 46.2539 35.7093C46.2539 35.7026 46.2539 35.696 46.2539 35.6894C46.2539 35.6827 46.2539 35.6761 46.2539 35.6694C46.2539 35.6628 46.2539 35.6562 46.2539 35.6495C46.2539 35.6429 46.2539 35.6363 46.2539 35.6297C46.2539 35.6231 46.2539 35.6164 46.2539 35.6098C46.2539 35.6032 46.2539 35.5966 46.2539 35.59C46.2539 35.5834 46.2539 35.5768 46.2539 35.5703C46.2539 35.5637 46.2539 35.5571 46.2539 35.5505C46.2539 35.5439 46.2539 35.5373 46.2539 35.5308C46.2539 35.5242 46.2539 35.5176 46.2539 35.5111C46.2539 35.5045 46.2539 35.498 46.2539 35.4914C46.2539 35.4849 46.2539 35.4783 46.2539 35.4718C46.2539 35.4652 46.2539 35.4587 46.2539 35.4522C46.2539 35.4456 46.2539 35.4391 46.2539 35.4326C46.2539 35.4261 46.2539 35.4196 46.2539 35.4131C46.2539 35.4065 46.2539 35.4 46.2539 35.3935C46.2539 35.387 46.2539 35.3805 46.2539 35.3741C46.2539 35.3676 46.2539 35.3611 46.2539 35.3546C46.2539 35.3481 46.2539 35.3416 46.2539 35.3352C46.2539 35.3287 46.2539 35.3222 46.2539 35.3158C46.2539 35.3093 46.2539 35.3029 46.2539 35.2964C46.2539 35.29 46.2539 35.2835 46.2539 35.2771C46.2539 35.2707 46.2539 35.2642 46.2539 35.2578C46.2539 35.2514 46.2539 35.245 46.2539 35.2385C46.2539 35.2321 46.2539 35.2257 46.2539 35.2193C46.2539 35.2129 46.2539 35.2065 46.2539 35.2001C46.2539 35.1937 46.2539 35.1873 46.2539 35.1809C46.2539 35.1746 46.2539 35.1682 46.2539 35.1618C46.2539 35.1554 46.2539 35.1491 46.2539 35.1427C46.2539 35.1364 46.2539 35.13 46.2539 35.1236C46.2539 35.1173 46.2539 35.111 46.2539 35.1046C46.2539 35.0983 46.2539 35.0919 46.2539 35.0856C46.2539 35.0793 46.2539 35.073 46.2539 35.0667C46.2539 35.0603 46.2539 35.054 46.2539 35.0477C46.2539 35.0414 46.2539 35.0351 46.2539 35.0288C46.2539 35.0225 46.2539 35.0163 46.2539 35.01C46.2539 35.0037 46.2539 34.9974 46.2539 34.9912C46.2539 34.9849 46.2539 34.9786 46.2539 34.9724C46.2539 34.9661 46.2539 34.9599 46.2539 34.9536C46.2539 34.9474 46.2539 34.9411 46.2539 34.9349C46.2539 34.9287 46.2539 34.9224 46.2539 34.9162C46.2539 34.91 46.2539 34.9038 46.2539 34.8976C46.2539 34.8914 46.2539 34.8852 46.2539 34.879C46.2539 34.8728 46.2539 34.8666 46.2539 34.8604C46.2539 34.8542 46.2539 34.848 46.2539 34.8419C46.2539 34.8357 46.2539 34.8295 46.2539 34.8234C46.2539 34.8172 46.2539 34.811 46.2539 34.8049C46.2539 34.7988 46.2539 34.7926 46.2539 34.7865C46.2539 34.7803 46.2539 34.7742 46.2539 34.7681C46.2539 34.762 46.2539 34.7559 46.2539 34.7498C46.2539 34.7436 46.2539 34.7375 46.2539 34.7314C46.2539 34.7254 46.2539 34.7193 46.2539 34.7132C46.2539 34.7071 46.2539 34.701 46.2539 34.695C46.2539 34.6889 46.2539 34.6828 46.2539 34.6768C46.2539 34.6707 46.2539 34.6647 46.2539 34.6586C46.2539 34.6526 46.2539 34.6465 46.2539 34.6405C46.2539 34.6345 46.2539 34.6284 46.2539 34.6224C46.2539 34.6164 46.2539 34.6104 46.2539 34.6044C46.2539 34.5984 46.2539 34.5924 46.2539 34.5864C46.2539 34.5804 46.2539 34.5744 46.2539 34.5685C46.2539 34.5625 46.2539 34.5565 46.2539 34.5505C46.2539 34.5446 46.2539 34.5386 46.2539 34.5327C46.2539 34.5267 46.2539 34.5208 46.2539 34.5149C46.2539 34.5089 46.2539 34.503 46.2539 34.4971C46.2539 34.4911 46.2539 34.4852 46.2539 34.4793C46.2539 34.4734 46.2539 34.4675 46.2539 34.4616C46.2539 34.4557 46.2539 34.4498 46.2539 34.444C46.2539 34.4381 46.2539 34.4322 46.2539 34.4263C46.2539 34.4205 46.2539 34.4146 46.2539 34.4088C46.2539 34.4029 46.2539 34.3971 46.2539 34.3912C46.2539 34.3854 46.2539 34.3796 46.2539 34.3737C46.2539 34.3679 46.2539 34.3621 46.2539 34.3563C46.2539 34.3505 46.2539 34.3447 46.2539 34.3389C46.2539 34.3331 46.2539 34.3273 46.2539 34.3215C46.2539 34.3158 46.2539 34.31 46.2539 34.3042C46.2539 34.2985 46.2539 34.2927 46.2539 34.2869C46.2539 34.2812 46.2539 34.2755 46.2539 34.2697C46.2539 34.264 46.2539 34.2583 46.2539 34.2525C46.2539 34.2468 46.2539 34.2411 46.2539 34.2354C46.2539 34.2297 46.2539 34.224 46.2539 34.2183C46.2539 34.2126 46.2539 34.2069 46.2539 34.2013C46.2539 34.1956 46.2539 34.1899 46.2539 34.1843C46.2539 34.1786 46.2539 34.1729 46.2539 34.1673C46.2539 34.1617 46.2539 34.156 46.2539 34.1504C46.2539 34.1448 46.2539 34.1391 46.2539 34.1335C46.2539 34.1279 46.2539 34.1223 46.2539 34.1167C46.2539 34.1111 46.2539 34.1055 46.2539 34.0999C46.2539 34.0944 46.2539 34.0888 46.2539 34.0832C46.2539 34.0776 46.2539 34.0721 46.2539 34.0665C46.2539 34.061 46.2539 34.0554 46.2539 34.0499C46.2539 34.0444 46.2539 34.0388 46.2539 34.0333C46.2539 34.0278 46.2539 34.0223 46.2539 34.0168C46.2539 34.0113 46.2539 34.0058 46.2539 34.0003C46.2539 33.9948 46.2539 33.9893 46.2539 33.9839C46.2539 33.9784 46.2539 33.9729 46.2539 33.9675C46.2539 33.962 46.2539 33.9566 46.2539 33.9511C46.2539 33.9457 46.2539 33.9403 46.2539 33.9348C46.2539 33.9294 46.2539 33.924 46.2539 33.9186C46.2539 33.9132 46.2539 33.9078 46.2539 33.9024C46.2539 33.897 46.2539 33.8916 46.2539 33.8863C46.2539 33.8809 46.2539 33.8755 46.2539 33.8702C46.2539 33.8648 46.2539 33.8595 46.2539 33.8541C46.2539 33.8488 46.2539 33.8435 46.2539 33.8381C46.2539 33.8328 46.2539 33.8275 46.2539 33.8222C46.2539 33.8169 46.2539 33.8116 46.2539 33.8063C46.2539 33.801 46.2539 33.7957 46.2539 33.7905C46.2539 33.7852 46.2539 33.7799 46.2539 33.7747C46.2539 33.7694 46.2539 33.7642 46.2539 33.7589C46.2539 33.7537 46.2539 33.7485 46.2539 33.7433C46.2539 33.738 46.2539 33.7328 46.2539 33.7276C46.2539 33.7224 46.2539 33.7172 46.2539 33.712C46.2539 33.7069 46.2539 33.7017 46.2539 33.6965C46.2539 33.6913 46.2539 33.6862 46.2539 33.681C46.2539 33.6759 46.2539 33.6707 46.2539 33.6656H43.2539C43.2539 33.6707 43.2539 33.6759 43.2539 33.681C43.2539 33.6862 43.2539 33.6913 43.2539 33.6965C43.2539 33.7017 43.2539 33.7069 43.2539 33.712C43.2539 33.7172 43.2539 33.7224 43.2539 33.7276C43.2539 33.7328 43.2539 33.738 43.2539 33.7433C43.2539 33.7485 43.2539 33.7537 43.2539 33.7589C43.2539 33.7642 43.2539 33.7694 43.2539 33.7747C43.2539 33.7799 43.2539 33.7852 43.2539 33.7905C43.2539 33.7957 43.2539 33.801 43.2539 33.8063C43.2539 33.8116 43.2539 33.8169 43.2539 33.8222C43.2539 33.8275 43.2539 33.8328 43.2539 33.8381C43.2539 33.8435 43.2539 33.8488 43.2539 33.8541C43.2539 33.8595 43.2539 33.8648 43.2539 33.8702C43.2539 33.8755 43.2539 33.8809 43.2539 33.8863C43.2539 33.8916 43.2539 33.897 43.2539 33.9024C43.2539 33.9078 43.2539 33.9132 43.2539 33.9186C43.2539 33.924 43.2539 33.9294 43.2539 33.9348C43.2539 33.9403 43.2539 33.9457 43.2539 33.9511C43.2539 33.9566 43.2539 33.962 43.2539 33.9675C43.2539 33.9729 43.2539 33.9784 43.2539 33.9839C43.2539 33.9893 43.2539 33.9948 43.2539 34.0003C43.2539 34.0058 43.2539 34.0113 43.2539 34.0168C43.2539 34.0223 43.2539 34.0278 43.2539 34.0333C43.2539 34.0388 43.2539 34.0444 43.2539 34.0499C43.2539 34.0554 43.2539 34.061 43.2539 34.0665C43.2539 34.0721 43.2539 34.0776 43.2539 34.0832C43.2539 34.0888 43.2539 34.0944 43.2539 34.0999C43.2539 34.1055 43.2539 34.1111 43.2539 34.1167C43.2539 34.1223 43.2539 34.1279 43.2539 34.1335C43.2539 34.1391 43.2539 34.1448 43.2539 34.1504C43.2539 34.156 43.2539 34.1617 43.2539 34.1673C43.2539 34.1729 43.2539 34.1786 43.2539 34.1843C43.2539 34.1899 43.2539 34.1956 43.2539 34.2013C43.2539 34.2069 43.2539 34.2126 43.2539 34.2183C43.2539 34.224 43.2539 34.2297 43.2539 34.2354C43.2539 34.2411 43.2539 34.2468 43.2539 34.2525C43.2539 34.2583 43.2539 34.264 43.2539 34.2697C43.2539 34.2755 43.2539 34.2812 43.2539 34.2869C43.2539 34.2927 43.2539 34.2985 43.2539 34.3042C43.2539 34.31 43.2539 34.3158 43.2539 34.3215C43.2539 34.3273 43.2539 34.3331 43.2539 34.3389C43.2539 34.3447 43.2539 34.3505 43.2539 34.3563C43.2539 34.3621 43.2539 34.3679 43.2539 34.3737C43.2539 34.3796 43.2539 34.3854 43.2539 34.3912C43.2539 34.3971 43.2539 34.4029 43.2539 34.4088C43.2539 34.4146 43.2539 34.4205 43.2539 34.4263C43.2539 34.4322 43.2539 34.4381 43.2539 34.444C43.2539 34.4498 43.2539 34.4557 43.2539 34.4616C43.2539 34.4675 43.2539 34.4734 43.2539 34.4793C43.2539 34.4852 43.2539 34.4911 43.2539 34.4971C43.2539 34.503 43.2539 34.5089 43.2539 34.5149C43.2539 34.5208 43.2539 34.5267 43.2539 34.5327C43.2539 34.5386 43.2539 34.5446 43.2539 34.5505C43.2539 34.5565 43.2539 34.5625 43.2539 34.5685C43.2539 34.5744 43.2539 34.5804 43.2539 34.5864C43.2539 34.5924 43.2539 34.5984 43.2539 34.6044C43.2539 34.6104 43.2539 34.6164 43.2539 34.6224C43.2539 34.6284 43.2539 34.6345 43.2539 34.6405C43.2539 34.6465 43.2539 34.6526 43.2539 34.6586C43.2539 34.6647 43.2539 34.6707 43.2539 34.6768C43.2539 34.6828 43.2539 34.6889 43.2539 34.695C43.2539 34.701 43.2539 34.7071 43.2539 34.7132C43.2539 34.7193 43.2539 34.7254 43.2539 34.7314C43.2539 34.7375 43.2539 34.7436 43.2539 34.7498C43.2539 34.7559 43.2539 34.762 43.2539 34.7681C43.2539 34.7742 43.2539 34.7803 43.2539 34.7865C43.2539 34.7926 43.2539 34.7988 43.2539 34.8049C43.2539 34.811 43.2539 34.8172 43.2539 34.8234C43.2539 34.8295 43.2539 34.8357 43.2539 34.8419C43.2539 34.848 43.2539 34.8542 43.2539 34.8604C43.2539 34.8666 43.2539 34.8728 43.2539 34.879C43.2539 34.8852 43.2539 34.8914 43.2539 34.8976C43.2539 34.9038 43.2539 34.91 43.2539 34.9162C43.2539 34.9224 43.2539 34.9287 43.2539 34.9349C43.2539 34.9411 43.2539 34.9474 43.2539 34.9536C43.2539 34.9599 43.2539 34.9661 43.2539 34.9724C43.2539 34.9786 43.2539 34.9849 43.2539 34.9912C43.2539 34.9974 43.2539 35.0037 43.2539 35.01C43.2539 35.0163 43.2539 35.0225 43.2539 35.0288C43.2539 35.0351 43.2539 35.0414 43.2539 35.0477C43.2539 35.054 43.2539 35.0603 43.2539 35.0667C43.2539 35.073 43.2539 35.0793 43.2539 35.0856C43.2539 35.0919 43.2539 35.0983 43.2539 35.1046C43.2539 35.111 43.2539 35.1173 43.2539 35.1236C43.2539 35.13 43.2539 35.1364 43.2539 35.1427C43.2539 35.1491 43.2539 35.1554 43.2539 35.1618C43.2539 35.1682 43.2539 35.1746 43.2539 35.1809C43.2539 35.1873 43.2539 35.1937 43.2539 35.2001C43.2539 35.2065 43.2539 35.2129 43.2539 35.2193C43.2539 35.2257 43.2539 35.2321 43.2539 35.2385C43.2539 35.245 43.2539 35.2514 43.2539 35.2578C43.2539 35.2642 43.2539 35.2707 43.2539 35.2771C43.2539 35.2835 43.2539 35.29 43.2539 35.2964C43.2539 35.3029 43.2539 35.3093 43.2539 35.3158C43.2539 35.3222 43.2539 35.3287 43.2539 35.3352C43.2539 35.3416 43.2539 35.3481 43.2539 35.3546C43.2539 35.3611 43.2539 35.3676 43.2539 35.3741C43.2539 35.3805 43.2539 35.387 43.2539 35.3935C43.2539 35.4 43.2539 35.4065 43.2539 35.4131C43.2539 35.4196 43.2539 35.4261 43.2539 35.4326C43.2539 35.4391 43.2539 35.4456 43.2539 35.4522C43.2539 35.4587 43.2539 35.4652 43.2539 35.4718C43.2539 35.4783 43.2539 35.4849 43.2539 35.4914C43.2539 35.498 43.2539 35.5045 43.2539 35.5111C43.2539 35.5176 43.2539 35.5242 43.2539 35.5308C43.2539 35.5373 43.2539 35.5439 43.2539 35.5505C43.2539 35.5571 43.2539 35.5637 43.2539 35.5703C43.2539 35.5768 43.2539 35.5834 43.2539 35.59C43.2539 35.5966 43.2539 35.6032 43.2539 35.6098C43.2539 35.6164 43.2539 35.6231 43.2539 35.6297C43.2539 35.6363 43.2539 35.6429 43.2539 35.6495C43.2539 35.6562 43.2539 35.6628 43.2539 35.6694C43.2539 35.6761 43.2539 35.6827 43.2539 35.6894C43.2539 35.696 43.2539 35.7026 43.2539 35.7093C43.2539 35.716 43.2539 35.7226 43.2539 35.7293C43.2539 35.7359 43.2539 35.7426 43.2539 35.7493C43.2539 35.7559 43.2539 35.7626 43.2539 35.7693C43.2539 35.776 43.2539 35.7827 43.2539 35.7894C43.2539 35.796 43.2539 35.8027 43.2539 35.8094C43.2539 35.8161 43.2539 35.8228 43.2539 35.8295C43.2539 35.8363 43.2539 35.843 43.2539 35.8497C43.2539 35.8564 43.2539 35.8631 43.2539 35.8698C43.2539 35.8766 43.2539 35.8833 43.2539 35.89C43.2539 35.8967 43.2539 35.9035 43.2539 35.9102C43.2539 35.917 43.2539 35.9237 43.2539 35.9305C43.2539 35.9372 43.2539 35.944 43.2539 35.9507C43.2539 35.9575 43.2539 35.9642 43.2539 35.971C43.2539 35.9778 43.2539 35.9845 43.2539 35.9913C43.2539 35.9981 43.2539 36.0048 43.2539 36.0116C43.2539 36.0184 43.2539 36.0252 43.2539 36.032C43.2539 36.0388 43.2539 36.0456 43.2539 36.0523C43.2539 36.0591 43.2539 36.0659 43.2539 36.0727C43.2539 36.0795 43.2539 36.0864 43.2539 36.0932C43.2539 36.1 43.2539 36.1068 43.2539 36.1136C43.2539 36.1204 43.2539 36.1272 43.2539 36.1341C43.2539 36.1409 43.2539 36.1477 43.2539 36.1546C43.2539 36.1614 43.2539 36.1682 43.2539 36.1751C43.2539 36.1819 43.2539 36.1888 43.2539 36.1956C43.2539 36.2025 43.2539 36.2093 43.2539 36.2162C43.2539 36.223 43.2539 36.2299 43.2539 36.2367C43.2539 36.2436 43.2539 36.2505 43.2539 36.2573C43.2539 36.2642 43.2539 36.2711 43.2539 36.2779C43.2539 36.2848 43.2539 36.2917 43.2539 36.2986C43.2539 36.3055 43.2539 36.3123 43.2539 36.3192C43.2539 36.3261 43.2539 36.333 43.2539 36.3399C43.2539 36.3468 43.2539 36.3537 43.2539 36.3606C43.2539 36.3675 43.2539 36.3744 43.2539 36.3813C43.2539 36.3882 43.2539 36.3952 43.2539 36.4021C43.2539 36.409 43.2539 36.4159 43.2539 36.4228C43.2539 36.4297 43.2539 36.4367 43.2539 36.4436C43.2539 36.4505 43.2539 36.4575 43.2539 36.4644C43.2539 36.4713 43.2539 36.4783 43.2539 36.4852C43.2539 36.4921 43.2539 36.4991 43.2539 36.506C43.2539 36.513 43.2539 36.5199 43.2539 36.5269C43.2539 36.5338 43.2539 36.5408 43.2539 36.5477C43.2539 36.5547 43.2539 36.5617 43.2539 36.5686C43.2539 36.5756 43.2539 36.5826 43.2539 36.5895C43.2539 36.5965 43.2539 36.6035 43.2539 36.6104C43.2539 36.6174 43.2539 36.6244 43.2539 36.6314C43.2539 36.6384 43.2539 36.6453 43.2539 36.6523C43.2539 36.6593 43.2539 36.6663 43.2539 36.6733C43.2539 36.6803 43.2539 36.6873 43.2539 36.6943C43.2539 36.7013 43.2539 36.7083 43.2539 36.7153C43.2539 36.7223 43.2539 36.7293 43.2539 36.7363C43.2539 36.7433 43.2539 36.7503 43.2539 36.7573C43.2539 36.7643 43.2539 36.7714 43.2539 36.7784C43.2539 36.7854 43.2539 36.7924 43.2539 36.7994C43.2539 36.8065 43.2539 36.8135 43.2539 36.8205C43.2539 36.8275 43.2539 36.8346 43.2539 36.8416C43.2539 36.8486 43.2539 36.8557 43.2539 36.8627C43.2539 36.8698 43.2539 36.8768 43.2539 36.8838C43.2539 36.8909 43.2539 36.8979 43.2539 36.905C43.2539 36.912 43.2539 36.9191 43.2539 36.9261C43.2539 36.9332 43.2539 36.9402 43.2539 36.9473C43.2539 36.9543 43.2539 36.9614 43.2539 36.9684C43.2539 36.9755 43.2539 36.9826 43.2539 36.9896C43.2539 36.9967 43.2539 37.0038 43.2539 37.0108C43.2539 37.0179 43.2539 37.025 43.2539 37.0321C43.2539 37.0391 43.2539 37.0462 43.2539 37.0533C43.2539 37.0604 43.2539 37.0674 43.2539 37.0745C43.2539 37.0816 43.2539 37.0887 43.2539 37.0958C43.2539 37.1028 43.2539 37.1099 43.2539 37.117C43.2539 37.1241 43.2539 37.1312 43.2539 37.1383C43.2539 37.1454 43.2539 37.1525 43.2539 37.1596C43.2539 37.1667 43.2539 37.1738 43.2539 37.1809C43.2539 37.188 43.2539 37.1951 43.2539 37.2022C43.2539 37.2093 43.2539 37.2164 43.2539 37.2235C43.2539 37.2306 43.2539 37.2377 43.2539 37.2448C43.2539 37.2519 43.2539 37.259 43.2539 37.2662C43.2539 37.2733 43.2539 37.2804 43.2539 37.2875C43.2539 37.2946 43.2539 37.3017 43.2539 37.3089C43.2539 37.316 43.2539 37.3231 43.2539 37.3302C43.2539 37.3373 43.2539 37.3445 43.2539 37.3516C43.2539 37.3587 43.2539 37.3658 43.2539 37.373C43.2539 37.3801 43.2539 37.3872 43.2539 37.3944C43.2539 37.4015 43.2539 37.4086 43.2539 37.4158C43.2539 37.4229 43.2539 37.43 43.2539 37.4372C43.2539 37.4443 43.2539 37.4514 43.2539 37.4586C43.2539 37.4657 43.2539 37.4729 43.2539 37.48C43.2539 37.4872 43.2539 37.4943 43.2539 37.5014C43.2539 37.5086 43.2539 37.5157 43.2539 37.5229C43.2539 37.53 43.2539 37.5372 43.2539 37.5443C43.2539 37.5515 43.2539 37.5586 43.2539 37.5658C43.2539 37.5729 43.2539 37.5801 43.2539 37.5872C43.2539 37.5944 43.2539 37.6015 43.2539 37.6087C43.2539 37.6159 43.2539 37.623 43.2539 37.6302C43.2539 37.6373 43.2539 37.6445 43.2539 37.6516C43.2539 37.6588 43.2539 37.666 43.2539 37.6731C43.2539 37.6803 43.2539 37.6875 43.2539 37.6946C43.2539 37.7018 43.2539 37.7089 43.2539 37.7161C43.2539 37.7233 43.2539 37.7304 43.2539 37.7376C43.2539 37.7448 43.2539 37.7519 43.2539 37.7591C43.2539 37.7663 43.2539 37.7735 43.2539 37.7806C43.2539 37.7878 43.2539 37.795 43.2539 37.8021C43.2539 37.8093 43.2539 37.8165 43.2539 37.8236C43.2539 37.8308 43.2539 37.838 43.2539 37.8452C43.2539 37.8523 43.2539 37.8595 43.2539 37.8667C43.2539 37.8739 43.2539 37.881 43.2539 37.8882C43.2539 37.8954 43.2539 37.9026 43.2539 37.9098C43.2539 37.9169 43.2539 37.9241 43.2539 37.9313C43.2539 37.9385 43.2539 37.9456 43.2539 37.9528C43.2539 37.96 43.2539 37.9672 43.2539 37.9744C43.2539 37.9815 43.2539 37.9887 43.2539 37.9959C43.2539 38.0031 43.2539 38.0103 43.2539 38.0174C43.2539 38.0246 43.2539 38.0318 43.2539 38.039C43.2539 38.0462 43.2539 38.0534 43.2539 38.0605C43.2539 38.0677 43.2539 38.0749 43.2539 38.0821C43.2539 38.0893 43.2539 38.0964 43.2539 38.1036C43.2539 38.1108 43.2539 38.118 43.2539 38.1252C43.2539 38.1324 43.2539 38.1395 43.2539 38.1467C43.2539 38.1539 43.2539 38.1611 43.2539 38.1683C43.2539 38.1755 43.2539 38.1826 43.2539 38.1898C43.2539 38.197 43.2539 38.2042 43.2539 38.2114C43.2539 38.2186 43.2539 38.2257 43.2539 38.2329C43.2539 38.2401 43.2539 38.2473 43.2539 38.2545C43.2539 38.2617 43.2539 38.2688 43.2539 38.276C43.2539 38.2832 43.2539 38.2904 43.2539 38.2976C43.2539 38.3048 43.2539 38.3119 43.2539 38.3191C43.2539 38.3263 43.2539 38.3335 43.2539 38.3407C43.2539 38.3479 43.2539 38.355 43.2539 38.3622C43.2539 38.3694 43.2539 38.3766 43.2539 38.3838C43.2539 38.3909 43.2539 38.3981 43.2539 38.4053C43.2539 38.4125 43.2539 38.4197 43.2539 38.4268C43.2539 38.434 43.2539 38.4412 43.2539 38.4484C43.2539 38.4555 43.2539 38.4627 43.2539 38.4699C43.2539 38.4771 43.2539 38.4843 43.2539 38.4914C43.2539 38.4986 43.2539 38.5058 43.2539 38.513C43.2539 38.5201 43.2539 38.5273 43.2539 38.5345C43.2539 38.5417 43.2539 38.5488 43.2539 38.556C43.2539 38.5632 43.2539 38.5703 43.2539 38.5775C43.2539 38.5847 43.2539 38.5919 43.2539 38.599C43.2539 38.6062 43.2539 38.6134 43.2539 38.6205C43.2539 38.6277 43.2539 38.6349 43.2539 38.642C43.2539 38.6492 43.2539 38.6564 43.2539 38.6635C43.2539 38.6707 43.2539 38.6779 43.2539 38.685C43.2539 38.6922 43.2539 38.6993 43.2539 38.7065C43.2539 38.7137 43.2539 38.7208 43.2539 38.728C43.2539 38.7352 43.2539 38.7423 43.2539 38.7495C43.2539 38.7566 43.2539 38.7638 43.2539 38.7709C43.2539 38.7781 43.2539 38.7852 43.2539 38.7924C43.2539 38.7996 43.2539 38.8067 43.2539 38.8139C43.2539 38.821 43.2539 38.8282 43.2539 38.8353C43.2539 38.8425 43.2539 38.8496 43.2539 38.8567C43.2539 38.8639 43.2539 38.871 43.2539 38.8782C43.2539 38.8853 43.2539 38.8925 43.2539 38.8996C43.2539 38.9068 43.2539 38.9139 43.2539 38.921C43.2539 38.9282 43.2539 38.9353 43.2539 38.9424C43.2539 38.9496 43.2539 38.9567 43.2539 38.9639C43.2539 38.971 43.2539 38.9781 43.2539 38.9853C43.2539 38.9924 43.2539 38.9995 43.2539 39.0066C43.2539 39.0138 43.2539 39.0209 43.2539 39.028C43.2539 39.0351 43.2539 39.0423 43.2539 39.0494C43.2539 39.0565 43.2539 39.0636 43.2539 39.0708C43.2539 39.0779 43.2539 39.085 43.2539 39.0921C43.2539 39.0992 43.2539 39.1063 43.2539 39.1134C43.2539 39.1206 43.2539 39.1277 43.2539 39.1348C43.2539 39.1419 43.2539 39.149 43.2539 39.1561C43.2539 39.1632 43.2539 39.1703 43.2539 39.1774C43.2539 39.1845 43.2539 39.1916 43.2539 39.1987C43.2539 39.2058 43.2539 39.2129 43.2539 39.22C43.2539 39.2271 43.2539 39.2342 43.2539 39.2413C43.2539 39.2484 43.2539 39.2555 43.2539 39.2626C43.2539 39.2696 43.2539 39.2767 43.2539 39.2838C43.2539 39.2909 43.2539 39.298 43.2539 39.3051C43.2539 39.3121 43.2539 39.3192 43.2539 39.3263C43.2539 39.3334 43.2539 39.3404 43.2539 39.3475C43.2539 39.3546 43.2539 39.3617 43.2539 39.3687C43.2539 39.3758 43.2539 39.3829 43.2539 39.3899C43.2539 39.397 43.2539 39.404 43.2539 39.4111C43.2539 39.4182 43.2539 39.4252 43.2539 39.4323C43.2539 39.4393 43.2539 39.4464 43.2539 39.4534C43.2539 39.4605 43.2539 39.4675 43.2539 39.4746C43.2539 39.4816 43.2539 39.4887 43.2539 39.4957C43.2539 39.5027 43.2539 39.5098 43.2539 39.5168C43.2539 39.5239 43.2539 39.5309 43.2539 39.5379C43.2539 39.545 43.2539 39.552 43.2539 39.559C43.2539 39.566 43.2539 39.5731 43.2539 39.5801C43.2539 39.5871 43.2539 39.5941 43.2539 39.6011C43.2539 39.6082 43.2539 39.6152 43.2539 39.6222C43.2539 39.6292 43.2539 39.6362 43.2539 39.6432C43.2539 39.6502 43.2539 39.6572 43.2539 39.6642C43.2539 39.6712 43.2539 39.6782 43.2539 39.6852C43.2539 39.6922 43.2539 39.6992 43.2539 39.7062C43.2539 39.7132 43.2539 39.7202 43.2539 39.7272C43.2539 39.7341 43.2539 39.7411 43.2539 39.7481C43.2539 39.7551 43.2539 39.7621 43.2539 39.769C43.2539 39.776 43.2539 39.783 43.2539 39.7899C43.2539 39.7969 43.2539 39.8039 43.2539 39.8108C43.2539 39.8178 43.2539 39.8248 43.2539 39.8317C43.2539 39.8387 43.2539 39.8456 43.2539 39.8526C43.2539 39.8595 43.2539 39.8665 43.2539 39.8734C43.2539 39.8804 43.2539 39.8873 43.2539 39.8942C43.2539 39.9012 43.2539 39.9081 43.2539 39.9151C43.2539 39.922 43.2539 39.9289 43.2539 39.9358C43.2539 39.9428 43.2539 39.9497 43.2539 39.9566C43.2539 39.9635 43.2539 39.9704 43.2539 39.9774C43.2539 39.9843 43.2539 39.9912 43.2539 39.9981C43.2539 40.005 43.2539 40.0119 43.2539 40.0188C43.2539 40.0257 43.2539 40.0326 43.2539 40.0395C43.2539 40.0464 43.2539 40.0533 43.2539 40.0602C43.2539 40.0671 43.2539 40.0739 43.2539 40.0808C43.2539 40.0877 43.2539 40.0946 43.2539 40.1014C43.2539 40.1083 43.2539 40.1152 43.2539 40.1221C43.2539 40.1289 43.2539 40.1358 43.2539 40.1426C43.2539 40.1495 43.2539 40.1564 43.2539 40.1632C43.2539 40.1701 43.2539 40.1769 43.2539 40.1838C43.2539 40.1906 43.2539 40.1975 43.2539 40.2043C43.2539 40.2111 43.2539 40.218 43.2539 40.2248C43.2539 40.2316 43.2539 40.2385 43.2539 40.2453C43.2539 40.2521 43.2539 40.2589 43.2539 40.2657C43.2539 40.2726 43.2539 40.2794 43.2539 40.2862C43.2539 40.293 43.2539 40.2998 43.2539 40.3066C43.2539 40.3134 43.2539 40.3202 43.2539 40.327C43.2539 40.3338 43.2539 40.3406 43.2539 40.3473C43.2539 40.3541 43.2539 40.3609 43.2539 40.3677C43.2539 40.3745 43.2539 40.3812 43.2539 40.388C43.2539 40.3948 43.2539 40.4015 43.2539 40.4083C43.2539 40.4151 43.2539 40.4218 43.2539 40.4286C43.2539 40.4353 43.2539 40.4421 43.2539 40.4488C43.2539 40.4556 43.2539 40.4623 43.2539 40.4691C43.2539 40.4758 43.2539 40.4825 43.2539 40.4893C43.2539 40.496 43.2539 40.5027 43.2539 40.5094C43.2539 40.5162 43.2539 40.5229 43.2539 40.5296C43.2539 40.5363 43.2539 40.543 43.2539 40.5497C43.2539 40.5564 43.2539 40.5631 43.2539 40.5698C43.2539 40.5765 43.2539 40.5832 43.2539 40.5899C43.2539 40.5966 43.2539 40.6032 43.2539 40.6099C43.2539 40.6166 43.2539 40.6233 43.2539 40.6299C43.2539 40.6366 43.2539 40.6433 43.2539 40.6499C43.2539 40.6566 43.2539 40.6633 43.2539 40.6699C43.2539 40.6766 43.2539 40.6832 43.2539 40.6898C43.2539 40.6965 43.2539 40.7031 43.2539 40.7098C43.2539 40.7164 43.2539 40.723 43.2539 40.7296C43.2539 40.7363 43.2539 40.7429 43.2539 40.7495C43.2539 40.7561 43.2539 40.7627 43.2539 40.7693C43.2539 40.7759 43.2539 40.7825 43.2539 40.7891C43.2539 40.7957 43.2539 40.8023 43.2539 40.8089C43.2539 40.8155 43.2539 40.8221 43.2539 40.8286C43.2539 40.8352 43.2539 40.8418 43.2539 40.8484C43.2539 40.8549 43.2539 40.8615 43.2539 40.868C43.2539 40.8746 43.2539 40.8812 43.2539 40.8877C43.2539 40.8942 43.2539 40.9008 43.2539 40.9073C43.2539 40.9139 43.2539 40.9204 43.2539 40.9269C43.2539 40.9335 43.2539 40.94 43.2539 40.9465C43.2539 40.953 43.2539 40.9595 43.2539 40.966C43.2539 40.9725 43.2539 40.979 43.2539 40.9855C43.2539 40.992 43.2539 40.9985 43.2539 41.005C43.2539 41.0115 43.2539 41.018 43.2539 41.0245C43.2539 41.0309 43.2539 41.0374 43.2539 41.0439C43.2539 41.0503 43.2539 41.0568 43.2539 41.0633C43.2539 41.0697 43.2539 41.0762 43.2539 41.0826C43.2539 41.089 43.2539 41.0955 43.2539 41.1019C43.2539 41.1084 43.2539 41.1148 43.2539 41.1212C43.2539 41.1276 43.2539 41.134 43.2539 41.1405C43.2539 41.1469 43.2539 41.1533 43.2539 41.1597C43.2539 41.1661 43.2539 41.1725 43.2539 41.1789C43.2539 41.1853 43.2539 41.1916 43.2539 41.198C43.2539 41.2044 43.2539 41.2108 43.2539 41.2172C43.2539 41.2235 43.2539 41.2299 43.2539 41.2362C43.2539 41.2426 43.2539 41.249 43.2539 41.2553C43.2539 41.2616 43.2539 41.268 43.2539 41.2743C43.2539 41.2807 43.2539 41.287 43.2539 41.2933C43.2539 41.2996 43.2539 41.3059 43.2539 41.3123C43.2539 41.3186 43.2539 41.3249 43.2539 41.3312C43.2539 41.3375 43.2539 41.3438 43.2539 41.3501C43.2539 41.3563 43.2539 41.3626 43.2539 41.3689C43.2539 41.3752 43.2539 41.3815 43.2539 41.3877C43.2539 41.394 43.2539 41.4002 43.2539 41.4065C43.2539 41.4128 43.2539 41.419 43.2539 41.4252C43.2539 41.4315 43.2539 41.4377 43.2539 41.4439C43.2539 41.4502 43.2539 41.4564 43.2539 41.4626C43.2539 41.4688 43.2539 41.475 43.2539 41.4813C43.2539 41.4875 43.2539 41.4937 43.2539 41.4999C43.2539 41.506 43.2539 41.5122 43.2539 41.5184C43.2539 41.5246 43.2539 41.5308 43.2539 41.5369C43.2539 41.5431 43.2539 41.5493 43.2539 41.5554C43.2539 41.5616 43.2539 41.5677 43.2539 41.5739C43.2539 41.58 43.2539 41.5861 43.2539 41.5923C43.2539 41.5984 43.2539 41.6045 43.2539 41.6107C43.2539 41.6168 43.2539 41.6229 43.2539 41.629C43.2539 41.6351 43.2539 41.6412 43.2539 41.6473C43.2539 41.6534 43.2539 41.6595 43.2539 41.6655C43.2539 41.6716 43.2539 41.6777 43.2539 41.6838C43.2539 41.6898 43.2539 41.6959 43.2539 41.7019C43.2539 41.708 43.2539 41.714 43.2539 41.7201C43.2539 41.7261 43.2539 41.7321 43.2539 41.7382C43.2539 41.7442 43.2539 41.7502 43.2539 41.7562C43.2539 41.7622 43.2539 41.7683 43.2539 41.7743C43.2539 41.7803 43.2539 41.7862 43.2539 41.7922C43.2539 41.7982 43.2539 41.8042 43.2539 41.8102C43.2539 41.8161 43.2539 41.8221 43.2539 41.8281C43.2539 41.834 43.2539 41.84 43.2539 41.8459C43.2539 41.8519 43.2539 41.8578 43.2539 41.8637C43.2539 41.8697 43.2539 41.8756 43.2539 41.8815C43.2539 41.8874 43.2539 41.8933 43.2539 41.8992C43.2539 41.9051 43.2539 41.911 43.2539 41.9169C43.2539 41.9228 43.2539 41.9287 43.2539 41.9346C43.2539 41.9405 43.2539 41.9463 43.2539 41.9522C43.2539 41.9581 43.2539 41.9639 43.2539 41.9698C43.2539 41.9756 43.2539 41.9814 43.2539 41.9873C43.2539 41.9931 43.2539 41.9989 43.2539 42.0048C43.2539 42.0106 43.2539 42.0164 43.2539 42.0222C43.2539 42.028 43.2539 42.0338 43.2539 42.0396C43.2539 42.0454 43.2539 42.0511 43.2539 42.0569C43.2539 42.0627 43.2539 42.0685 43.2539 42.0742C43.2539 42.08 43.2539 42.0857 43.2539 42.0915C43.2539 42.0972 43.2539 42.103 43.2539 42.1087C43.2539 42.1144 43.2539 42.1202 43.2539 42.1259C43.2539 42.1316 43.2539 42.1373 43.2539 42.143C43.2539 42.1487 43.2539 42.1544 43.2539 42.1601C43.2539 42.1658 43.2539 42.1714 43.2539 42.1771C43.2539 42.1828 43.2539 42.1884 43.2539 42.1941C43.2539 42.1998 43.2539 42.2054 43.2539 42.211C43.2539 42.2167 43.2539 42.2223 43.2539 42.2279C43.2539 42.2336 43.2539 42.2392 43.2539 42.2448C43.2539 42.2504 43.2539 42.256 43.2539 42.2616C43.2539 42.2672 43.2539 42.2728 43.2539 42.2783C43.2539 42.2839 43.2539 42.2895 43.2539 42.2951C43.2539 42.3006 43.2539 42.3062 43.2539 42.3117C43.2539 42.3173 43.2539 42.3228 43.2539 42.3283C43.2539 42.3339 43.2539 42.3394 43.2539 42.3449C43.2539 42.3504 43.2539 42.3559 43.2539 42.3614C43.2539 42.3669 43.2539 42.3724 43.2539 42.3779C43.2539 42.3834 43.2539 42.3889 43.2539 42.3943C43.2539 42.3998 43.2539 42.4052 43.2539 42.4107C43.2539 42.4161 43.2539 42.4216 43.2539 42.427C43.2539 42.4325 43.2539 42.4379 43.2539 42.4433C43.2539 42.4487 43.2539 42.4541 43.2539 42.4595C43.2539 42.4649 43.2539 42.4703 43.2539 42.4757C43.2539 42.4811 43.2539 42.4865 43.2539 42.4918C43.2539 42.4972 43.2539 42.5026 43.2539 42.5079C43.2539 42.5133 43.2539 42.5186 43.2539 42.5239C43.2539 42.5293 43.2539 42.5346 43.2539 42.5399C43.2539 42.5452 43.2539 42.5506 43.2539 42.5559C43.2539 42.5612 43.2539 42.5664 43.2539 42.5717C43.2539 42.577 43.2539 42.5823 43.2539 42.5876C43.2539 42.5928 43.2539 42.5981 43.2539 42.6033C43.2539 42.6086 43.2539 42.6138 43.2539 42.6191C43.2539 42.6243 43.2539 42.6295 43.2539 42.6347C43.2539 42.6399 43.2539 42.6451 43.2539 42.6503C43.2539 42.6555 43.2539 42.6607 43.2539 42.6659C43.2539 42.6711 43.2539 42.6763 43.2539 42.6814C43.2539 42.6866 43.2539 42.6917 43.2539 42.6969C43.2539 42.702 43.2539 42.7072 43.2539 42.7123C43.2539 42.7174 43.2539 42.7225 43.2539 42.7277C43.2539 42.7328 43.2539 42.7379 43.2539 42.743C43.2539 42.748 43.2539 42.7531 43.2539 42.7582C43.2539 42.7633 43.2539 42.7683 43.2539 42.7734C43.2539 42.7785 43.2539 42.7835 43.2539 42.7885C43.2539 42.7936 43.2539 42.7986 43.2539 42.8036C43.2539 42.8086 43.2539 42.8137 43.2539 42.8187C43.2539 42.8237 43.2539 42.8287 43.2539 42.8336C43.2539 42.8386 43.2539 42.8436 43.2539 42.8486C43.2539 42.8535 43.2539 42.8585 43.2539 42.8634C43.2539 42.8684 43.2539 42.8733 43.2539 42.8782C43.2539 42.8832 43.2539 42.8881 43.2539 42.893C43.2539 42.8979 43.2539 42.9028 43.2539 42.9077C43.2539 42.9126 43.2539 42.9175 43.2539 42.9223C43.2539 42.9272 43.2539 42.9321 43.2539 42.9369C43.2539 42.9418 43.2539 42.9466 43.2539 42.9515C43.2539 42.9563 43.2539 42.9611 43.2539 42.9659C43.2539 42.9707 43.2539 42.9756 43.2539 42.9803C43.2539 42.9851 43.2539 42.9899 43.2539 42.9947C43.2539 42.9995 43.2539 43.0043 43.2539 43.009C43.2539 43.0138 43.2539 43.0185 43.2539 43.0233C43.2539 43.028 43.2539 43.0327 43.2539 43.0374C43.2539 43.0422 43.2539 43.0469 43.2539 43.0516C43.2539 43.0563 43.2539 43.061 43.2539 43.0656C43.2539 43.0703 43.2539 43.075 43.2539 43.0797C43.2539 43.0843 43.2539 43.089 43.2539 43.0936C43.2539 43.0982 43.2539 43.1029 43.2539 43.1075C43.2539 43.1121 43.2539 43.1167 43.2539 43.1213C43.2539 43.1259 43.2539 43.1305 43.2539 43.1351C43.2539 43.1397 43.2539 43.1443 43.2539 43.1488C43.2539 43.1534 43.2539 43.1579 43.2539 43.1625C43.2539 43.167 43.2539 43.1716 43.2539 43.1761C43.2539 43.1806 43.2539 43.1851 43.2539 43.1896C43.2539 43.1941 43.2539 43.1986 43.2539 43.2031C43.2539 43.2076 43.2539 43.212 43.2539 43.2165C43.2539 43.221 43.2539 43.2254 43.2539 43.2298C43.2539 43.2343 43.2539 43.2387 43.2539 43.2431C43.2539 43.2476 43.2539 43.252 43.2539 43.2564C43.2539 43.2608 43.2539 43.2652 43.2539 43.2695C43.2539 43.2739 43.2539 43.2783 43.2539 43.2826C43.2539 43.287 43.2539 43.2913 43.2539 43.2957C43.2539 43.3 43.2539 43.3043 43.2539 43.3087C43.2539 43.313 43.2539 43.3173 43.2539 43.3216C43.2539 43.3259 43.2539 43.3302 43.2539 43.3344C43.2539 43.3387 43.2539 43.343 43.2539 43.3472C43.2539 43.3515 43.2539 43.3557 43.2539 43.36C43.2539 43.3642 43.2539 43.3684 43.2539 43.3726C43.2539 43.3768 43.2539 43.381 43.2539 43.3852H46.2539ZM46.2539 33.6656C46.2539 29.523 43.142 26.5537 39.058 26.5537V29.5537C41.5446 29.5537 43.2539 31.2386 43.2539 33.6656H46.2539ZM39.058 26.5537C39.0552 26.5537 39.0524 26.5537 39.0496 26.5537C39.0467 26.5537 39.0439 26.5537 39.041 26.5537C39.0382 26.5537 39.0353 26.5537 39.0324 26.5537C39.0295 26.5537 39.0266 26.5537 39.0237 26.5537C39.0208 26.5537 39.0179 26.5537 39.0149 26.5537C39.012 26.5537 39.009 26.5537 39.0061 26.5537C39.0031 26.5537 39.0001 26.5537 38.9971 26.5537C38.9941 26.5537 38.9911 26.5537 38.9881 26.5537C38.985 26.5537 38.982 26.5537 38.9789 26.5537C38.9759 26.5537 38.9728 26.5537 38.9697 26.5537C38.9666 26.5537 38.9636 26.5537 38.9604 26.5537C38.9573 26.5537 38.9542 26.5537 38.9511 26.5537C38.9479 26.5537 38.9448 26.5537 38.9416 26.5537C38.9384 26.5537 38.9353 26.5537 38.9321 26.5537C38.9289 26.5537 38.9257 26.5537 38.9224 26.5537C38.9192 26.5537 38.916 26.5537 38.9127 26.5537C38.9095 26.5537 38.9062 26.5537 38.9029 26.5537C38.8997 26.5537 38.8964 26.5537 38.8931 26.5537C38.8898 26.5537 38.8864 26.5537 38.8831 26.5537C38.8798 26.5537 38.8764 26.5537 38.8731 26.5537C38.8697 26.5537 38.8663 26.5537 38.8629 26.5537C38.8596 26.5537 38.8562 26.5537 38.8527 26.5537C38.8493 26.5537 38.8459 26.5537 38.8425 26.5537C38.839 26.5537 38.8356 26.5537 38.8321 26.5537C38.8286 26.5537 38.8251 26.5537 38.8216 26.5537C38.8181 26.5537 38.8146 26.5537 38.8111 26.5537C38.8076 26.5537 38.804 26.5537 38.8005 26.5537C38.7969 26.5537 38.7934 26.5537 38.7898 26.5537C38.7862 26.5537 38.7826 26.5537 38.779 26.5537C38.7754 26.5537 38.7718 26.5537 38.7682 26.5537C38.7645 26.5537 38.7609 26.5537 38.7572 26.5537C38.7536 26.5537 38.7499 26.5537 38.7462 26.5537C38.7425 26.5537 38.7388 26.5537 38.7351 26.5537C38.7314 26.5537 38.7277 26.5537 38.7239 26.5537C38.7202 26.5537 38.7164 26.5537 38.7127 26.5537C38.7089 26.5537 38.7051 26.5537 38.7013 26.5537C38.6975 26.5537 38.6937 26.5537 38.6899 26.5537C38.6861 26.5537 38.6823 26.5537 38.6784 26.5537C38.6746 26.5537 38.6707 26.5537 38.6668 26.5537C38.663 26.5537 38.6591 26.5537 38.6552 26.5537C38.6513 26.5537 38.6474 26.5537 38.6434 26.5537C38.6395 26.5537 38.6356 26.5537 38.6316 26.5537C38.6277 26.5537 38.6237 26.5537 38.6197 26.5537C38.6157 26.5537 38.6118 26.5537 38.6077 26.5537C38.6037 26.5537 38.5997 26.5537 38.5957 26.5537C38.5917 26.5537 38.5876 26.5537 38.5836 26.5537C38.5795 26.5537 38.5754 26.5537 38.5713 26.5537C38.5673 26.5537 38.5632 26.5537 38.5591 26.5537C38.5549 26.5537 38.5508 26.5537 38.5467 26.5537C38.5425 26.5537 38.5384 26.5537 38.5342 26.5537C38.5301 26.5537 38.5259 26.5537 38.5217 26.5537C38.5175 26.5537 38.5133 26.5537 38.5091 26.5537C38.5049 26.5537 38.5007 26.5537 38.4964 26.5537C38.4922 26.5537 38.4879 26.5537 38.4837 26.5537C38.4794 26.5537 38.4751 26.5537 38.4708 26.5537C38.4665 26.5537 38.4622 26.5537 38.4579 26.5537C38.4536 26.5537 38.4493 26.5537 38.4449 26.5537C38.4406 26.5537 38.4362 26.5537 38.4318 26.5537C38.4275 26.5537 38.4231 26.5537 38.4187 26.5537C38.4143 26.5537 38.4099 26.5537 38.4055 26.5537C38.4011 26.5537 38.3966 26.5537 38.3922 26.5537C38.3877 26.5537 38.3833 26.5537 38.3788 26.5537C38.3743 26.5537 38.3698 26.5537 38.3654 26.5537C38.3609 26.5537 38.3563 26.5537 38.3518 26.5537C38.3473 26.5537 38.3428 26.5537 38.3382 26.5537C38.3337 26.5537 38.3291 26.5537 38.3245 26.5537C38.32 26.5537 38.3154 26.5537 38.3108 26.5537C38.3062 26.5537 38.3016 26.5537 38.2969 26.5537C38.2923 26.5537 38.2877 26.5537 38.283 26.5537C38.2784 26.5537 38.2737 26.5537 38.2691 26.5537C38.2644 26.5537 38.2597 26.5537 38.255 26.5537C38.2503 26.5537 38.2456 26.5537 38.2409 26.5537C38.2361 26.5537 38.2314 26.5537 38.2267 26.5537C38.2219 26.5537 38.2171 26.5537 38.2124 26.5537C38.2076 26.5537 38.2028 26.5537 38.198 26.5537C38.1932 26.5537 38.1884 26.5537 38.1836 26.5537C38.1788 26.5537 38.1739 26.5537 38.1691 26.5537C38.1642 26.5537 38.1594 26.5537 38.1545 26.5537C38.1496 26.5537 38.1447 26.5537 38.1398 26.5537C38.1349 26.5537 38.13 26.5537 38.1251 26.5537C38.1202 26.5537 38.1153 26.5537 38.1103 26.5537C38.1054 26.5537 38.1004 26.5537 38.0954 26.5537C38.0905 26.5537 38.0855 26.5537 38.0805 26.5537C38.0755 26.5537 38.0705 26.5537 38.0655 26.5537C38.0604 26.5537 38.0554 26.5537 38.0504 26.5537C38.0453 26.5537 38.0403 26.5537 38.0352 26.5537C38.0301 26.5537 38.025 26.5537 38.0199 26.5537C38.0148 26.5537 38.0097 26.5537 38.0046 26.5537C37.9995 26.5537 37.9944 26.5537 37.9892 26.5537C37.9841 26.5537 37.9789 26.5537 37.9738 26.5537C37.9686 26.5537 37.9634 26.5537 37.9582 26.5537C37.9531 26.5537 37.9479 26.5537 37.9426 26.5537C37.9374 26.5537 37.9322 26.5537 37.927 26.5537C37.9217 26.5537 37.9165 26.5537 37.9112 26.5537C37.9059 26.5537 37.9007 26.5537 37.8954 26.5537C37.8901 26.5537 37.8848 26.5537 37.8795 26.5537C37.8742 26.5537 37.8689 26.5537 37.8635 26.5537C37.8582 26.5537 37.8528 26.5537 37.8475 26.5537C37.8421 26.5537 37.8368 26.5537 37.8314 26.5537C37.826 26.5537 37.8206 26.5537 37.8152 26.5537C37.8098 26.5537 37.8044 26.5537 37.799 26.5537C37.7935 26.5537 37.7881 26.5537 37.7826 26.5537C37.7772 26.5537 37.7717 26.5537 37.7662 26.5537C37.7608 26.5537 37.7553 26.5537 37.7498 26.5537C37.7443 26.5537 37.7388 26.5537 37.7332 26.5537C37.7277 26.5537 37.7222 26.5537 37.7166 26.5537C37.7111 26.5537 37.7055 26.5537 37.7 26.5537C37.6944 26.5537 37.6888 26.5537 37.6832 26.5537C37.6776 26.5537 37.672 26.5537 37.6664 26.5537C37.6608 26.5537 37.6552 26.5537 37.6495 26.5537C37.6439 26.5537 37.6382 26.5537 37.6326 26.5537C37.6269 26.5537 37.6213 26.5537 37.6156 26.5537C37.6099 26.5537 37.6042 26.5537 37.5985 26.5537C37.5928 26.5537 37.587 26.5537 37.5813 26.5537C37.5756 26.5537 37.5698 26.5537 37.5641 26.5537C37.5583 26.5537 37.5526 26.5537 37.5468 26.5537C37.541 26.5537 37.5352 26.5537 37.5294 26.5537C37.5236 26.5537 37.5178 26.5537 37.512 26.5537C37.5062 26.5537 37.5003 26.5537 37.4945 26.5537C37.4886 26.5537 37.4828 26.5537 37.4769 26.5537C37.471 26.5537 37.4652 26.5537 37.4593 26.5537C37.4534 26.5537 37.4475 26.5537 37.4416 26.5537C37.4357 26.5537 37.4297 26.5537 37.4238 26.5537C37.4179 26.5537 37.4119 26.5537 37.4059 26.5537C37.4 26.5537 37.394 26.5537 37.388 26.5537C37.3821 26.5537 37.3761 26.5537 37.3701 26.5537C37.3641 26.5537 37.358 26.5537 37.352 26.5537C37.346 26.5537 37.34 26.5537 37.3339 26.5537C37.3279 26.5537 37.3218 26.5537 37.3157 26.5537C37.3097 26.5537 37.3036 26.5537 37.2975 26.5537C37.2914 26.5537 37.2853 26.5537 37.2792 26.5537C37.273 26.5537 37.2669 26.5537 37.2608 26.5537C37.2546 26.5537 37.2485 26.5537 37.2423 26.5537C37.2362 26.5537 37.23 26.5537 37.2238 26.5537C37.2176 26.5537 37.2115 26.5537 37.2052 26.5537C37.199 26.5537 37.1928 26.5537 37.1866 26.5537C37.1804 26.5537 37.1741 26.5537 37.1679 26.5537C37.1616 26.5537 37.1554 26.5537 37.1491 26.5537C37.1428 26.5537 37.1366 26.5537 37.1303 26.5537C37.124 26.5537 37.1177 26.5537 37.1114 26.5537C37.1051 26.5537 37.0987 26.5537 37.0924 26.5537C37.0861 26.5537 37.0797 26.5537 37.0734 26.5537C37.067 26.5537 37.0606 26.5537 37.0543 26.5537C37.0479 26.5537 37.0415 26.5537 37.0351 26.5537C37.0287 26.5537 37.0223 26.5537 37.0159 26.5537C37.0094 26.5537 37.003 26.5537 36.9966 26.5537C36.9901 26.5537 36.9837 26.5537 36.9772 26.5537C36.9707 26.5537 36.9643 26.5537 36.9578 26.5537C36.9513 26.5537 36.9448 26.5537 36.9383 26.5537C36.9318 26.5537 36.9253 26.5537 36.9187 26.5537C36.9122 26.5537 36.9057 26.5537 36.8991 26.5537C36.8926 26.5537 36.886 26.5537 36.8794 26.5537C36.8729 26.5537 36.8663 26.5537 36.8597 26.5537C36.8531 26.5537 36.8465 26.5537 36.8399 26.5537C36.8333 26.5537 36.8266 26.5537 36.82 26.5537C36.8134 26.5537 36.8067 26.5537 36.8001 26.5537C36.7934 26.5537 36.7868 26.5537 36.7801 26.5537C36.7734 26.5537 36.7667 26.5537 36.76 26.5537C36.7533 26.5537 36.7466 26.5537 36.7399 26.5537C36.7332 26.5537 36.7264 26.5537 36.7197 26.5537C36.713 26.5537 36.7062 26.5537 36.6995 26.5537C36.6927 26.5537 36.6859 26.5537 36.6792 26.5537C36.6724 26.5537 36.6656 26.5537 36.6588 26.5537C36.652 26.5537 36.6452 26.5537 36.6383 26.5537C36.6315 26.5537 36.6247 26.5537 36.6179 26.5537C36.611 26.5537 36.6042 26.5537 36.5973 26.5537C36.5904 26.5537 36.5836 26.5537 36.5767 26.5537C36.5698 26.5537 36.5629 26.5537 36.556 26.5537C36.5491 26.5537 36.5422 26.5537 36.5352 26.5537C36.5283 26.5537 36.5214 26.5537 36.5144 26.5537C36.5075 26.5537 36.5005 26.5537 36.4936 26.5537C36.4866 26.5537 36.4796 26.5537 36.4727 26.5537C36.4657 26.5537 36.4587 26.5537 36.4517 26.5537C36.4447 26.5537 36.4377 26.5537 36.4306 26.5537C36.4236 26.5537 36.4166 26.5537 36.4095 26.5537C36.4025 26.5537 36.3954 26.5537 36.3883 26.5537C36.3813 26.5537 36.3742 26.5537 36.3671 26.5537C36.36 26.5537 36.3529 26.5537 36.3458 26.5537C36.3387 26.5537 36.3316 26.5537 36.3245 26.5537C36.3174 26.5537 36.3102 26.5537 36.3031 26.5537C36.2959 26.5537 36.2888 26.5537 36.2816 26.5537C36.2744 26.5537 36.2673 26.5537 36.2601 26.5537C36.2529 26.5537 36.2457 26.5537 36.2385 26.5537C36.2313 26.5537 36.2241 26.5537 36.2169 26.5537C36.2096 26.5537 36.2024 26.5537 36.1952 26.5537C36.1879 26.5537 36.1807 26.5537 36.1734 26.5537C36.1661 26.5537 36.1589 26.5537 36.1516 26.5537C36.1443 26.5537 36.137 26.5537 36.1297 26.5537C36.1224 26.5537 36.1151 26.5537 36.1078 26.5537C36.1004 26.5537 36.0931 26.5537 36.0858 26.5537C36.0784 26.5537 36.0711 26.5537 36.0637 26.5537C36.0563 26.5537 36.049 26.5537 36.0416 26.5537C36.0342 26.5537 36.0268 26.5537 36.0194 26.5537C36.012 26.5537 36.0046 26.5537 35.9972 26.5537C35.9898 26.5537 35.9823 26.5537 35.9749 26.5537C35.9675 26.5537 35.96 26.5537 35.9526 26.5537C35.9451 26.5537 35.9376 26.5537 35.9302 26.5537C35.9227 26.5537 35.9152 26.5537 35.9077 26.5537C35.9002 26.5537 35.8927 26.5537 35.8852 26.5537C35.8777 26.5537 35.8701 26.5537 35.8626 26.5537C35.8551 26.5537 35.8475 26.5537 35.84 26.5537C35.8324 26.5537 35.8249 26.5537 35.8173 26.5537C35.8097 26.5537 35.8022 26.5537 35.7946 26.5537C35.787 26.5537 35.7794 26.5537 35.7718 26.5537C35.7642 26.5537 35.7565 26.5537 35.7489 26.5537C35.7413 26.5537 35.7336 26.5537 35.726 26.5537C35.7184 26.5537 35.7107 26.5537 35.703 26.5537C35.6954 26.5537 35.6877 26.5537 35.68 26.5537C35.6723 26.5537 35.6646 26.5537 35.6569 26.5537C35.6492 26.5537 35.6415 26.5537 35.6338 26.5537C35.6261 26.5537 35.6184 26.5537 35.6106 26.5537C35.6029 26.5537 35.5951 26.5537 35.5874 26.5537C35.5796 26.5537 35.5718 26.5537 35.5641 26.5537C35.5563 26.5537 35.5485 26.5537 35.5407 26.5537C35.5329 26.5537 35.5251 26.5537 35.5173 26.5537C35.5095 26.5537 35.5017 26.5537 35.4939 26.5537C35.486 26.5537 35.4782 26.5537 35.4703 26.5537C35.4625 26.5537 35.4546 26.5537 35.4468 26.5537C35.4389 26.5537 35.431 26.5537 35.4231 26.5537C35.4153 26.5537 35.4074 26.5537 35.3995 26.5537C35.3916 26.5537 35.3836 26.5537 35.3757 26.5537C35.3678 26.5537 35.3599 26.5537 35.3519 26.5537C35.344 26.5537 35.3361 26.5537 35.3281 26.5537C35.3201 26.5537 35.3122 26.5537 35.3042 26.5537C35.2962 26.5537 35.2882 26.5537 35.2803 26.5537C35.2723 26.5537 35.2643 26.5537 35.2563 26.5537C35.2482 26.5537 35.2402 26.5537 35.2322 26.5537C35.2242 26.5537 35.2161 26.5537 35.2081 26.5537C35.2001 26.5537 35.192 26.5537 35.1839 26.5537C35.1759 26.5537 35.1678 26.5537 35.1597 26.5537C35.1516 26.5537 35.1436 26.5537 35.1355 26.5537C35.1274 26.5537 35.1193 26.5537 35.1111 26.5537C35.103 26.5537 35.0949 26.5537 35.0868 26.5537C35.0786 26.5537 35.0705 26.5537 35.0624 26.5537C35.0542 26.5537 35.046 26.5537 35.0379 26.5537C35.0297 26.5537 35.0215 26.5537 35.0134 26.5537C35.0052 26.5537 34.997 26.5537 34.9888 26.5537C34.9806 26.5537 34.9724 26.5537 34.9642 26.5537C34.9559 26.5537 34.9477 26.5537 34.9395 26.5537C34.9312 26.5537 34.923 26.5537 34.9147 26.5537C34.9065 26.5537 34.8982 26.5537 34.89 26.5537C34.8817 26.5537 34.8734 26.5537 34.8651 26.5537C34.8568 26.5537 34.8486 26.5537 34.8402 26.5537C34.8319 26.5537 34.8236 26.5537 34.8153 26.5537C34.807 26.5537 34.7987 26.5537 34.7903 26.5537C34.782 26.5537 34.7736 26.5537 34.7653 26.5537C34.7569 26.5537 34.7486 26.5537 34.7402 26.5537C34.7318 26.5537 34.7235 26.5537 34.7151 26.5537C34.7067 26.5537 34.6983 26.5537 34.6899 26.5537C34.6815 26.5537 34.6731 26.5537 34.6647 26.5537C34.6562 26.5537 34.6478 26.5537 34.6394 26.5537C34.6309 26.5537 34.6225 26.5537 34.614 26.5537C34.6056 26.5537 34.5971 26.5537 34.5887 26.5537C34.5802 26.5537 34.5717 26.5537 34.5632 26.5537C34.5547 26.5537 34.5462 26.5537 34.5377 26.5537C34.5292 26.5537 34.5207 26.5537 34.5122 26.5537C34.5037 26.5537 34.4952 26.5537 34.4866 26.5537C34.4781 26.5537 34.4696 26.5537 34.461 26.5537C34.4525 26.5537 34.4439 26.5537 34.4353 26.5537C34.4268 26.5537 34.4182 26.5537 34.4096 26.5537C34.401 26.5537 34.3924 26.5537 34.3838 26.5537C34.3752 26.5537 34.3666 26.5537 34.358 26.5537C34.3494 26.5537 34.3408 26.5537 34.3322 26.5537C34.3235 26.5537 34.3149 26.5537 34.3062 26.5537C34.2976 26.5537 34.2889 26.5537 34.2803 26.5537C34.2716 26.5537 34.2629 26.5537 34.2543 26.5537C34.2456 26.5537 34.2369 26.5537 34.2282 26.5537C34.2195 26.5537 34.2108 26.5537 34.2021 26.5537C34.1934 26.5537 34.1847 26.5537 34.1759 26.5537C34.1672 26.5537 34.1585 26.5537 34.1497 26.5537C34.141 26.5537 34.1323 26.5537 34.1235 26.5537C34.1147 26.5537 34.106 26.5537 34.0972 26.5537C34.0884 26.5537 34.0797 26.5537 34.0709 26.5537C34.0621 26.5537 34.0533 26.5537 34.0445 26.5537C34.0357 26.5537 34.0269 26.5537 34.0181 26.5537C34.0092 26.5537 34.0004 26.5537 33.9916 26.5537C33.9827 26.5537 33.9739 26.5537 33.9651 26.5537C33.9562 26.5537 33.9473 26.5537 33.9385 26.5537C33.9296 26.5537 33.9207 26.5537 33.9119 26.5537C33.903 26.5537 33.8941 26.5537 33.8852 26.5537C33.8763 26.5537 33.8674 26.5537 33.8585 26.5537C33.8496 26.5537 33.8407 26.5537 33.8318 26.5537C33.8228 26.5537 33.8139 26.5537 33.805 26.5537C33.796 26.5537 33.7871 26.5537 33.7781 26.5537C33.7692 26.5537 33.7602 26.5537 33.7512 26.5537C33.7423 26.5537 33.7333 26.5537 33.7243 26.5537C33.7153 26.5537 33.7063 26.5537 33.6973 26.5537C33.6883 26.5537 33.6793 26.5537 33.6703 26.5537C33.6613 26.5537 33.6523 26.5537 33.6432 26.5537C33.6342 26.5537 33.6252 26.5537 33.6161 26.5537C33.6071 26.5537 33.598 26.5537 33.589 26.5537C33.5799 26.5537 33.5709 26.5537 33.5618 26.5537C33.5527 26.5537 33.5436 26.5537 33.5345 26.5537C33.5255 26.5537 33.5164 26.5537 33.5073 26.5537C33.4982 26.5537 33.4891 26.5537 33.4799 26.5537C33.4708 26.5537 33.4617 26.5537 33.4526 26.5537C33.4434 26.5537 33.4343 26.5537 33.4252 26.5537C33.416 26.5537 33.4069 26.5537 33.3977 26.5537C33.3885 26.5537 33.3794 26.5537 33.3702 26.5537C33.361 26.5537 33.3519 26.5537 33.3427 26.5537C33.3335 26.5537 33.3243 26.5537 33.3151 26.5537C33.3059 26.5537 33.2967 26.5537 33.2875 26.5537C33.2782 26.5537 33.269 26.5537 33.2598 26.5537C33.2506 26.5537 33.2413 26.5537 33.2321 26.5537C33.2228 26.5537 33.2136 26.5537 33.2043 26.5537C33.1951 26.5537 33.1858 26.5537 33.1765 26.5537C33.1673 26.5537 33.158 26.5537 33.1487 26.5537C33.1394 26.5537 33.1301 26.5537 33.1208 26.5537C33.1115 26.5537 33.1022 26.5537 33.0929 26.5537C33.0836 26.5537 33.0743 26.5537 33.0649 26.5537C33.0556 26.5537 33.0463 26.5537 33.0369 26.5537C33.0276 26.5537 33.0183 26.5537 33.0089 26.5537C32.9996 26.5537 32.9902 26.5537 32.9808 26.5537C32.9715 26.5537 32.9621 26.5537 32.9527 26.5537C32.9433 26.5537 32.9339 26.5537 32.9245 26.5537C32.9151 26.5537 32.9057 26.5537 32.8963 26.5537C32.8869 26.5537 32.8775 26.5537 32.8681 26.5537C32.8587 26.5537 32.8492 26.5537 32.8398 26.5537C32.8304 26.5537 32.8209 26.5537 32.8115 26.5537C32.802 26.5537 32.7926 26.5537 32.7831 26.5537C32.7737 26.5537 32.7642 26.5537 32.7547 26.5537C32.7452 26.5537 32.7358 26.5537 32.7263 26.5537C32.7168 26.5537 32.7073 26.5537 32.6978 26.5537C32.6883 26.5537 32.6788 26.5537 32.6693 26.5537C32.6598 26.5537 32.6502 26.5537 32.6407 26.5537C32.6312 26.5537 32.6217 26.5537 32.6121 26.5537C32.6026 26.5537 32.593 26.5537 32.5835 26.5537C32.5739 26.5537 32.5644 26.5537 32.5548 26.5537C32.5452 26.5537 32.5357 26.5537 32.5261 26.5537C32.5165 26.5537 32.5069 26.5537 32.4973 26.5537C32.4877 26.5537 32.4781 26.5537 32.4685 26.5537C32.4589 26.5537 32.4493 26.5537 32.4397 26.5537C32.4301 26.5537 32.4205 26.5537 32.4108 26.5537C32.4012 26.5537 32.3916 26.5537 32.3819 26.5537C32.3723 26.5537 32.3627 26.5537 32.353 26.5537C32.3433 26.5537 32.3337 26.5537 32.324 26.5537C32.3144 26.5537 32.3047 26.5537 32.295 26.5537C32.2853 26.5537 32.2756 26.5537 32.2659 26.5537C32.2563 26.5537 32.2466 26.5537 32.2369 26.5537C32.2271 26.5537 32.2174 26.5537 32.2077 26.5537C32.198 26.5537 32.1883 26.5537 32.1786 26.5537C32.1688 26.5537 32.1591 26.5537 32.1494 26.5537C32.1396 26.5537 32.1299 26.5537 32.1201 26.5537C32.1104 26.5537 32.1006 26.5537 32.0908 26.5537C32.0811 26.5537 32.0713 26.5537 32.0615 26.5537C32.0518 26.5537 32.042 26.5537 32.0322 26.5537C32.0224 26.5537 32.0126 26.5537 32.0028 26.5537C31.993 26.5537 31.9832 26.5537 31.9734 26.5537C31.9636 26.5537 31.9537 26.5537 31.9439 26.5537C31.9341 26.5537 31.9243 26.5537 31.9144 26.5537C31.9046 26.5537 31.8948 26.5537 31.8849 26.5537C31.8751 26.5537 31.8652 26.5537 31.8553 26.5537C31.8455 26.5537 31.8356 26.5537 31.8257 26.5537C31.8159 26.5537 31.806 26.5537 31.7961 26.5537C31.7862 26.5537 31.7763 26.5537 31.7665 26.5537C31.7566 26.5537 31.7467 26.5537 31.7368 26.5537C31.7268 26.5537 31.7169 26.5537 31.707 26.5537C31.6971 26.5537 31.6872 26.5537 31.6772 26.5537C31.6673 26.5537 31.6574 26.5537 31.6474 26.5537C31.6375 26.5537 31.6276 26.5537 31.6176 26.5537C31.6077 26.5537 31.5977 26.5537 31.5877 26.5537C31.5778 26.5537 31.5678 26.5537 31.5578 26.5537C31.5479 26.5537 31.5379 26.5537 31.5279 26.5537C31.5179 26.5537 31.5079 26.5537 31.4979 26.5537C31.4879 26.5537 31.4779 26.5537 31.4679 26.5537C31.4579 26.5537 31.4479 26.5537 31.4379 26.5537C31.4279 26.5537 31.4178 26.5537 31.4078 26.5537C31.3978 26.5537 31.3877 26.5537 31.3777 26.5537C31.3677 26.5537 31.3576 26.5537 31.3476 26.5537C31.3375 26.5537 31.3274 26.5537 31.3174 26.5537C31.3073 26.5537 31.2973 26.5537 31.2872 26.5537C31.2771 26.5537 31.267 26.5537 31.2569 26.5537C31.2469 26.5537 31.2368 26.5537 31.2267 26.5537C31.2166 26.5537 31.2065 26.5537 31.1964 26.5537C31.1863 26.5537 31.1762 26.5537 31.166 26.5537C31.1559 26.5537 31.1458 26.5537 31.1357 26.5537C31.1256 26.5537 31.1154 26.5537 31.1053 26.5537C31.0951 26.5537 31.085 26.5537 31.0749 26.5537C31.0647 26.5537 31.0546 26.5537 31.0444 26.5537C31.0342 26.5537 31.0241 26.5537 31.0139 26.5537C31.0037 26.5537 30.9936 26.5537 30.9834 26.5537C30.9732 26.5537 30.963 26.5537 30.9528 26.5537C30.9426 26.5537 30.9324 26.5537 30.9223 26.5537C30.9121 26.5537 30.9018 26.5537 30.8916 26.5537C30.8814 26.5537 30.8712 26.5537 30.861 26.5537C30.8508 26.5537 30.8405 26.5537 30.8303 26.5537C30.8201 26.5537 30.8099 26.5537 30.7996 26.5537C30.7894 26.5537 30.7791 26.5537 30.7689 26.5537C30.7586 26.5537 30.7484 26.5537 30.7381 26.5537C30.7279 26.5537 30.7176 26.5537 30.7073 26.5537C30.6971 26.5537 30.6868 26.5537 30.6765 26.5537C30.6662 26.5537 30.6559 26.5537 30.6456 26.5537C30.6354 26.5537 30.6251 26.5537 30.6148 26.5537C30.6045 26.5537 30.5942 26.5537 30.5838 26.5537C30.5735 26.5537 30.5632 26.5537 30.5529 26.5537C30.5426 26.5537 30.5323 26.5537 30.5219 26.5537C30.5116 26.5537 30.5013 26.5537 30.4909 26.5537C30.4806 26.5537 30.4703 26.5537 30.4599 26.5537C30.4496 26.5537 30.4392 26.5537 30.4289 26.5537C30.4185 26.5537 30.4081 26.5537 30.3978 26.5537C30.3874 26.5537 30.377 26.5537 30.3667 26.5537C30.3563 26.5537 30.3459 26.5537 30.3355 26.5537C30.3251 26.5537 30.3147 26.5537 30.3043 26.5537C30.2939 26.5537 30.2836 26.5537 30.2731 26.5537C30.2627 26.5537 30.2523 26.5537 30.2419 26.5537C30.2315 26.5537 30.2211 26.5537 30.2107 26.5537C30.2002 26.5537 30.1898 26.5537 30.1794 26.5537C30.169 26.5537 30.1585 26.5537 30.1481 26.5537C30.1376 26.5537 30.1272 26.5537 30.1167 26.5537C30.1063 26.5537 30.0958 26.5537 30.0854 26.5537C30.0749 26.5537 30.0645 26.5537 30.054 26.5537C30.0435 26.5537 30.0331 26.5537 30.0226 26.5537C30.0121 26.5537 30.0016 26.5537 29.9911 26.5537C29.9807 26.5537 29.9702 26.5537 29.9597 26.5537C29.9492 26.5537 29.9387 26.5537 29.9282 26.5537C29.9177 26.5537 29.9072 26.5537 29.8967 26.5537C29.8862 26.5537 29.8756 26.5537 29.8651 26.5537C29.8546 26.5537 29.8441 26.5537 29.8335 26.5537C29.823 26.5537 29.8125 26.5537 29.802 26.5537C29.7914 26.5537 29.7809 26.5537 29.7703 26.5537C29.7598 26.5537 29.7492 26.5537 29.7387 26.5537C29.7281 26.5537 29.7176 26.5537 29.707 26.5537C29.6964 26.5537 29.6859 26.5537 29.6753 26.5537C29.6647 26.5537 29.6542 26.5537 29.6436 26.5537C29.633 26.5537 29.6224 26.5537 29.6118 26.5537C29.6012 26.5537 29.5907 26.5537 29.5801 26.5537C29.5695 26.5537 29.5589 26.5537 29.5483 26.5537C29.5377 26.5537 29.5271 26.5537 29.5164 26.5537C29.5058 26.5537 29.4952 26.5537 29.4846 26.5537C29.474 26.5537 29.4634 26.5537 29.4527 26.5537C29.4421 26.5537 29.4315 26.5537 29.4208 26.5537C29.4102 26.5537 29.3996 26.5537 29.3889 26.5537C29.3783 26.5537 29.3676 26.5537 29.357 26.5537C29.3463 26.5537 29.3357 26.5537 29.325 26.5537C29.3143 26.5537 29.3037 26.5537 29.293 26.5537C29.2823 26.5537 29.2717 26.5537 29.261 26.5537C29.2503 26.5537 29.2397 26.5537 29.229 26.5537C29.2183 26.5537 29.2076 26.5537 29.1969 26.5537C29.1862 26.5537 29.1755 26.5537 29.1648 26.5537C29.1541 26.5537 29.1434 26.5537 29.1327 26.5537C29.122 26.5537 29.1113 26.5537 29.1006 26.5537C29.0899 26.5537 29.0792 26.5537 29.0684 26.5537C29.0577 26.5537 29.047 26.5537 29.0363 26.5537C29.0256 26.5537 29.0148 26.5537 29.0041 26.5537C28.9934 26.5537 28.9826 26.5537 28.9719 26.5537C28.9611 26.5537 28.9504 26.5537 28.9396 26.5537C28.9289 26.5537 28.9181 26.5537 28.9074 26.5537C28.8966 26.5537 28.8859 26.5537 28.8751 26.5537C28.8643 26.5537 28.8536 26.5537 28.8428 26.5537C28.832 26.5537 28.8212 26.5537 28.8105 26.5537C28.7997 26.5537 28.7889 26.5537 28.7781 26.5537C28.7673 26.5537 28.7566 26.5537 28.7458 26.5537C28.735 26.5537 28.7242 26.5537 28.7134 26.5537C28.7026 26.5537 28.6918 26.5537 28.681 26.5537C28.6702 26.5537 28.6594 26.5537 28.6485 26.5537C28.6377 26.5537 28.6269 26.5537 28.6161 26.5537C28.6053 26.5537 28.5945 26.5537 28.5836 26.5537C28.5728 26.5537 28.562 26.5537 28.5511 26.5537C28.5403 26.5537 28.5295 26.5537 28.5186 26.5537C28.5078 26.5537 28.4969 26.5537 28.4861 26.5537C28.4753 26.5537 28.4644 26.5537 28.4536 26.5537C28.4427 26.5537 28.4318 26.5537 28.421 26.5537C28.4101 26.5537 28.3993 26.5537 28.3884 26.5537C28.3775 26.5537 28.3667 26.5537 28.3558 26.5537C28.3449 26.5537 28.334 26.5537 28.3232 26.5537C28.3123 26.5537 28.3014 26.5537 28.2905 26.5537C28.2796 26.5537 28.2688 26.5537 28.2579 26.5537C28.247 26.5537 28.2361 26.5537 28.2252 26.5537C28.2143 26.5537 28.2034 26.5537 28.1925 26.5537C28.1816 26.5537 28.1707 26.5537 28.1598 26.5537C28.1489 26.5537 28.1379 26.5537 28.127 26.5537C28.1161 26.5537 28.1052 26.5537 28.0943 26.5537C28.0833 26.5537 28.0724 26.5537 28.0615 26.5537C28.0506 26.5537 28.0396 26.5537 28.0287 26.5537C28.0178 26.5537 28.0068 26.5537 27.9959 26.5537C27.985 26.5537 27.974 26.5537 27.9631 26.5537C27.9521 26.5537 27.9412 26.5537 27.9302 26.5537C27.9193 26.5537 27.9083 26.5537 27.8974 26.5537C27.8864 26.5537 27.8755 26.5537 27.8645 26.5537C27.8535 26.5537 27.8426 26.5537 27.8316 26.5537C27.8206 26.5537 27.8097 26.5537 27.7987 26.5537C27.7877 26.5537 27.7767 26.5537 27.7658 26.5537C27.7548 26.5537 27.7438 26.5537 27.7328 26.5537C27.7218 26.5537 27.7108 26.5537 27.6998 26.5537C27.6889 26.5537 27.6779 26.5537 27.6669 26.5537C27.6559 26.5537 27.6449 26.5537 27.6339 26.5537C27.6229 26.5537 27.6119 26.5537 27.6009 26.5537C27.5899 26.5537 27.5789 26.5537 27.5678 26.5537C27.5568 26.5537 27.5458 26.5537 27.5348 26.5537C27.5238 26.5537 27.5128 26.5537 27.5017 26.5537C27.4907 26.5537 27.4797 26.5537 27.4687 26.5537C27.4576 26.5537 27.4466 26.5537 27.4356 26.5537C27.4245 26.5537 27.4135 26.5537 27.4025 26.5537C27.3914 26.5537 27.3804 26.5537 27.3694 26.5537C27.3583 26.5537 27.3473 26.5537 27.3362 26.5537C27.3252 26.5537 27.3141 26.5537 27.3031 26.5537C27.292 26.5537 27.281 26.5537 27.2699 26.5537C27.2589 26.5537 27.2478 26.5537 27.2367 26.5537C27.2257 26.5537 27.2146 26.5537 27.2035 26.5537C27.1925 26.5537 27.1814 26.5537 27.1703 26.5537C27.1593 26.5537 27.1482 26.5537 27.1371 26.5537C27.126 26.5537 27.115 26.5537 27.1039 26.5537C27.0928 26.5537 27.0817 26.5537 27.0706 26.5537C27.0596 26.5537 27.0485 26.5537 27.0374 26.5537C27.0263 26.5537 27.0152 26.5537 27.0041 26.5537C26.993 26.5537 26.9819 26.5537 26.9708 26.5537C26.9597 26.5537 26.9486 26.5537 26.9375 26.5537C26.9264 26.5537 26.9153 26.5537 26.9042 26.5537C26.8931 26.5537 26.882 26.5537 26.8709 26.5537C26.8598 26.5537 26.8487 26.5537 26.8375 26.5537C26.8264 26.5537 26.8153 26.5537 26.8042 26.5537C26.7931 26.5537 26.782 26.5537 26.7708 26.5537V29.5537C26.782 29.5537 26.7931 29.5537 26.8042 29.5537C26.8153 29.5537 26.8264 29.5537 26.8375 29.5537C26.8487 29.5537 26.8598 29.5537 26.8709 29.5537C26.882 29.5537 26.8931 29.5537 26.9042 29.5537C26.9153 29.5537 26.9264 29.5537 26.9375 29.5537C26.9486 29.5537 26.9597 29.5537 26.9708 29.5537C26.9819 29.5537 26.993 29.5537 27.0041 29.5537C27.0152 29.5537 27.0263 29.5537 27.0374 29.5537C27.0485 29.5537 27.0596 29.5537 27.0706 29.5537C27.0817 29.5537 27.0928 29.5537 27.1039 29.5537C27.115 29.5537 27.126 29.5537 27.1371 29.5537C27.1482 29.5537 27.1593 29.5537 27.1703 29.5537C27.1814 29.5537 27.1925 29.5537 27.2035 29.5537C27.2146 29.5537 27.2257 29.5537 27.2367 29.5537C27.2478 29.5537 27.2589 29.5537 27.2699 29.5537C27.281 29.5537 27.292 29.5537 27.3031 29.5537C27.3141 29.5537 27.3252 29.5537 27.3362 29.5537C27.3473 29.5537 27.3583 29.5537 27.3694 29.5537C27.3804 29.5537 27.3914 29.5537 27.4025 29.5537C27.4135 29.5537 27.4245 29.5537 27.4356 29.5537C27.4466 29.5537 27.4576 29.5537 27.4687 29.5537C27.4797 29.5537 27.4907 29.5537 27.5017 29.5537C27.5128 29.5537 27.5238 29.5537 27.5348 29.5537C27.5458 29.5537 27.5568 29.5537 27.5678 29.5537C27.5789 29.5537 27.5899 29.5537 27.6009 29.5537C27.6119 29.5537 27.6229 29.5537 27.6339 29.5537C27.6449 29.5537 27.6559 29.5537 27.6669 29.5537C27.6779 29.5537 27.6889 29.5537 27.6998 29.5537C27.7108 29.5537 27.7218 29.5537 27.7328 29.5537C27.7438 29.5537 27.7548 29.5537 27.7658 29.5537C27.7767 29.5537 27.7877 29.5537 27.7987 29.5537C27.8097 29.5537 27.8206 29.5537 27.8316 29.5537C27.8426 29.5537 27.8535 29.5537 27.8645 29.5537C27.8755 29.5537 27.8864 29.5537 27.8974 29.5537C27.9083 29.5537 27.9193 29.5537 27.9302 29.5537C27.9412 29.5537 27.9521 29.5537 27.9631 29.5537C27.974 29.5537 27.985 29.5537 27.9959 29.5537C28.0068 29.5537 28.0178 29.5537 28.0287 29.5537C28.0396 29.5537 28.0506 29.5537 28.0615 29.5537C28.0724 29.5537 28.0833 29.5537 28.0943 29.5537C28.1052 29.5537 28.1161 29.5537 28.127 29.5537C28.1379 29.5537 28.1489 29.5537 28.1598 29.5537C28.1707 29.5537 28.1816 29.5537 28.1925 29.5537C28.2034 29.5537 28.2143 29.5537 28.2252 29.5537C28.2361 29.5537 28.247 29.5537 28.2579 29.5537C28.2688 29.5537 28.2796 29.5537 28.2905 29.5537C28.3014 29.5537 28.3123 29.5537 28.3232 29.5537C28.334 29.5537 28.3449 29.5537 28.3558 29.5537C28.3667 29.5537 28.3775 29.5537 28.3884 29.5537C28.3993 29.5537 28.4101 29.5537 28.421 29.5537C28.4318 29.5537 28.4427 29.5537 28.4536 29.5537C28.4644 29.5537 28.4753 29.5537 28.4861 29.5537C28.4969 29.5537 28.5078 29.5537 28.5186 29.5537C28.5295 29.5537 28.5403 29.5537 28.5511 29.5537C28.562 29.5537 28.5728 29.5537 28.5836 29.5537C28.5945 29.5537 28.6053 29.5537 28.6161 29.5537C28.6269 29.5537 28.6377 29.5537 28.6485 29.5537C28.6594 29.5537 28.6702 29.5537 28.681 29.5537C28.6918 29.5537 28.7026 29.5537 28.7134 29.5537C28.7242 29.5537 28.735 29.5537 28.7458 29.5537C28.7566 29.5537 28.7673 29.5537 28.7781 29.5537C28.7889 29.5537 28.7997 29.5537 28.8105 29.5537C28.8212 29.5537 28.832 29.5537 28.8428 29.5537C28.8536 29.5537 28.8643 29.5537 28.8751 29.5537C28.8859 29.5537 28.8966 29.5537 28.9074 29.5537C28.9181 29.5537 28.9289 29.5537 28.9396 29.5537C28.9504 29.5537 28.9611 29.5537 28.9719 29.5537C28.9826 29.5537 28.9934 29.5537 29.0041 29.5537C29.0148 29.5537 29.0256 29.5537 29.0363 29.5537C29.047 29.5537 29.0577 29.5537 29.0684 29.5537C29.0792 29.5537 29.0899 29.5537 29.1006 29.5537C29.1113 29.5537 29.122 29.5537 29.1327 29.5537C29.1434 29.5537 29.1541 29.5537 29.1648 29.5537C29.1755 29.5537 29.1862 29.5537 29.1969 29.5537C29.2076 29.5537 29.2183 29.5537 29.229 29.5537C29.2397 29.5537 29.2503 29.5537 29.261 29.5537C29.2717 29.5537 29.2823 29.5537 29.293 29.5537C29.3037 29.5537 29.3143 29.5537 29.325 29.5537C29.3357 29.5537 29.3463 29.5537 29.357 29.5537C29.3676 29.5537 29.3783 29.5537 29.3889 29.5537C29.3996 29.5537 29.4102 29.5537 29.4208 29.5537C29.4315 29.5537 29.4421 29.5537 29.4527 29.5537C29.4634 29.5537 29.474 29.5537 29.4846 29.5537C29.4952 29.5537 29.5058 29.5537 29.5164 29.5537C29.5271 29.5537 29.5377 29.5537 29.5483 29.5537C29.5589 29.5537 29.5695 29.5537 29.5801 29.5537C29.5907 29.5537 29.6012 29.5537 29.6118 29.5537C29.6224 29.5537 29.633 29.5537 29.6436 29.5537C29.6542 29.5537 29.6647 29.5537 29.6753 29.5537C29.6859 29.5537 29.6964 29.5537 29.707 29.5537C29.7176 29.5537 29.7281 29.5537 29.7387 29.5537C29.7492 29.5537 29.7598 29.5537 29.7703 29.5537C29.7809 29.5537 29.7914 29.5537 29.802 29.5537C29.8125 29.5537 29.823 29.5537 29.8335 29.5537C29.8441 29.5537 29.8546 29.5537 29.8651 29.5537C29.8756 29.5537 29.8862 29.5537 29.8967 29.5537C29.9072 29.5537 29.9177 29.5537 29.9282 29.5537C29.9387 29.5537 29.9492 29.5537 29.9597 29.5537C29.9702 29.5537 29.9807 29.5537 29.9911 29.5537C30.0016 29.5537 30.0121 29.5537 30.0226 29.5537C30.0331 29.5537 30.0435 29.5537 30.054 29.5537C30.0645 29.5537 30.0749 29.5537 30.0854 29.5537C30.0958 29.5537 30.1063 29.5537 30.1167 29.5537C30.1272 29.5537 30.1376 29.5537 30.1481 29.5537C30.1585 29.5537 30.169 29.5537 30.1794 29.5537C30.1898 29.5537 30.2002 29.5537 30.2107 29.5537C30.2211 29.5537 30.2315 29.5537 30.2419 29.5537C30.2523 29.5537 30.2627 29.5537 30.2731 29.5537C30.2836 29.5537 30.2939 29.5537 30.3043 29.5537C30.3147 29.5537 30.3251 29.5537 30.3355 29.5537C30.3459 29.5537 30.3563 29.5537 30.3667 29.5537C30.377 29.5537 30.3874 29.5537 30.3978 29.5537C30.4081 29.5537 30.4185 29.5537 30.4289 29.5537C30.4392 29.5537 30.4496 29.5537 30.4599 29.5537C30.4703 29.5537 30.4806 29.5537 30.4909 29.5537C30.5013 29.5537 30.5116 29.5537 30.5219 29.5537C30.5323 29.5537 30.5426 29.5537 30.5529 29.5537C30.5632 29.5537 30.5735 29.5537 30.5838 29.5537C30.5942 29.5537 30.6045 29.5537 30.6148 29.5537C30.6251 29.5537 30.6354 29.5537 30.6456 29.5537C30.6559 29.5537 30.6662 29.5537 30.6765 29.5537C30.6868 29.5537 30.6971 29.5537 30.7073 29.5537C30.7176 29.5537 30.7279 29.5537 30.7381 29.5537C30.7484 29.5537 30.7586 29.5537 30.7689 29.5537C30.7791 29.5537 30.7894 29.5537 30.7996 29.5537C30.8099 29.5537 30.8201 29.5537 30.8303 29.5537C30.8405 29.5537 30.8508 29.5537 30.861 29.5537C30.8712 29.5537 30.8814 29.5537 30.8916 29.5537C30.9018 29.5537 30.9121 29.5537 30.9223 29.5537C30.9324 29.5537 30.9426 29.5537 30.9528 29.5537C30.963 29.5537 30.9732 29.5537 30.9834 29.5537C30.9936 29.5537 31.0037 29.5537 31.0139 29.5537C31.0241 29.5537 31.0342 29.5537 31.0444 29.5537C31.0546 29.5537 31.0647 29.5537 31.0749 29.5537C31.085 29.5537 31.0951 29.5537 31.1053 29.5537C31.1154 29.5537 31.1256 29.5537 31.1357 29.5537C31.1458 29.5537 31.1559 29.5537 31.166 29.5537C31.1762 29.5537 31.1863 29.5537 31.1964 29.5537C31.2065 29.5537 31.2166 29.5537 31.2267 29.5537C31.2368 29.5537 31.2469 29.5537 31.2569 29.5537C31.267 29.5537 31.2771 29.5537 31.2872 29.5537C31.2973 29.5537 31.3073 29.5537 31.3174 29.5537C31.3274 29.5537 31.3375 29.5537 31.3476 29.5537C31.3576 29.5537 31.3677 29.5537 31.3777 29.5537C31.3877 29.5537 31.3978 29.5537 31.4078 29.5537C31.4178 29.5537 31.4279 29.5537 31.4379 29.5537C31.4479 29.5537 31.4579 29.5537 31.4679 29.5537C31.4779 29.5537 31.4879 29.5537 31.4979 29.5537C31.5079 29.5537 31.5179 29.5537 31.5279 29.5537C31.5379 29.5537 31.5479 29.5537 31.5578 29.5537C31.5678 29.5537 31.5778 29.5537 31.5877 29.5537C31.5977 29.5537 31.6077 29.5537 31.6176 29.5537C31.6276 29.5537 31.6375 29.5537 31.6474 29.5537C31.6574 29.5537 31.6673 29.5537 31.6772 29.5537C31.6872 29.5537 31.6971 29.5537 31.707 29.5537C31.7169 29.5537 31.7268 29.5537 31.7368 29.5537C31.7467 29.5537 31.7566 29.5537 31.7665 29.5537C31.7763 29.5537 31.7862 29.5537 31.7961 29.5537C31.806 29.5537 31.8159 29.5537 31.8257 29.5537C31.8356 29.5537 31.8455 29.5537 31.8553 29.5537C31.8652 29.5537 31.8751 29.5537 31.8849 29.5537C31.8948 29.5537 31.9046 29.5537 31.9144 29.5537C31.9243 29.5537 31.9341 29.5537 31.9439 29.5537C31.9537 29.5537 31.9636 29.5537 31.9734 29.5537C31.9832 29.5537 31.993 29.5537 32.0028 29.5537C32.0126 29.5537 32.0224 29.5537 32.0322 29.5537C32.042 29.5537 32.0518 29.5537 32.0615 29.5537C32.0713 29.5537 32.0811 29.5537 32.0908 29.5537C32.1006 29.5537 32.1104 29.5537 32.1201 29.5537C32.1299 29.5537 32.1396 29.5537 32.1494 29.5537C32.1591 29.5537 32.1688 29.5537 32.1786 29.5537C32.1883 29.5537 32.198 29.5537 32.2077 29.5537C32.2174 29.5537 32.2271 29.5537 32.2369 29.5537C32.2466 29.5537 32.2563 29.5537 32.2659 29.5537C32.2756 29.5537 32.2853 29.5537 32.295 29.5537C32.3047 29.5537 32.3144 29.5537 32.324 29.5537C32.3337 29.5537 32.3433 29.5537 32.353 29.5537C32.3627 29.5537 32.3723 29.5537 32.3819 29.5537C32.3916 29.5537 32.4012 29.5537 32.4108 29.5537C32.4205 29.5537 32.4301 29.5537 32.4397 29.5537C32.4493 29.5537 32.4589 29.5537 32.4685 29.5537C32.4781 29.5537 32.4877 29.5537 32.4973 29.5537C32.5069 29.5537 32.5165 29.5537 32.5261 29.5537C32.5357 29.5537 32.5452 29.5537 32.5548 29.5537C32.5644 29.5537 32.5739 29.5537 32.5835 29.5537C32.593 29.5537 32.6026 29.5537 32.6121 29.5537C32.6217 29.5537 32.6312 29.5537 32.6407 29.5537C32.6502 29.5537 32.6598 29.5537 32.6693 29.5537C32.6788 29.5537 32.6883 29.5537 32.6978 29.5537C32.7073 29.5537 32.7168 29.5537 32.7263 29.5537C32.7358 29.5537 32.7452 29.5537 32.7547 29.5537C32.7642 29.5537 32.7737 29.5537 32.7831 29.5537C32.7926 29.5537 32.802 29.5537 32.8115 29.5537C32.8209 29.5537 32.8304 29.5537 32.8398 29.5537C32.8492 29.5537 32.8587 29.5537 32.8681 29.5537C32.8775 29.5537 32.8869 29.5537 32.8963 29.5537C32.9057 29.5537 32.9151 29.5537 32.9245 29.5537C32.9339 29.5537 32.9433 29.5537 32.9527 29.5537C32.9621 29.5537 32.9715 29.5537 32.9808 29.5537C32.9902 29.5537 32.9996 29.5537 33.0089 29.5537C33.0183 29.5537 33.0276 29.5537 33.0369 29.5537C33.0463 29.5537 33.0556 29.5537 33.0649 29.5537C33.0743 29.5537 33.0836 29.5537 33.0929 29.5537C33.1022 29.5537 33.1115 29.5537 33.1208 29.5537C33.1301 29.5537 33.1394 29.5537 33.1487 29.5537C33.158 29.5537 33.1673 29.5537 33.1765 29.5537C33.1858 29.5537 33.1951 29.5537 33.2043 29.5537C33.2136 29.5537 33.2228 29.5537 33.2321 29.5537C33.2413 29.5537 33.2506 29.5537 33.2598 29.5537C33.269 29.5537 33.2782 29.5537 33.2875 29.5537C33.2967 29.5537 33.3059 29.5537 33.3151 29.5537C33.3243 29.5537 33.3335 29.5537 33.3427 29.5537C33.3519 29.5537 33.361 29.5537 33.3702 29.5537C33.3794 29.5537 33.3885 29.5537 33.3977 29.5537C33.4069 29.5537 33.416 29.5537 33.4252 29.5537C33.4343 29.5537 33.4434 29.5537 33.4526 29.5537C33.4617 29.5537 33.4708 29.5537 33.4799 29.5537C33.4891 29.5537 33.4982 29.5537 33.5073 29.5537C33.5164 29.5537 33.5255 29.5537 33.5345 29.5537C33.5436 29.5537 33.5527 29.5537 33.5618 29.5537C33.5709 29.5537 33.5799 29.5537 33.589 29.5537C33.598 29.5537 33.6071 29.5537 33.6161 29.5537C33.6252 29.5537 33.6342 29.5537 33.6432 29.5537C33.6523 29.5537 33.6613 29.5537 33.6703 29.5537C33.6793 29.5537 33.6883 29.5537 33.6973 29.5537C33.7063 29.5537 33.7153 29.5537 33.7243 29.5537C33.7333 29.5537 33.7423 29.5537 33.7512 29.5537C33.7602 29.5537 33.7692 29.5537 33.7781 29.5537C33.7871 29.5537 33.796 29.5537 33.805 29.5537C33.8139 29.5537 33.8228 29.5537 33.8318 29.5537C33.8407 29.5537 33.8496 29.5537 33.8585 29.5537C33.8674 29.5537 33.8763 29.5537 33.8852 29.5537C33.8941 29.5537 33.903 29.5537 33.9119 29.5537C33.9207 29.5537 33.9296 29.5537 33.9385 29.5537C33.9473 29.5537 33.9562 29.5537 33.9651 29.5537C33.9739 29.5537 33.9827 29.5537 33.9916 29.5537C34.0004 29.5537 34.0092 29.5537 34.0181 29.5537C34.0269 29.5537 34.0357 29.5537 34.0445 29.5537C34.0533 29.5537 34.0621 29.5537 34.0709 29.5537C34.0797 29.5537 34.0884 29.5537 34.0972 29.5537C34.106 29.5537 34.1147 29.5537 34.1235 29.5537C34.1323 29.5537 34.141 29.5537 34.1497 29.5537C34.1585 29.5537 34.1672 29.5537 34.1759 29.5537C34.1847 29.5537 34.1934 29.5537 34.2021 29.5537C34.2108 29.5537 34.2195 29.5537 34.2282 29.5537C34.2369 29.5537 34.2456 29.5537 34.2543 29.5537C34.2629 29.5537 34.2716 29.5537 34.2803 29.5537C34.2889 29.5537 34.2976 29.5537 34.3062 29.5537C34.3149 29.5537 34.3235 29.5537 34.3322 29.5537C34.3408 29.5537 34.3494 29.5537 34.358 29.5537C34.3666 29.5537 34.3752 29.5537 34.3838 29.5537C34.3924 29.5537 34.401 29.5537 34.4096 29.5537C34.4182 29.5537 34.4268 29.5537 34.4353 29.5537C34.4439 29.5537 34.4525 29.5537 34.461 29.5537C34.4696 29.5537 34.4781 29.5537 34.4866 29.5537C34.4952 29.5537 34.5037 29.5537 34.5122 29.5537C34.5207 29.5537 34.5292 29.5537 34.5377 29.5537C34.5462 29.5537 34.5547 29.5537 34.5632 29.5537C34.5717 29.5537 34.5802 29.5537 34.5887 29.5537C34.5971 29.5537 34.6056 29.5537 34.614 29.5537C34.6225 29.5537 34.6309 29.5537 34.6394 29.5537C34.6478 29.5537 34.6562 29.5537 34.6647 29.5537C34.6731 29.5537 34.6815 29.5537 34.6899 29.5537C34.6983 29.5537 34.7067 29.5537 34.7151 29.5537C34.7235 29.5537 34.7318 29.5537 34.7402 29.5537C34.7486 29.5537 34.7569 29.5537 34.7653 29.5537C34.7736 29.5537 34.782 29.5537 34.7903 29.5537C34.7987 29.5537 34.807 29.5537 34.8153 29.5537C34.8236 29.5537 34.8319 29.5537 34.8402 29.5537C34.8486 29.5537 34.8568 29.5537 34.8651 29.5537C34.8734 29.5537 34.8817 29.5537 34.89 29.5537C34.8982 29.5537 34.9065 29.5537 34.9147 29.5537C34.923 29.5537 34.9312 29.5537 34.9395 29.5537C34.9477 29.5537 34.9559 29.5537 34.9642 29.5537C34.9724 29.5537 34.9806 29.5537 34.9888 29.5537C34.997 29.5537 35.0052 29.5537 35.0134 29.5537C35.0215 29.5537 35.0297 29.5537 35.0379 29.5537C35.046 29.5537 35.0542 29.5537 35.0624 29.5537C35.0705 29.5537 35.0786 29.5537 35.0868 29.5537C35.0949 29.5537 35.103 29.5537 35.1111 29.5537C35.1193 29.5537 35.1274 29.5537 35.1355 29.5537C35.1436 29.5537 35.1516 29.5537 35.1597 29.5537C35.1678 29.5537 35.1759 29.5537 35.1839 29.5537C35.192 29.5537 35.2001 29.5537 35.2081 29.5537C35.2161 29.5537 35.2242 29.5537 35.2322 29.5537C35.2402 29.5537 35.2482 29.5537 35.2563 29.5537C35.2643 29.5537 35.2723 29.5537 35.2803 29.5537C35.2882 29.5537 35.2962 29.5537 35.3042 29.5537C35.3122 29.5537 35.3201 29.5537 35.3281 29.5537C35.3361 29.5537 35.344 29.5537 35.3519 29.5537C35.3599 29.5537 35.3678 29.5537 35.3757 29.5537C35.3836 29.5537 35.3916 29.5537 35.3995 29.5537C35.4074 29.5537 35.4153 29.5537 35.4231 29.5537C35.431 29.5537 35.4389 29.5537 35.4468 29.5537C35.4546 29.5537 35.4625 29.5537 35.4703 29.5537C35.4782 29.5537 35.486 29.5537 35.4939 29.5537C35.5017 29.5537 35.5095 29.5537 35.5173 29.5537C35.5251 29.5537 35.5329 29.5537 35.5407 29.5537C35.5485 29.5537 35.5563 29.5537 35.5641 29.5537C35.5718 29.5537 35.5796 29.5537 35.5874 29.5537C35.5951 29.5537 35.6029 29.5537 35.6106 29.5537C35.6184 29.5537 35.6261 29.5537 35.6338 29.5537C35.6415 29.5537 35.6492 29.5537 35.6569 29.5537C35.6646 29.5537 35.6723 29.5537 35.68 29.5537C35.6877 29.5537 35.6954 29.5537 35.703 29.5537C35.7107 29.5537 35.7184 29.5537 35.726 29.5537C35.7336 29.5537 35.7413 29.5537 35.7489 29.5537C35.7565 29.5537 35.7642 29.5537 35.7718 29.5537C35.7794 29.5537 35.787 29.5537 35.7946 29.5537C35.8022 29.5537 35.8097 29.5537 35.8173 29.5537C35.8249 29.5537 35.8324 29.5537 35.84 29.5537C35.8475 29.5537 35.8551 29.5537 35.8626 29.5537C35.8701 29.5537 35.8777 29.5537 35.8852 29.5537C35.8927 29.5537 35.9002 29.5537 35.9077 29.5537C35.9152 29.5537 35.9227 29.5537 35.9302 29.5537C35.9376 29.5537 35.9451 29.5537 35.9526 29.5537C35.96 29.5537 35.9675 29.5537 35.9749 29.5537C35.9823 29.5537 35.9898 29.5537 35.9972 29.5537C36.0046 29.5537 36.012 29.5537 36.0194 29.5537C36.0268 29.5537 36.0342 29.5537 36.0416 29.5537C36.049 29.5537 36.0563 29.5537 36.0637 29.5537C36.0711 29.5537 36.0784 29.5537 36.0858 29.5537C36.0931 29.5537 36.1004 29.5537 36.1078 29.5537C36.1151 29.5537 36.1224 29.5537 36.1297 29.5537C36.137 29.5537 36.1443 29.5537 36.1516 29.5537C36.1589 29.5537 36.1661 29.5537 36.1734 29.5537C36.1807 29.5537 36.1879 29.5537 36.1952 29.5537C36.2024 29.5537 36.2096 29.5537 36.2169 29.5537C36.2241 29.5537 36.2313 29.5537 36.2385 29.5537C36.2457 29.5537 36.2529 29.5537 36.2601 29.5537C36.2673 29.5537 36.2744 29.5537 36.2816 29.5537C36.2888 29.5537 36.2959 29.5537 36.3031 29.5537C36.3102 29.5537 36.3174 29.5537 36.3245 29.5537C36.3316 29.5537 36.3387 29.5537 36.3458 29.5537C36.3529 29.5537 36.36 29.5537 36.3671 29.5537C36.3742 29.5537 36.3813 29.5537 36.3883 29.5537C36.3954 29.5537 36.4025 29.5537 36.4095 29.5537C36.4166 29.5537 36.4236 29.5537 36.4306 29.5537C36.4377 29.5537 36.4447 29.5537 36.4517 29.5537C36.4587 29.5537 36.4657 29.5537 36.4727 29.5537C36.4796 29.5537 36.4866 29.5537 36.4936 29.5537C36.5005 29.5537 36.5075 29.5537 36.5144 29.5537C36.5214 29.5537 36.5283 29.5537 36.5352 29.5537C36.5422 29.5537 36.5491 29.5537 36.556 29.5537C36.5629 29.5537 36.5698 29.5537 36.5767 29.5537C36.5836 29.5537 36.5904 29.5537 36.5973 29.5537C36.6042 29.5537 36.611 29.5537 36.6179 29.5537C36.6247 29.5537 36.6315 29.5537 36.6383 29.5537C36.6452 29.5537 36.652 29.5537 36.6588 29.5537C36.6656 29.5537 36.6724 29.5537 36.6792 29.5537C36.6859 29.5537 36.6927 29.5537 36.6995 29.5537C36.7062 29.5537 36.713 29.5537 36.7197 29.5537C36.7264 29.5537 36.7332 29.5537 36.7399 29.5537C36.7466 29.5537 36.7533 29.5537 36.76 29.5537C36.7667 29.5537 36.7734 29.5537 36.7801 29.5537C36.7868 29.5537 36.7934 29.5537 36.8001 29.5537C36.8067 29.5537 36.8134 29.5537 36.82 29.5537C36.8266 29.5537 36.8333 29.5537 36.8399 29.5537C36.8465 29.5537 36.8531 29.5537 36.8597 29.5537C36.8663 29.5537 36.8729 29.5537 36.8794 29.5537C36.886 29.5537 36.8926 29.5537 36.8991 29.5537C36.9057 29.5537 36.9122 29.5537 36.9187 29.5537C36.9253 29.5537 36.9318 29.5537 36.9383 29.5537C36.9448 29.5537 36.9513 29.5537 36.9578 29.5537C36.9643 29.5537 36.9707 29.5537 36.9772 29.5537C36.9837 29.5537 36.9901 29.5537 36.9966 29.5537C37.003 29.5537 37.0094 29.5537 37.0159 29.5537C37.0223 29.5537 37.0287 29.5537 37.0351 29.5537C37.0415 29.5537 37.0479 29.5537 37.0543 29.5537C37.0606 29.5537 37.067 29.5537 37.0734 29.5537C37.0797 29.5537 37.0861 29.5537 37.0924 29.5537C37.0987 29.5537 37.1051 29.5537 37.1114 29.5537C37.1177 29.5537 37.124 29.5537 37.1303 29.5537C37.1366 29.5537 37.1428 29.5537 37.1491 29.5537C37.1554 29.5537 37.1616 29.5537 37.1679 29.5537C37.1741 29.5537 37.1804 29.5537 37.1866 29.5537C37.1928 29.5537 37.199 29.5537 37.2052 29.5537C37.2115 29.5537 37.2176 29.5537 37.2238 29.5537C37.23 29.5537 37.2362 29.5537 37.2423 29.5537C37.2485 29.5537 37.2546 29.5537 37.2608 29.5537C37.2669 29.5537 37.273 29.5537 37.2792 29.5537C37.2853 29.5537 37.2914 29.5537 37.2975 29.5537C37.3036 29.5537 37.3097 29.5537 37.3157 29.5537C37.3218 29.5537 37.3279 29.5537 37.3339 29.5537C37.34 29.5537 37.346 29.5537 37.352 29.5537C37.358 29.5537 37.3641 29.5537 37.3701 29.5537C37.3761 29.5537 37.3821 29.5537 37.388 29.5537C37.394 29.5537 37.4 29.5537 37.4059 29.5537C37.4119 29.5537 37.4179 29.5537 37.4238 29.5537C37.4297 29.5537 37.4357 29.5537 37.4416 29.5537C37.4475 29.5537 37.4534 29.5537 37.4593 29.5537C37.4652 29.5537 37.471 29.5537 37.4769 29.5537C37.4828 29.5537 37.4886 29.5537 37.4945 29.5537C37.5003 29.5537 37.5062 29.5537 37.512 29.5537C37.5178 29.5537 37.5236 29.5537 37.5294 29.5537C37.5352 29.5537 37.541 29.5537 37.5468 29.5537C37.5526 29.5537 37.5583 29.5537 37.5641 29.5537C37.5698 29.5537 37.5756 29.5537 37.5813 29.5537C37.587 29.5537 37.5928 29.5537 37.5985 29.5537C37.6042 29.5537 37.6099 29.5537 37.6156 29.5537C37.6213 29.5537 37.6269 29.5537 37.6326 29.5537C37.6382 29.5537 37.6439 29.5537 37.6495 29.5537C37.6552 29.5537 37.6608 29.5537 37.6664 29.5537C37.672 29.5537 37.6776 29.5537 37.6832 29.5537C37.6888 29.5537 37.6944 29.5537 37.7 29.5537C37.7055 29.5537 37.7111 29.5537 37.7166 29.5537C37.7222 29.5537 37.7277 29.5537 37.7332 29.5537C37.7388 29.5537 37.7443 29.5537 37.7498 29.5537C37.7553 29.5537 37.7608 29.5537 37.7662 29.5537C37.7717 29.5537 37.7772 29.5537 37.7826 29.5537C37.7881 29.5537 37.7935 29.5537 37.799 29.5537C37.8044 29.5537 37.8098 29.5537 37.8152 29.5537C37.8206 29.5537 37.826 29.5537 37.8314 29.5537C37.8368 29.5537 37.8421 29.5537 37.8475 29.5537C37.8528 29.5537 37.8582 29.5537 37.8635 29.5537C37.8689 29.5537 37.8742 29.5537 37.8795 29.5537C37.8848 29.5537 37.8901 29.5537 37.8954 29.5537C37.9007 29.5537 37.9059 29.5537 37.9112 29.5537C37.9165 29.5537 37.9217 29.5537 37.927 29.5537C37.9322 29.5537 37.9374 29.5537 37.9426 29.5537C37.9479 29.5537 37.9531 29.5537 37.9582 29.5537C37.9634 29.5537 37.9686 29.5537 37.9738 29.5537C37.9789 29.5537 37.9841 29.5537 37.9892 29.5537C37.9944 29.5537 37.9995 29.5537 38.0046 29.5537C38.0097 29.5537 38.0148 29.5537 38.0199 29.5537C38.025 29.5537 38.0301 29.5537 38.0352 29.5537C38.0403 29.5537 38.0453 29.5537 38.0504 29.5537C38.0554 29.5537 38.0604 29.5537 38.0655 29.5537C38.0705 29.5537 38.0755 29.5537 38.0805 29.5537C38.0855 29.5537 38.0905 29.5537 38.0954 29.5537C38.1004 29.5537 38.1054 29.5537 38.1103 29.5537C38.1153 29.5537 38.1202 29.5537 38.1251 29.5537C38.13 29.5537 38.1349 29.5537 38.1398 29.5537C38.1447 29.5537 38.1496 29.5537 38.1545 29.5537C38.1594 29.5537 38.1642 29.5537 38.1691 29.5537C38.1739 29.5537 38.1788 29.5537 38.1836 29.5537C38.1884 29.5537 38.1932 29.5537 38.198 29.5537C38.2028 29.5537 38.2076 29.5537 38.2124 29.5537C38.2171 29.5537 38.2219 29.5537 38.2267 29.5537C38.2314 29.5537 38.2361 29.5537 38.2409 29.5537C38.2456 29.5537 38.2503 29.5537 38.255 29.5537C38.2597 29.5537 38.2644 29.5537 38.2691 29.5537C38.2737 29.5537 38.2784 29.5537 38.283 29.5537C38.2877 29.5537 38.2923 29.5537 38.2969 29.5537C38.3016 29.5537 38.3062 29.5537 38.3108 29.5537C38.3154 29.5537 38.32 29.5537 38.3245 29.5537C38.3291 29.5537 38.3337 29.5537 38.3382 29.5537C38.3428 29.5537 38.3473 29.5537 38.3518 29.5537C38.3563 29.5537 38.3609 29.5537 38.3654 29.5537C38.3698 29.5537 38.3743 29.5537 38.3788 29.5537C38.3833 29.5537 38.3877 29.5537 38.3922 29.5537C38.3966 29.5537 38.4011 29.5537 38.4055 29.5537C38.4099 29.5537 38.4143 29.5537 38.4187 29.5537C38.4231 29.5537 38.4275 29.5537 38.4318 29.5537C38.4362 29.5537 38.4406 29.5537 38.4449 29.5537C38.4493 29.5537 38.4536 29.5537 38.4579 29.5537C38.4622 29.5537 38.4665 29.5537 38.4708 29.5537C38.4751 29.5537 38.4794 29.5537 38.4837 29.5537C38.4879 29.5537 38.4922 29.5537 38.4964 29.5537C38.5007 29.5537 38.5049 29.5537 38.5091 29.5537C38.5133 29.5537 38.5175 29.5537 38.5217 29.5537C38.5259 29.5537 38.5301 29.5537 38.5342 29.5537C38.5384 29.5537 38.5425 29.5537 38.5467 29.5537C38.5508 29.5537 38.5549 29.5537 38.5591 29.5537C38.5632 29.5537 38.5673 29.5537 38.5713 29.5537C38.5754 29.5537 38.5795 29.5537 38.5836 29.5537C38.5876 29.5537 38.5917 29.5537 38.5957 29.5537C38.5997 29.5537 38.6037 29.5537 38.6077 29.5537C38.6118 29.5537 38.6157 29.5537 38.6197 29.5537C38.6237 29.5537 38.6277 29.5537 38.6316 29.5537C38.6356 29.5537 38.6395 29.5537 38.6434 29.5537C38.6474 29.5537 38.6513 29.5537 38.6552 29.5537C38.6591 29.5537 38.663 29.5537 38.6668 29.5537C38.6707 29.5537 38.6746 29.5537 38.6784 29.5537C38.6823 29.5537 38.6861 29.5537 38.6899 29.5537C38.6937 29.5537 38.6975 29.5537 38.7013 29.5537C38.7051 29.5537 38.7089 29.5537 38.7127 29.5537C38.7164 29.5537 38.7202 29.5537 38.7239 29.5537C38.7277 29.5537 38.7314 29.5537 38.7351 29.5537C38.7388 29.5537 38.7425 29.5537 38.7462 29.5537C38.7499 29.5537 38.7536 29.5537 38.7572 29.5537C38.7609 29.5537 38.7645 29.5537 38.7682 29.5537C38.7718 29.5537 38.7754 29.5537 38.779 29.5537C38.7826 29.5537 38.7862 29.5537 38.7898 29.5537C38.7934 29.5537 38.7969 29.5537 38.8005 29.5537C38.804 29.5537 38.8076 29.5537 38.8111 29.5537C38.8146 29.5537 38.8181 29.5537 38.8216 29.5537C38.8251 29.5537 38.8286 29.5537 38.8321 29.5537C38.8356 29.5537 38.839 29.5537 38.8425 29.5537C38.8459 29.5537 38.8493 29.5537 38.8527 29.5537C38.8562 29.5537 38.8596 29.5537 38.8629 29.5537C38.8663 29.5537 38.8697 29.5537 38.8731 29.5537C38.8764 29.5537 38.8798 29.5537 38.8831 29.5537C38.8864 29.5537 38.8898 29.5537 38.8931 29.5537C38.8964 29.5537 38.8997 29.5537 38.9029 29.5537C38.9062 29.5537 38.9095 29.5537 38.9127 29.5537C38.916 29.5537 38.9192 29.5537 38.9224 29.5537C38.9257 29.5537 38.9289 29.5537 38.9321 29.5537C38.9353 29.5537 38.9384 29.5537 38.9416 29.5537C38.9448 29.5537 38.9479 29.5537 38.9511 29.5537C38.9542 29.5537 38.9573 29.5537 38.9604 29.5537C38.9636 29.5537 38.9666 29.5537 38.9697 29.5537C38.9728 29.5537 38.9759 29.5537 38.9789 29.5537C38.982 29.5537 38.985 29.5537 38.9881 29.5537C38.9911 29.5537 38.9941 29.5537 38.9971 29.5537C39.0001 29.5537 39.0031 29.5537 39.0061 29.5537C39.009 29.5537 39.012 29.5537 39.0149 29.5537C39.0179 29.5537 39.0208 29.5537 39.0237 29.5537C39.0266 29.5537 39.0295 29.5537 39.0324 29.5537C39.0353 29.5537 39.0382 29.5537 39.041 29.5537C39.0439 29.5537 39.0467 29.5537 39.0496 29.5537C39.0524 29.5537 39.0552 29.5537 39.058 29.5537V26.5537Z" fill="black"/>
</svg>
