<svg viewBox="0 0 20 20" xmlns="http://www.w3.org/2000/svg">
  <path fill-rule="evenodd" clip-rule="evenodd" d="m10.24 3.337-.238-.004c-3.451 0-6.561 2.436-8.285 6.422a.617.617 0 0 0 0 .49l.12.269c1.702 3.73 4.643 6.04 7.923 6.149l.238.004c3.451 0 6.56-2.436 8.284-6.422a.617.617 0 0 0-.002-.496l-.116-.261c-1.706-3.737-4.648-6.042-7.924-6.15Zm-.232 1.238.199.004.222.011c2.664.189 5.115 2.165 6.595 5.41l-.008.02c-1.517 3.314-4.052 5.301-6.8 5.4l-.213.004-.214-.003-.222-.011c-2.581-.183-4.962-2.048-6.451-5.11l-.141-.3.13-.278c1.57-3.244 4.138-5.147 6.903-5.147ZM10 6.76c-1.8 0-3.26 1.45-3.26 3.24 0 1.788 1.46 3.237 3.26 3.237 1.8 0 3.26-1.45 3.26-3.238 0-1.789-1.46-3.239-3.26-3.239Zm0 1.242c1.11 0 2.01.894 2.01 1.997 0 1.103-.9 1.996-2.01 1.996-1.11 0-2.01-.893-2.01-1.996s.9-1.997 2.01-1.997Z"></path>
</svg>
