<svg viewBox="0 0 326 35" fill="none" xmlns="http://www.w3.org/2000/svg">
<path d="M148.499 33.5396C148.194 33.7101 147.842 33.7766 147.495 33.7291H140.863C140.143 33.7291 139.859 33.4165 140.001 32.7817L145.382 9.82666C145.659 8.67768 146.075 7.56717 146.624 6.5203C147.182 5.45293 147.923 4.49114 148.812 3.67816C149.763 2.8128 150.869 2.13462 152.071 1.67918C153.473 1.15698 154.961 0.903094 156.457 0.93075H170.668C171.034 0.93075 171.262 0.987593 171.35 1.10128C171.426 1.20549 171.407 1.5276 171.284 2.04866L170.052 7.34452C170.004 7.64872 169.873 7.93378 169.673 8.16875C169.452 8.32248 169.184 8.39601 168.915 8.37717H157.348C156.818 8.35705 156.29 8.44405 155.794 8.63296C155.446 8.76088 155.127 8.9577 154.857 9.21164C154.587 9.46558 154.371 9.77143 154.222 10.1109C154.089 10.4164 153.984 10.7336 153.909 11.0583L153.227 13.9572H165.543C165.912 13.9572 166.14 14.0236 166.225 14.1467C166.31 14.2699 166.282 14.6015 166.159 15.0941L165.022 19.9636C164.851 20.6837 164.472 21.0437 163.875 21.0437H151.559L148.831 32.7533C148.787 33.0289 148.669 33.2874 148.49 33.5017" fill="white"/>
<path d="M199.443 17.2521C198.884 19.7007 198.042 22.0758 196.932 24.329C195.957 26.3212 194.639 28.1265 193.038 29.6628C191.467 31.1405 189.614 32.2874 187.591 33.0355C185.308 33.8453 182.898 34.2399 180.476 34.2007C178.316 34.2705 176.166 33.8831 174.167 33.0639C172.585 32.3818 171.259 31.2181 170.377 29.7386C169.477 28.1068 168.996 26.2776 168.975 24.4143C168.913 22.0336 169.177 19.6556 169.761 17.3468C170.311 14.917 171.184 12.5718 172.357 10.3741C173.409 8.37029 174.782 6.55246 176.421 4.99296C178.002 3.51051 179.855 2.349 181.878 1.57291C183.995 0.764175 186.244 0.359285 188.51 0.379213C190.672 0.307209 192.824 0.714865 194.81 1.57291C196.401 2.29561 197.74 3.47651 198.656 4.96454C199.583 6.58989 200.094 8.41872 200.144 10.2888C200.229 12.6326 199.983 14.9767 199.414 17.2521M190.073 17.2995C190.32 16.1498 190.491 14.9851 190.585 13.8131C190.681 12.8618 190.617 11.901 190.395 10.9709C190.208 10.2037 189.776 9.51851 189.164 9.01934C188.419 8.49953 187.521 8.24586 186.615 8.29932C185.717 8.2911 184.834 8.53391 184.067 9.00039C183.243 9.49139 182.519 10.1344 181.935 10.8952C181.274 11.7511 180.723 12.6869 180.296 13.6805C179.824 14.7551 179.453 15.8716 179.188 17.0152C178.875 18.2878 178.666 19.5837 178.562 20.89C178.457 21.8732 178.544 22.8674 178.818 23.8174C179.024 24.5624 179.479 25.2143 180.107 25.6648C180.857 26.1441 181.738 26.376 182.627 26.328C183.589 26.3414 184.537 26.089 185.365 25.5985C186.191 25.0937 186.907 24.4266 187.468 23.6374C188.096 22.7578 188.612 21.803 189.003 20.7953C189.436 19.6784 189.791 18.5324 190.064 17.3658" fill="white"/>
<path d="M260.036 15.7923C260.766 16.1227 261.413 16.6114 261.93 17.2229C262.394 17.7848 262.75 18.427 262.982 19.1177C263.203 19.8292 263.311 20.5707 263.304 21.3156C263.303 22.0848 263.211 22.8512 263.029 23.5988C262.693 25.0704 262.075 26.4632 261.21 27.7009C260.339 28.9323 259.27 30.0111 258.046 30.8936C256.796 31.7894 255.411 32.4802 253.944 32.9399C252.415 33.4373 250.815 33.6836 249.207 33.6694H237.033C235.754 33.6694 234.977 33.4326 234.722 32.9399C234.446 32.1778 234.446 31.3431 234.722 30.581L240.946 3.96902C241.099 3.10938 241.482 2.30726 242.054 1.64794C242.805 1.04858 243.761 0.769434 244.716 0.871083H256.881C258.159 0.864636 259.433 1.02386 260.67 1.34477C261.724 1.60967 262.698 2.12294 263.513 2.84164C264.264 3.54989 264.799 4.45647 265.057 5.45641C265.336 6.72465 265.301 8.04212 264.953 9.29331C264.622 10.5967 264 11.8081 263.134 12.8365C262.289 13.9135 261.24 14.812 260.045 15.4797L260.036 15.7923ZM247.72 12.9502H252.608C253.25 12.9425 253.881 12.78 254.446 12.4765C254.77 12.2788 255.048 12.0128 255.259 11.697C255.47 11.3813 255.61 11.0233 255.668 10.6481C255.762 10.3752 255.789 10.0837 255.746 9.79836C255.703 9.51299 255.592 9.24221 255.422 9.00909C255.214 8.80965 254.967 8.65665 254.696 8.56027C254.425 8.4639 254.136 8.42635 253.849 8.45014H248.781L247.72 12.9502ZM254.039 22.983C254.157 22.6132 254.192 22.2218 254.141 21.8369C254.09 21.452 253.955 21.0831 253.745 20.7566C253.488 20.4453 253.158 20.2027 252.785 20.0505C252.411 19.8984 252.005 19.8415 251.604 19.885H246.1L244.669 26.0241H250.164C250.711 26.0346 251.255 25.9381 251.765 25.7398C252.579 25.4001 253.249 24.787 253.66 24.0061C253.821 23.6799 253.945 23.3367 254.029 22.983" fill="white"/>
<path d="M287.985 33.6852H273.508C272.008 33.7584 270.51 33.4861 269.132 32.8894C268.176 32.4436 267.379 31.7164 266.848 30.8051C266.375 29.933 266.131 28.9552 266.138 27.963C266.139 26.9043 266.26 25.8492 266.498 24.8177L269.984 9.79219C270.265 8.64188 270.688 7.53115 271.244 6.48583C272.4 4.25243 274.34 2.52489 276.692 1.63524C278.094 1.11304 279.582 0.859149 281.078 0.886805H294.9C295.279 0.886805 295.507 0.943648 295.583 1.05733C295.668 1.16155 295.649 1.48366 295.526 2.00471L294.275 7.30058C294.229 7.60445 294.093 7.88785 293.887 8.11533C293.673 8.27778 293.406 8.35538 293.138 8.33322H281.997C281.464 8.31235 280.932 8.39935 280.434 8.58902C280.078 8.73442 279.756 8.95035 279.487 9.22376C279.243 9.4646 279.05 9.75115 278.918 10.0669C278.785 10.3725 278.68 10.6896 278.605 11.0143L278.141 12.9754H290.703C291.082 12.9754 291.31 13.0417 291.386 13.1649C291.461 13.288 291.442 13.6196 291.319 14.1123L290.182 18.9818C290.012 19.7018 289.623 20.0618 289.036 20.0618H276.483L275.659 23.5766C275.527 24.0314 275.488 24.5085 275.545 24.9787C275.577 25.2781 275.719 25.555 275.943 25.7556C276.18 25.9362 276.462 26.0477 276.758 26.0777C277.125 26.1312 277.496 26.1565 277.866 26.1535H289.766C290.135 26.1535 290.362 26.2103 290.448 26.3145C290.533 26.4187 290.514 26.7409 290.391 27.2619L289.14 32.5862C288.97 33.3062 288.591 33.6662 287.994 33.6662" fill="white"/>
<path d="M323.039 8.34935H315.034L309.35 32.7065C309.304 32.9903 309.186 33.2577 309.008 33.4834C308.703 33.6632 308.346 33.7365 307.995 33.6918H301.363C300.653 33.6918 300.416 33.3602 300.52 32.7444L306.204 8.38725H298.407C297.754 8.38725 297.46 8.02724 297.678 7.30723L298.9 2.05874C298.938 1.70392 299.091 1.37128 299.336 1.11136C299.585 0.978822 299.869 0.922807 300.15 0.950303H324.839C325.097 0.915695 325.358 0.9727 325.578 1.11136C325.692 1.22504 325.682 1.53768 325.578 2.05874L324.356 7.30723C324.313 7.61731 324.153 7.8989 323.907 8.09313C323.662 8.28735 323.351 8.37916 323.039 8.34935Z" fill="white"/>
<path d="M212.629 15.9372L208.631 32.7059C208.586 32.9916 208.465 33.26 208.281 33.4828C207.976 33.6639 207.619 33.7373 207.267 33.6912H200.636C199.916 33.6912 199.688 33.3691 199.792 32.7438L206.509 4.59709C206.673 3.49148 207.172 2.46285 207.94 1.65073C208.776 1.08815 209.777 0.82442 210.782 0.9023H213.217C213.619 0.896003 214.021 0.918164 214.42 0.968617C214.732 1.00677 215.034 1.10318 215.311 1.25283C215.592 1.40889 215.834 1.62575 216.021 1.88758C216.281 2.23757 216.506 2.61196 216.694 3.00549L221.004 13.0383L223.278 18.7226H223.61L227.636 1.84968C227.683 1.56461 227.804 1.29681 227.986 1.07283C228.288 0.890975 228.642 0.817443 228.991 0.864405H235.622C236.333 0.864405 236.57 1.18651 236.456 1.81179L229.758 29.9111C229.544 30.8847 229.103 31.7938 228.47 32.5638C228.073 32.9489 227.597 33.2426 227.075 33.4242C226.553 33.6059 225.997 33.6711 225.447 33.6154H223.022C222.63 33.6219 222.237 33.5998 221.847 33.5491C221.516 33.5159 221.195 33.4194 220.9 33.2649C220.615 33.1036 220.364 32.8879 220.161 32.6301C219.894 32.2869 219.677 31.9072 219.517 31.5027L215.254 21.6689L212.895 15.8615L212.629 15.9372Z" fill="white"/>
<path d="M127.412 15.4798L126.786 14.8545L122.665 18.9756L118.544 14.8545L117.909 15.4798L122.03 19.6103L117.909 23.722L118.544 24.3567L122.665 20.2356L126.786 24.3567L127.412 23.722L123.29 19.6103L127.412 15.4798Z" fill="black"/>
<path d="M10.0128 0.893555H3.38115C2.5746 0.893555 1.80112 1.21395 1.2308 1.78427C0.660487 2.35459 0.340088 3.1281 0.340088 3.93465V30.6982C0.340088 31.5047 0.660487 32.2782 1.2308 32.8486C1.80112 33.4189 2.5746 33.7393 3.38115 33.7393H10.0128C10.8194 33.7393 11.593 33.4189 12.1633 32.8486C12.7336 32.2782 13.054 31.5047 13.054 30.6982V13.7401H6.97176V17.4348H8.99917V29.9403H4.43273V4.61676H8.99917V9.68526H13.054V3.93465C13.054 3.1281 12.7336 2.35459 12.1633 1.78427C11.593 1.21395 10.8194 0.893555 10.0128 0.893555Z" fill="black"/>
<path d="M28.4697 20.4854C29.2319 20.4209 29.9416 20.0707 30.4564 19.5049C30.9712 18.9392 31.2531 18.1997 31.2456 17.4348V3.93465C31.2431 3.12723 30.9205 2.35374 30.3487 1.78369C29.7769 1.21365 29.0024 0.893551 28.195 0.893555H18.3896V33.6919H22.4538V4.61676H27.1907V16.7906H23.3065L27.6266 33.6919H31.8045L28.4697 20.4854Z" fill="black"/>
<path d="M36.322 33.6919H47.4727V29.9687H40.3768V17.4633H45.1043V13.7401H40.3768V4.61676H47.4727V0.893555H36.322V33.6919Z" fill="black"/>
<path d="M55.5433 0.893555L50.418 33.6919H54.5201L55.2875 27.9413H59.9297L60.697 33.6919H64.7993L59.6644 0.893555H55.5433ZM55.7897 24.2276L57.6086 10.5568L59.4371 24.237L55.7897 24.2276Z" fill="black"/>
<path d="M65.199 4.61676H69.5948V33.6919H73.6591V4.61676H78.0455V0.893555H65.199V4.61676Z" fill="black"/>
<path d="M100.327 0.893555H93.6951C92.8876 0.893551 92.1131 1.21365 91.5413 1.78369C90.9694 2.35374 90.6469 3.12723 90.6444 3.93465V12.3948C90.6448 13.6208 91.0625 14.8103 91.8286 15.7674C91.0624 16.7283 90.6449 17.9207 90.6444 19.1496V30.6982C90.6444 31.5047 90.9648 32.2782 91.5351 32.8486C92.1054 33.4189 92.879 33.7393 93.6856 33.7393H100.317C101.124 33.7393 101.897 33.4189 102.468 32.8486C103.038 32.2782 103.358 31.5047 103.358 30.6982V19.1496C103.354 17.9197 102.934 16.7274 102.165 15.7674C102.934 14.8111 103.354 13.6218 103.358 12.3948V3.93465C103.358 3.12974 103.039 2.35766 102.471 1.78761C101.903 1.21757 101.132 0.896062 100.327 0.893555ZM94.7182 4.61676H99.2752V12.3948C99.2727 12.7524 99.1288 13.0946 98.875 13.3466C98.6212 13.5986 98.278 13.7401 97.9204 13.7401H96.0256C95.6679 13.7401 95.3247 13.5986 95.0709 13.3466C94.8171 13.0946 94.6733 12.7524 94.6708 12.3948L94.7182 4.61676ZM99.2752 29.9687H94.7182V18.818C94.7182 18.4603 94.8596 18.1172 95.1116 17.8634C95.3636 17.6096 95.7059 17.4658 96.0635 17.4633H97.9583C98.3168 17.4657 98.6599 17.6093 98.9134 17.8628C99.1669 18.1163 99.3105 18.4595 99.313 18.818L99.2752 29.9687Z" fill="black"/>
</svg>
